%TF.GenerationSoftware,KiCad,Pcbnew,(6.0.8)*%
%TF.CreationDate,2023-04-02T10:01:26-07:00*%
%TF.ProjectId,FCP_steering_splitter,4643505f-7374-4656-9572-696e675f7370,rev?*%
%TF.SameCoordinates,Original*%
%TF.FileFunction,Drillmap*%
%TF.FilePolarity,Positive*%
%FSLAX45Y45*%
G04 Gerber Fmt 4.5, Leading zero omitted, Abs format (unit mm)*
G04 Created by KiCad (PCBNEW (6.0.8)) date 2023-04-02 10:01:26*
%MOMM*%
%LPD*%
G01*
G04 APERTURE LIST*
%ADD10C,0.100000*%
%ADD11C,0.200000*%
%ADD12C,0.300000*%
%ADD13C,0.325000*%
G04 APERTURE END LIST*
D10*
X18288000Y-6350000D02*
X16510000Y-3302000D01*
X11863605Y-9398000D02*
X18034000Y-9398000D01*
X11607764Y-6491581D02*
X13716000Y-3302000D01*
X11609610Y-9144000D02*
G75*
G03*
X11863605Y-9398000I254000J0D01*
G01*
X11609605Y-9144000D02*
X11607764Y-6491581D01*
X16510000Y-3302000D02*
X16002000Y-3048000D01*
X16002000Y-3048000D02*
X14224000Y-3048000D01*
X18288000Y-9144000D02*
X18288000Y-6350000D01*
X18034000Y-9398000D02*
G75*
G03*
X18288000Y-9144000I0J254000D01*
G01*
X14224000Y-3048000D02*
X13716000Y-3302000D01*
D11*
D12*
X12296000Y-8200000D02*
X12596000Y-8500000D01*
X12596000Y-8200000D02*
X12296000Y-8500000D01*
X13566000Y-8200000D02*
X13866000Y-8500000D01*
X13866000Y-8200000D02*
X13566000Y-8500000D01*
X14836000Y-8200000D02*
X15136000Y-8500000D01*
X15136000Y-8200000D02*
X14836000Y-8500000D01*
X16106000Y-8200000D02*
X16406000Y-8500000D01*
X16406000Y-8200000D02*
X16106000Y-8500000D01*
X17376000Y-8200000D02*
X17676000Y-8500000D01*
X17676000Y-8200000D02*
X17376000Y-8500000D01*
D13*
X14615500Y-3810000D02*
G75*
G03*
X14615500Y-3810000I-162500J0D01*
G01*
X15885500Y-3810000D02*
G75*
G03*
X15885500Y-3810000I-162500J0D01*
G01*
D11*
X11860383Y-9713476D02*
X11860383Y-9513476D01*
X11908002Y-9513476D01*
X11936573Y-9523000D01*
X11955621Y-9542048D01*
X11965145Y-9561095D01*
X11974669Y-9599190D01*
X11974669Y-9627762D01*
X11965145Y-9665857D01*
X11955621Y-9684905D01*
X11936573Y-9703952D01*
X11908002Y-9713476D01*
X11860383Y-9713476D01*
X12060383Y-9713476D02*
X12060383Y-9580143D01*
X12060383Y-9618238D02*
X12069907Y-9599190D01*
X12079430Y-9589667D01*
X12098478Y-9580143D01*
X12117526Y-9580143D01*
X12184192Y-9713476D02*
X12184192Y-9580143D01*
X12184192Y-9513476D02*
X12174669Y-9523000D01*
X12184192Y-9532524D01*
X12193716Y-9523000D01*
X12184192Y-9513476D01*
X12184192Y-9532524D01*
X12308002Y-9713476D02*
X12288954Y-9703952D01*
X12279430Y-9684905D01*
X12279430Y-9513476D01*
X12412764Y-9713476D02*
X12393716Y-9703952D01*
X12384192Y-9684905D01*
X12384192Y-9513476D01*
X12641335Y-9713476D02*
X12641335Y-9513476D01*
X12708002Y-9656333D01*
X12774669Y-9513476D01*
X12774669Y-9713476D01*
X12955621Y-9713476D02*
X12955621Y-9608714D01*
X12946097Y-9589667D01*
X12927050Y-9580143D01*
X12888954Y-9580143D01*
X12869907Y-9589667D01*
X12955621Y-9703952D02*
X12936573Y-9713476D01*
X12888954Y-9713476D01*
X12869907Y-9703952D01*
X12860383Y-9684905D01*
X12860383Y-9665857D01*
X12869907Y-9646810D01*
X12888954Y-9637286D01*
X12936573Y-9637286D01*
X12955621Y-9627762D01*
X13050859Y-9580143D02*
X13050859Y-9780143D01*
X13050859Y-9589667D02*
X13069907Y-9580143D01*
X13108002Y-9580143D01*
X13127050Y-9589667D01*
X13136573Y-9599190D01*
X13146097Y-9618238D01*
X13146097Y-9675381D01*
X13136573Y-9694429D01*
X13127050Y-9703952D01*
X13108002Y-9713476D01*
X13069907Y-9713476D01*
X13050859Y-9703952D01*
X13231811Y-9694429D02*
X13241335Y-9703952D01*
X13231811Y-9713476D01*
X13222288Y-9703952D01*
X13231811Y-9694429D01*
X13231811Y-9713476D01*
X13231811Y-9589667D02*
X13241335Y-9599190D01*
X13231811Y-9608714D01*
X13222288Y-9599190D01*
X13231811Y-9589667D01*
X13231811Y-9608714D01*
X11402764Y-9943000D02*
X11602764Y-10143000D01*
X11602764Y-9943000D02*
X11402764Y-10143000D01*
X11841335Y-9933476D02*
X11965145Y-9933476D01*
X11898478Y-10009667D01*
X11927050Y-10009667D01*
X11946097Y-10019190D01*
X11955621Y-10028714D01*
X11965145Y-10047762D01*
X11965145Y-10095381D01*
X11955621Y-10114429D01*
X11946097Y-10123952D01*
X11927050Y-10133476D01*
X11869907Y-10133476D01*
X11850859Y-10123952D01*
X11841335Y-10114429D01*
X12050859Y-10114429D02*
X12060383Y-10123952D01*
X12050859Y-10133476D01*
X12041335Y-10123952D01*
X12050859Y-10114429D01*
X12050859Y-10133476D01*
X12184192Y-9933476D02*
X12203240Y-9933476D01*
X12222288Y-9943000D01*
X12231811Y-9952524D01*
X12241335Y-9971571D01*
X12250859Y-10009667D01*
X12250859Y-10057286D01*
X12241335Y-10095381D01*
X12231811Y-10114429D01*
X12222288Y-10123952D01*
X12203240Y-10133476D01*
X12184192Y-10133476D01*
X12165145Y-10123952D01*
X12155621Y-10114429D01*
X12146097Y-10095381D01*
X12136573Y-10057286D01*
X12136573Y-10009667D01*
X12146097Y-9971571D01*
X12155621Y-9952524D01*
X12165145Y-9943000D01*
X12184192Y-9933476D01*
X12374669Y-9933476D02*
X12393716Y-9933476D01*
X12412764Y-9943000D01*
X12422288Y-9952524D01*
X12431811Y-9971571D01*
X12441335Y-10009667D01*
X12441335Y-10057286D01*
X12431811Y-10095381D01*
X12422288Y-10114429D01*
X12412764Y-10123952D01*
X12393716Y-10133476D01*
X12374669Y-10133476D01*
X12355621Y-10123952D01*
X12346097Y-10114429D01*
X12336573Y-10095381D01*
X12327050Y-10057286D01*
X12327050Y-10009667D01*
X12336573Y-9971571D01*
X12346097Y-9952524D01*
X12355621Y-9943000D01*
X12374669Y-9933476D01*
X12565145Y-9933476D02*
X12584192Y-9933476D01*
X12603240Y-9943000D01*
X12612764Y-9952524D01*
X12622288Y-9971571D01*
X12631811Y-10009667D01*
X12631811Y-10057286D01*
X12622288Y-10095381D01*
X12612764Y-10114429D01*
X12603240Y-10123952D01*
X12584192Y-10133476D01*
X12565145Y-10133476D01*
X12546097Y-10123952D01*
X12536573Y-10114429D01*
X12527050Y-10095381D01*
X12517526Y-10057286D01*
X12517526Y-10009667D01*
X12527050Y-9971571D01*
X12536573Y-9952524D01*
X12546097Y-9943000D01*
X12565145Y-9933476D01*
X12717526Y-10133476D02*
X12717526Y-10000143D01*
X12717526Y-10019190D02*
X12727050Y-10009667D01*
X12746097Y-10000143D01*
X12774669Y-10000143D01*
X12793716Y-10009667D01*
X12803240Y-10028714D01*
X12803240Y-10133476D01*
X12803240Y-10028714D02*
X12812764Y-10009667D01*
X12831811Y-10000143D01*
X12860383Y-10000143D01*
X12879430Y-10009667D01*
X12888954Y-10028714D01*
X12888954Y-10133476D01*
X12984192Y-10133476D02*
X12984192Y-10000143D01*
X12984192Y-10019190D02*
X12993716Y-10009667D01*
X13012764Y-10000143D01*
X13041335Y-10000143D01*
X13060383Y-10009667D01*
X13069907Y-10028714D01*
X13069907Y-10133476D01*
X13069907Y-10028714D02*
X13079430Y-10009667D01*
X13098478Y-10000143D01*
X13127050Y-10000143D01*
X13146097Y-10009667D01*
X13155621Y-10028714D01*
X13155621Y-10133476D01*
X13546097Y-9923952D02*
X13374669Y-10181095D01*
X13803240Y-9933476D02*
X13822288Y-9933476D01*
X13841335Y-9943000D01*
X13850859Y-9952524D01*
X13860383Y-9971571D01*
X13869907Y-10009667D01*
X13869907Y-10057286D01*
X13860383Y-10095381D01*
X13850859Y-10114429D01*
X13841335Y-10123952D01*
X13822288Y-10133476D01*
X13803240Y-10133476D01*
X13784192Y-10123952D01*
X13774669Y-10114429D01*
X13765145Y-10095381D01*
X13755621Y-10057286D01*
X13755621Y-10009667D01*
X13765145Y-9971571D01*
X13774669Y-9952524D01*
X13784192Y-9943000D01*
X13803240Y-9933476D01*
X13955621Y-10114429D02*
X13965145Y-10123952D01*
X13955621Y-10133476D01*
X13946097Y-10123952D01*
X13955621Y-10114429D01*
X13955621Y-10133476D01*
X14155621Y-10133476D02*
X14041335Y-10133476D01*
X14098478Y-10133476D02*
X14098478Y-9933476D01*
X14079430Y-9962048D01*
X14060383Y-9981095D01*
X14041335Y-9990619D01*
X14346097Y-10133476D02*
X14231811Y-10133476D01*
X14288954Y-10133476D02*
X14288954Y-9933476D01*
X14269907Y-9962048D01*
X14250859Y-9981095D01*
X14231811Y-9990619D01*
X14460383Y-10019190D02*
X14441335Y-10009667D01*
X14431811Y-10000143D01*
X14422288Y-9981095D01*
X14422288Y-9971571D01*
X14431811Y-9952524D01*
X14441335Y-9943000D01*
X14460383Y-9933476D01*
X14498478Y-9933476D01*
X14517526Y-9943000D01*
X14527050Y-9952524D01*
X14536573Y-9971571D01*
X14536573Y-9981095D01*
X14527050Y-10000143D01*
X14517526Y-10009667D01*
X14498478Y-10019190D01*
X14460383Y-10019190D01*
X14441335Y-10028714D01*
X14431811Y-10038238D01*
X14422288Y-10057286D01*
X14422288Y-10095381D01*
X14431811Y-10114429D01*
X14441335Y-10123952D01*
X14460383Y-10133476D01*
X14498478Y-10133476D01*
X14517526Y-10123952D01*
X14527050Y-10114429D01*
X14536573Y-10095381D01*
X14536573Y-10057286D01*
X14527050Y-10038238D01*
X14517526Y-10028714D01*
X14498478Y-10019190D01*
X14727050Y-10133476D02*
X14612764Y-10133476D01*
X14669907Y-10133476D02*
X14669907Y-9933476D01*
X14650859Y-9962048D01*
X14631811Y-9981095D01*
X14612764Y-9990619D01*
X14803240Y-9933476D02*
X14803240Y-9971571D01*
X14879430Y-9933476D02*
X14879430Y-9971571D01*
X15174669Y-10209667D02*
X15165145Y-10200143D01*
X15146097Y-10171571D01*
X15136573Y-10152524D01*
X15127050Y-10123952D01*
X15117526Y-10076333D01*
X15117526Y-10038238D01*
X15127050Y-9990619D01*
X15136573Y-9962048D01*
X15146097Y-9943000D01*
X15165145Y-9914429D01*
X15174669Y-9904905D01*
X15346097Y-9933476D02*
X15250859Y-9933476D01*
X15241335Y-10028714D01*
X15250859Y-10019190D01*
X15269907Y-10009667D01*
X15317526Y-10009667D01*
X15336573Y-10019190D01*
X15346097Y-10028714D01*
X15355621Y-10047762D01*
X15355621Y-10095381D01*
X15346097Y-10114429D01*
X15336573Y-10123952D01*
X15317526Y-10133476D01*
X15269907Y-10133476D01*
X15250859Y-10123952D01*
X15241335Y-10114429D01*
X15593716Y-10133476D02*
X15593716Y-9933476D01*
X15679430Y-10133476D02*
X15679430Y-10028714D01*
X15669907Y-10009667D01*
X15650859Y-10000143D01*
X15622288Y-10000143D01*
X15603240Y-10009667D01*
X15593716Y-10019190D01*
X15803240Y-10133476D02*
X15784192Y-10123952D01*
X15774669Y-10114429D01*
X15765145Y-10095381D01*
X15765145Y-10038238D01*
X15774669Y-10019190D01*
X15784192Y-10009667D01*
X15803240Y-10000143D01*
X15831811Y-10000143D01*
X15850859Y-10009667D01*
X15860383Y-10019190D01*
X15869907Y-10038238D01*
X15869907Y-10095381D01*
X15860383Y-10114429D01*
X15850859Y-10123952D01*
X15831811Y-10133476D01*
X15803240Y-10133476D01*
X15984192Y-10133476D02*
X15965145Y-10123952D01*
X15955621Y-10104905D01*
X15955621Y-9933476D01*
X16136573Y-10123952D02*
X16117526Y-10133476D01*
X16079430Y-10133476D01*
X16060383Y-10123952D01*
X16050859Y-10104905D01*
X16050859Y-10028714D01*
X16060383Y-10009667D01*
X16079430Y-10000143D01*
X16117526Y-10000143D01*
X16136573Y-10009667D01*
X16146097Y-10028714D01*
X16146097Y-10047762D01*
X16050859Y-10066810D01*
X16222288Y-10123952D02*
X16241335Y-10133476D01*
X16279430Y-10133476D01*
X16298478Y-10123952D01*
X16308002Y-10104905D01*
X16308002Y-10095381D01*
X16298478Y-10076333D01*
X16279430Y-10066810D01*
X16250859Y-10066810D01*
X16231811Y-10057286D01*
X16222288Y-10038238D01*
X16222288Y-10028714D01*
X16231811Y-10009667D01*
X16250859Y-10000143D01*
X16279430Y-10000143D01*
X16298478Y-10009667D01*
X16374669Y-10209667D02*
X16384192Y-10200143D01*
X16403240Y-10171571D01*
X16412764Y-10152524D01*
X16422288Y-10123952D01*
X16431811Y-10076333D01*
X16431811Y-10038238D01*
X16422288Y-9990619D01*
X16412764Y-9962048D01*
X16403240Y-9943000D01*
X16384192Y-9914429D01*
X16374669Y-9904905D01*
X16736573Y-10209667D02*
X16727050Y-10200143D01*
X16708002Y-10171571D01*
X16698478Y-10152524D01*
X16688954Y-10123952D01*
X16679430Y-10076333D01*
X16679430Y-10038238D01*
X16688954Y-9990619D01*
X16698478Y-9962048D01*
X16708002Y-9943000D01*
X16727050Y-9914429D01*
X16736573Y-9904905D01*
X16812764Y-10000143D02*
X16812764Y-10133476D01*
X16812764Y-10019190D02*
X16822288Y-10009667D01*
X16841335Y-10000143D01*
X16869907Y-10000143D01*
X16888954Y-10009667D01*
X16898478Y-10028714D01*
X16898478Y-10133476D01*
X17022288Y-10133476D02*
X17003240Y-10123952D01*
X16993716Y-10114429D01*
X16984192Y-10095381D01*
X16984192Y-10038238D01*
X16993716Y-10019190D01*
X17003240Y-10009667D01*
X17022288Y-10000143D01*
X17050859Y-10000143D01*
X17069907Y-10009667D01*
X17079431Y-10019190D01*
X17088954Y-10038238D01*
X17088954Y-10095381D01*
X17079431Y-10114429D01*
X17069907Y-10123952D01*
X17050859Y-10133476D01*
X17022288Y-10133476D01*
X17146097Y-10000143D02*
X17222288Y-10000143D01*
X17174669Y-9933476D02*
X17174669Y-10104905D01*
X17184192Y-10123952D01*
X17203240Y-10133476D01*
X17222288Y-10133476D01*
X17441335Y-10000143D02*
X17441335Y-10200143D01*
X17441335Y-10009667D02*
X17460383Y-10000143D01*
X17498478Y-10000143D01*
X17517526Y-10009667D01*
X17527050Y-10019190D01*
X17536573Y-10038238D01*
X17536573Y-10095381D01*
X17527050Y-10114429D01*
X17517526Y-10123952D01*
X17498478Y-10133476D01*
X17460383Y-10133476D01*
X17441335Y-10123952D01*
X17650859Y-10133476D02*
X17631812Y-10123952D01*
X17622288Y-10104905D01*
X17622288Y-9933476D01*
X17812764Y-10133476D02*
X17812764Y-10028714D01*
X17803240Y-10009667D01*
X17784192Y-10000143D01*
X17746097Y-10000143D01*
X17727050Y-10009667D01*
X17812764Y-10123952D02*
X17793716Y-10133476D01*
X17746097Y-10133476D01*
X17727050Y-10123952D01*
X17717526Y-10104905D01*
X17717526Y-10085857D01*
X17727050Y-10066810D01*
X17746097Y-10057286D01*
X17793716Y-10057286D01*
X17812764Y-10047762D01*
X17879431Y-10000143D02*
X17955621Y-10000143D01*
X17908002Y-9933476D02*
X17908002Y-10104905D01*
X17917526Y-10123952D01*
X17936573Y-10133476D01*
X17955621Y-10133476D01*
X18098478Y-10123952D02*
X18079431Y-10133476D01*
X18041335Y-10133476D01*
X18022288Y-10123952D01*
X18012764Y-10104905D01*
X18012764Y-10028714D01*
X18022288Y-10009667D01*
X18041335Y-10000143D01*
X18079431Y-10000143D01*
X18098478Y-10009667D01*
X18108002Y-10028714D01*
X18108002Y-10047762D01*
X18012764Y-10066810D01*
X18279431Y-10133476D02*
X18279431Y-9933476D01*
X18279431Y-10123952D02*
X18260383Y-10133476D01*
X18222288Y-10133476D01*
X18203240Y-10123952D01*
X18193716Y-10114429D01*
X18184192Y-10095381D01*
X18184192Y-10038238D01*
X18193716Y-10019190D01*
X18203240Y-10009667D01*
X18222288Y-10000143D01*
X18260383Y-10000143D01*
X18279431Y-10009667D01*
X18355621Y-10209667D02*
X18365145Y-10200143D01*
X18384192Y-10171571D01*
X18393716Y-10152524D01*
X18403240Y-10123952D01*
X18412764Y-10076333D01*
X18412764Y-10038238D01*
X18403240Y-9990619D01*
X18393716Y-9962048D01*
X18384192Y-9943000D01*
X18365145Y-9914429D01*
X18355621Y-9904905D01*
X11602764Y-10363000D02*
G75*
G03*
X11602764Y-10363000I-100000J0D01*
G01*
X11841335Y-10253476D02*
X11965145Y-10253476D01*
X11898478Y-10329667D01*
X11927050Y-10329667D01*
X11946097Y-10339190D01*
X11955621Y-10348714D01*
X11965145Y-10367762D01*
X11965145Y-10415381D01*
X11955621Y-10434429D01*
X11946097Y-10443952D01*
X11927050Y-10453476D01*
X11869907Y-10453476D01*
X11850859Y-10443952D01*
X11841335Y-10434429D01*
X12050859Y-10434429D02*
X12060383Y-10443952D01*
X12050859Y-10453476D01*
X12041335Y-10443952D01*
X12050859Y-10434429D01*
X12050859Y-10453476D01*
X12136573Y-10272524D02*
X12146097Y-10263000D01*
X12165145Y-10253476D01*
X12212764Y-10253476D01*
X12231811Y-10263000D01*
X12241335Y-10272524D01*
X12250859Y-10291571D01*
X12250859Y-10310619D01*
X12241335Y-10339190D01*
X12127050Y-10453476D01*
X12250859Y-10453476D01*
X12431811Y-10253476D02*
X12336573Y-10253476D01*
X12327050Y-10348714D01*
X12336573Y-10339190D01*
X12355621Y-10329667D01*
X12403240Y-10329667D01*
X12422288Y-10339190D01*
X12431811Y-10348714D01*
X12441335Y-10367762D01*
X12441335Y-10415381D01*
X12431811Y-10434429D01*
X12422288Y-10443952D01*
X12403240Y-10453476D01*
X12355621Y-10453476D01*
X12336573Y-10443952D01*
X12327050Y-10434429D01*
X12565145Y-10253476D02*
X12584192Y-10253476D01*
X12603240Y-10263000D01*
X12612764Y-10272524D01*
X12622288Y-10291571D01*
X12631811Y-10329667D01*
X12631811Y-10377286D01*
X12622288Y-10415381D01*
X12612764Y-10434429D01*
X12603240Y-10443952D01*
X12584192Y-10453476D01*
X12565145Y-10453476D01*
X12546097Y-10443952D01*
X12536573Y-10434429D01*
X12527050Y-10415381D01*
X12517526Y-10377286D01*
X12517526Y-10329667D01*
X12527050Y-10291571D01*
X12536573Y-10272524D01*
X12546097Y-10263000D01*
X12565145Y-10253476D01*
X12717526Y-10453476D02*
X12717526Y-10320143D01*
X12717526Y-10339190D02*
X12727050Y-10329667D01*
X12746097Y-10320143D01*
X12774669Y-10320143D01*
X12793716Y-10329667D01*
X12803240Y-10348714D01*
X12803240Y-10453476D01*
X12803240Y-10348714D02*
X12812764Y-10329667D01*
X12831811Y-10320143D01*
X12860383Y-10320143D01*
X12879430Y-10329667D01*
X12888954Y-10348714D01*
X12888954Y-10453476D01*
X12984192Y-10453476D02*
X12984192Y-10320143D01*
X12984192Y-10339190D02*
X12993716Y-10329667D01*
X13012764Y-10320143D01*
X13041335Y-10320143D01*
X13060383Y-10329667D01*
X13069907Y-10348714D01*
X13069907Y-10453476D01*
X13069907Y-10348714D02*
X13079430Y-10329667D01*
X13098478Y-10320143D01*
X13127050Y-10320143D01*
X13146097Y-10329667D01*
X13155621Y-10348714D01*
X13155621Y-10453476D01*
X13546097Y-10243952D02*
X13374669Y-10501095D01*
X13803240Y-10253476D02*
X13822288Y-10253476D01*
X13841335Y-10263000D01*
X13850859Y-10272524D01*
X13860383Y-10291571D01*
X13869907Y-10329667D01*
X13869907Y-10377286D01*
X13860383Y-10415381D01*
X13850859Y-10434429D01*
X13841335Y-10443952D01*
X13822288Y-10453476D01*
X13803240Y-10453476D01*
X13784192Y-10443952D01*
X13774669Y-10434429D01*
X13765145Y-10415381D01*
X13755621Y-10377286D01*
X13755621Y-10329667D01*
X13765145Y-10291571D01*
X13774669Y-10272524D01*
X13784192Y-10263000D01*
X13803240Y-10253476D01*
X13955621Y-10434429D02*
X13965145Y-10443952D01*
X13955621Y-10453476D01*
X13946097Y-10443952D01*
X13955621Y-10434429D01*
X13955621Y-10453476D01*
X14155621Y-10453476D02*
X14041335Y-10453476D01*
X14098478Y-10453476D02*
X14098478Y-10253476D01*
X14079430Y-10282048D01*
X14060383Y-10301095D01*
X14041335Y-10310619D01*
X14231811Y-10272524D02*
X14241335Y-10263000D01*
X14260383Y-10253476D01*
X14308002Y-10253476D01*
X14327050Y-10263000D01*
X14336573Y-10272524D01*
X14346097Y-10291571D01*
X14346097Y-10310619D01*
X14336573Y-10339190D01*
X14222288Y-10453476D01*
X14346097Y-10453476D01*
X14460383Y-10339190D02*
X14441335Y-10329667D01*
X14431811Y-10320143D01*
X14422288Y-10301095D01*
X14422288Y-10291571D01*
X14431811Y-10272524D01*
X14441335Y-10263000D01*
X14460383Y-10253476D01*
X14498478Y-10253476D01*
X14517526Y-10263000D01*
X14527050Y-10272524D01*
X14536573Y-10291571D01*
X14536573Y-10301095D01*
X14527050Y-10320143D01*
X14517526Y-10329667D01*
X14498478Y-10339190D01*
X14460383Y-10339190D01*
X14441335Y-10348714D01*
X14431811Y-10358238D01*
X14422288Y-10377286D01*
X14422288Y-10415381D01*
X14431811Y-10434429D01*
X14441335Y-10443952D01*
X14460383Y-10453476D01*
X14498478Y-10453476D01*
X14517526Y-10443952D01*
X14527050Y-10434429D01*
X14536573Y-10415381D01*
X14536573Y-10377286D01*
X14527050Y-10358238D01*
X14517526Y-10348714D01*
X14498478Y-10339190D01*
X14660383Y-10253476D02*
X14679430Y-10253476D01*
X14698478Y-10263000D01*
X14708002Y-10272524D01*
X14717526Y-10291571D01*
X14727050Y-10329667D01*
X14727050Y-10377286D01*
X14717526Y-10415381D01*
X14708002Y-10434429D01*
X14698478Y-10443952D01*
X14679430Y-10453476D01*
X14660383Y-10453476D01*
X14641335Y-10443952D01*
X14631811Y-10434429D01*
X14622288Y-10415381D01*
X14612764Y-10377286D01*
X14612764Y-10329667D01*
X14622288Y-10291571D01*
X14631811Y-10272524D01*
X14641335Y-10263000D01*
X14660383Y-10253476D01*
X14803240Y-10253476D02*
X14803240Y-10291571D01*
X14879430Y-10253476D02*
X14879430Y-10291571D01*
X15174669Y-10529667D02*
X15165145Y-10520143D01*
X15146097Y-10491571D01*
X15136573Y-10472524D01*
X15127050Y-10443952D01*
X15117526Y-10396333D01*
X15117526Y-10358238D01*
X15127050Y-10310619D01*
X15136573Y-10282048D01*
X15146097Y-10263000D01*
X15165145Y-10234429D01*
X15174669Y-10224905D01*
X15241335Y-10272524D02*
X15250859Y-10263000D01*
X15269907Y-10253476D01*
X15317526Y-10253476D01*
X15336573Y-10263000D01*
X15346097Y-10272524D01*
X15355621Y-10291571D01*
X15355621Y-10310619D01*
X15346097Y-10339190D01*
X15231811Y-10453476D01*
X15355621Y-10453476D01*
X15593716Y-10453476D02*
X15593716Y-10253476D01*
X15679430Y-10453476D02*
X15679430Y-10348714D01*
X15669907Y-10329667D01*
X15650859Y-10320143D01*
X15622288Y-10320143D01*
X15603240Y-10329667D01*
X15593716Y-10339190D01*
X15803240Y-10453476D02*
X15784192Y-10443952D01*
X15774669Y-10434429D01*
X15765145Y-10415381D01*
X15765145Y-10358238D01*
X15774669Y-10339190D01*
X15784192Y-10329667D01*
X15803240Y-10320143D01*
X15831811Y-10320143D01*
X15850859Y-10329667D01*
X15860383Y-10339190D01*
X15869907Y-10358238D01*
X15869907Y-10415381D01*
X15860383Y-10434429D01*
X15850859Y-10443952D01*
X15831811Y-10453476D01*
X15803240Y-10453476D01*
X15984192Y-10453476D02*
X15965145Y-10443952D01*
X15955621Y-10424905D01*
X15955621Y-10253476D01*
X16136573Y-10443952D02*
X16117526Y-10453476D01*
X16079430Y-10453476D01*
X16060383Y-10443952D01*
X16050859Y-10424905D01*
X16050859Y-10348714D01*
X16060383Y-10329667D01*
X16079430Y-10320143D01*
X16117526Y-10320143D01*
X16136573Y-10329667D01*
X16146097Y-10348714D01*
X16146097Y-10367762D01*
X16050859Y-10386810D01*
X16222288Y-10443952D02*
X16241335Y-10453476D01*
X16279430Y-10453476D01*
X16298478Y-10443952D01*
X16308002Y-10424905D01*
X16308002Y-10415381D01*
X16298478Y-10396333D01*
X16279430Y-10386810D01*
X16250859Y-10386810D01*
X16231811Y-10377286D01*
X16222288Y-10358238D01*
X16222288Y-10348714D01*
X16231811Y-10329667D01*
X16250859Y-10320143D01*
X16279430Y-10320143D01*
X16298478Y-10329667D01*
X16374669Y-10529667D02*
X16384192Y-10520143D01*
X16403240Y-10491571D01*
X16412764Y-10472524D01*
X16422288Y-10443952D01*
X16431811Y-10396333D01*
X16431811Y-10358238D01*
X16422288Y-10310619D01*
X16412764Y-10282048D01*
X16403240Y-10263000D01*
X16384192Y-10234429D01*
X16374669Y-10224905D01*
X16736573Y-10529667D02*
X16727050Y-10520143D01*
X16708002Y-10491571D01*
X16698478Y-10472524D01*
X16688954Y-10443952D01*
X16679430Y-10396333D01*
X16679430Y-10358238D01*
X16688954Y-10310619D01*
X16698478Y-10282048D01*
X16708002Y-10263000D01*
X16727050Y-10234429D01*
X16736573Y-10224905D01*
X16812764Y-10320143D02*
X16812764Y-10453476D01*
X16812764Y-10339190D02*
X16822288Y-10329667D01*
X16841335Y-10320143D01*
X16869907Y-10320143D01*
X16888954Y-10329667D01*
X16898478Y-10348714D01*
X16898478Y-10453476D01*
X17022288Y-10453476D02*
X17003240Y-10443952D01*
X16993716Y-10434429D01*
X16984192Y-10415381D01*
X16984192Y-10358238D01*
X16993716Y-10339190D01*
X17003240Y-10329667D01*
X17022288Y-10320143D01*
X17050859Y-10320143D01*
X17069907Y-10329667D01*
X17079431Y-10339190D01*
X17088954Y-10358238D01*
X17088954Y-10415381D01*
X17079431Y-10434429D01*
X17069907Y-10443952D01*
X17050859Y-10453476D01*
X17022288Y-10453476D01*
X17146097Y-10320143D02*
X17222288Y-10320143D01*
X17174669Y-10253476D02*
X17174669Y-10424905D01*
X17184192Y-10443952D01*
X17203240Y-10453476D01*
X17222288Y-10453476D01*
X17441335Y-10320143D02*
X17441335Y-10520143D01*
X17441335Y-10329667D02*
X17460383Y-10320143D01*
X17498478Y-10320143D01*
X17517526Y-10329667D01*
X17527050Y-10339190D01*
X17536573Y-10358238D01*
X17536573Y-10415381D01*
X17527050Y-10434429D01*
X17517526Y-10443952D01*
X17498478Y-10453476D01*
X17460383Y-10453476D01*
X17441335Y-10443952D01*
X17650859Y-10453476D02*
X17631812Y-10443952D01*
X17622288Y-10424905D01*
X17622288Y-10253476D01*
X17812764Y-10453476D02*
X17812764Y-10348714D01*
X17803240Y-10329667D01*
X17784192Y-10320143D01*
X17746097Y-10320143D01*
X17727050Y-10329667D01*
X17812764Y-10443952D02*
X17793716Y-10453476D01*
X17746097Y-10453476D01*
X17727050Y-10443952D01*
X17717526Y-10424905D01*
X17717526Y-10405857D01*
X17727050Y-10386810D01*
X17746097Y-10377286D01*
X17793716Y-10377286D01*
X17812764Y-10367762D01*
X17879431Y-10320143D02*
X17955621Y-10320143D01*
X17908002Y-10253476D02*
X17908002Y-10424905D01*
X17917526Y-10443952D01*
X17936573Y-10453476D01*
X17955621Y-10453476D01*
X18098478Y-10443952D02*
X18079431Y-10453476D01*
X18041335Y-10453476D01*
X18022288Y-10443952D01*
X18012764Y-10424905D01*
X18012764Y-10348714D01*
X18022288Y-10329667D01*
X18041335Y-10320143D01*
X18079431Y-10320143D01*
X18098478Y-10329667D01*
X18108002Y-10348714D01*
X18108002Y-10367762D01*
X18012764Y-10386810D01*
X18279431Y-10453476D02*
X18279431Y-10253476D01*
X18279431Y-10443952D02*
X18260383Y-10453476D01*
X18222288Y-10453476D01*
X18203240Y-10443952D01*
X18193716Y-10434429D01*
X18184192Y-10415381D01*
X18184192Y-10358238D01*
X18193716Y-10339190D01*
X18203240Y-10329667D01*
X18222288Y-10320143D01*
X18260383Y-10320143D01*
X18279431Y-10329667D01*
X18355621Y-10529667D02*
X18365145Y-10520143D01*
X18384192Y-10491571D01*
X18393716Y-10472524D01*
X18403240Y-10443952D01*
X18412764Y-10396333D01*
X18412764Y-10358238D01*
X18403240Y-10310619D01*
X18393716Y-10282048D01*
X18384192Y-10263000D01*
X18365145Y-10234429D01*
X18355621Y-10224905D01*
M02*
