%TF.GenerationSoftware,KiCad,Pcbnew,(6.0.8)*%
%TF.CreationDate,2023-04-02T10:00:46-07:00*%
%TF.ProjectId,FCP_steering_splitter,4643505f-7374-4656-9572-696e675f7370,rev?*%
%TF.SameCoordinates,Original*%
%TF.FileFunction,Copper,L2,Bot*%
%TF.FilePolarity,Positive*%
%FSLAX46Y46*%
G04 Gerber Fmt 4.6, Leading zero omitted, Abs format (unit mm)*
G04 Created by KiCad (PCBNEW (6.0.8)) date 2023-04-02 10:00:46*
%MOMM*%
%LPD*%
G01*
G04 APERTURE LIST*
G04 Aperture macros list*
%AMRoundRect*
0 Rectangle with rounded corners*
0 $1 Rounding radius*
0 $2 $3 $4 $5 $6 $7 $8 $9 X,Y pos of 4 corners*
0 Add a 4 corners polygon primitive as box body*
4,1,4,$2,$3,$4,$5,$6,$7,$8,$9,$2,$3,0*
0 Add four circle primitives for the rounded corners*
1,1,$1+$1,$2,$3*
1,1,$1+$1,$4,$5*
1,1,$1+$1,$6,$7*
1,1,$1+$1,$8,$9*
0 Add four rect primitives between the rounded corners*
20,1,$1+$1,$2,$3,$4,$5,0*
20,1,$1+$1,$4,$5,$6,$7,0*
20,1,$1+$1,$6,$7,$8,$9,0*
20,1,$1+$1,$8,$9,$2,$3,0*%
G04 Aperture macros list end*
%TA.AperFunction,ComponentPad*%
%ADD10RoundRect,0.250001X1.099999X1.599999X-1.099999X1.599999X-1.099999X-1.599999X1.099999X-1.599999X0*%
%TD*%
%TA.AperFunction,ComponentPad*%
%ADD11O,2.700000X3.700000*%
%TD*%
%TA.AperFunction,ComponentPad*%
%ADD12R,1.500000X1.500000*%
%TD*%
%TA.AperFunction,ComponentPad*%
%ADD13C,1.500000*%
%TD*%
%TA.AperFunction,ComponentPad*%
%ADD14C,2.300000*%
%TD*%
%TA.AperFunction,Conductor*%
%ADD15C,0.500000*%
%TD*%
%TA.AperFunction,Conductor*%
%ADD16C,0.250000*%
%TD*%
G04 APERTURE END LIST*
D10*
%TO.P,J5,1,Pin_1*%
%TO.N,/Turbo*%
X162560000Y-76200000D03*
D11*
%TO.P,J5,2,Pin_2*%
%TO.N,GND*%
X162560000Y-70700000D03*
%TD*%
D10*
%TO.P,J2,1,Pin_1*%
%TO.N,VCC*%
X124460000Y-76200000D03*
D11*
%TO.P,J2,2,Pin_2*%
%TO.N,GND*%
X124460000Y-70700000D03*
%TD*%
D12*
%TO.P,J1,1,Pin_1*%
%TO.N,VCC*%
X147320000Y-40640000D03*
D13*
%TO.P,J1,2,Pin_2*%
X148336000Y-42420000D03*
%TO.P,J1,3,Pin_3*%
%TO.N,unconnected-(J1-Pad3)*%
X149352000Y-40640000D03*
%TO.P,J1,4,Pin_4*%
%TO.N,unconnected-(J1-Pad4)*%
X150368000Y-42420000D03*
%TO.P,J1,5,Pin_5*%
%TO.N,unconnected-(J1-Pad5)*%
X151384000Y-40640000D03*
%TO.P,J1,6,Pin_6*%
%TO.N,/Horn*%
X152400000Y-42420000D03*
%TO.P,J1,7,Pin_7*%
%TO.N,/Turbo*%
X153416000Y-40640000D03*
%TO.P,J1,8,Pin_8*%
%TO.N,/Kill*%
X154432000Y-42420000D03*
D14*
%TO.P,J1,SH,Shield*%
%TO.N,GND*%
X142750000Y-41530000D03*
X159010000Y-41530000D03*
%TD*%
D10*
%TO.P,J3,1,Pin_1*%
%TO.N,/Kill*%
X137160000Y-76200000D03*
D11*
%TO.P,J3,2,Pin_2*%
%TO.N,/Safety*%
X137160000Y-70700000D03*
%TD*%
D10*
%TO.P,J6,1,Pin_1*%
%TO.N,/Horn*%
X175260000Y-76200000D03*
D11*
%TO.P,J6,2,Pin_2*%
%TO.N,GND*%
X175260000Y-70700000D03*
%TD*%
D10*
%TO.P,J4,1,Pin_1*%
%TO.N,/Safety*%
X149860000Y-76200000D03*
D11*
%TO.P,J4,2,Pin_2*%
%TO.N,GND*%
X149860000Y-70700000D03*
%TD*%
D15*
%TO.N,/Horn*%
X175260000Y-76200000D02*
X156696270Y-57636270D01*
X156696270Y-57636270D02*
X156696270Y-46716270D01*
X156696270Y-46716270D02*
X152400000Y-42420000D01*
%TO.N,GND*%
X144780000Y-66040000D02*
X129120000Y-66040000D01*
X129120000Y-66040000D02*
X124460000Y-70700000D01*
X149440000Y-70700000D02*
X144780000Y-66040000D01*
D16*
X149860000Y-70700000D02*
X149440000Y-70700000D01*
D15*
X162560000Y-70700000D02*
X149860000Y-70700000D01*
%TO.N,/Safety*%
X137160000Y-70700000D02*
X144360000Y-70700000D01*
X144360000Y-70700000D02*
X149860000Y-76200000D01*
%TD*%
%TA.AperFunction,Conductor*%
%TO.N,GND*%
G36*
X159926564Y-31001802D02*
G01*
X164703526Y-33390283D01*
X164756011Y-33439491D01*
X179062920Y-57965622D01*
X182354336Y-63608049D01*
X182371500Y-63671537D01*
X182371500Y-91390633D01*
X182370000Y-91410018D01*
X182367690Y-91424851D01*
X182367690Y-91424855D01*
X182366309Y-91433724D01*
X182367473Y-91442626D01*
X182367473Y-91442629D01*
X182368439Y-91450012D01*
X182369233Y-91474591D01*
X182354660Y-91696922D01*
X182352509Y-91713262D01*
X182321020Y-91871571D01*
X182288684Y-91933881D01*
X180980324Y-93307660D01*
X180923439Y-93367389D01*
X180856780Y-93404070D01*
X180696007Y-93436050D01*
X180613262Y-93452509D01*
X180596922Y-93454660D01*
X180448134Y-93464413D01*
X180381763Y-93468763D01*
X180358650Y-93467733D01*
X180355146Y-93467690D01*
X180346276Y-93466309D01*
X180337374Y-93467473D01*
X180337372Y-93467473D01*
X180323923Y-93469232D01*
X180314714Y-93470436D01*
X180298379Y-93471500D01*
X118685420Y-93471500D01*
X118666032Y-93469999D01*
X118651212Y-93467691D01*
X118651211Y-93467691D01*
X118642337Y-93466309D01*
X118626043Y-93468439D01*
X118601471Y-93469232D01*
X118436606Y-93458424D01*
X118379138Y-93454656D01*
X118362797Y-93452504D01*
X118181651Y-93416468D01*
X118119338Y-93384131D01*
X116717169Y-92048732D01*
X116684752Y-91997990D01*
X116676474Y-91973602D01*
X116672209Y-91957684D01*
X116623590Y-91713259D01*
X116621439Y-91696919D01*
X116607562Y-91485196D01*
X116608725Y-91462230D01*
X116608384Y-91462199D01*
X116608818Y-91457359D01*
X116609627Y-91452552D01*
X116609780Y-91440000D01*
X116608881Y-91433724D01*
X116605792Y-91412152D01*
X116604519Y-91394377D01*
X116598991Y-83429733D01*
X122447822Y-83429733D01*
X122457625Y-83710458D01*
X122458387Y-83714781D01*
X122458388Y-83714788D01*
X122482164Y-83849624D01*
X122506402Y-83987087D01*
X122593203Y-84254235D01*
X122716340Y-84506702D01*
X122718795Y-84510341D01*
X122718798Y-84510347D01*
X122791890Y-84618710D01*
X122873415Y-84739576D01*
X123061371Y-84948322D01*
X123276550Y-85128879D01*
X123514764Y-85277731D01*
X123771375Y-85391982D01*
X124041390Y-85469407D01*
X124045740Y-85470018D01*
X124045743Y-85470019D01*
X124148690Y-85484487D01*
X124319552Y-85508500D01*
X124530146Y-85508500D01*
X124532332Y-85508347D01*
X124532336Y-85508347D01*
X124735827Y-85494118D01*
X124735832Y-85494117D01*
X124740212Y-85493811D01*
X125014970Y-85435409D01*
X125019099Y-85433906D01*
X125019103Y-85433905D01*
X125274781Y-85340846D01*
X125274785Y-85340844D01*
X125278926Y-85339337D01*
X125526942Y-85207464D01*
X125631896Y-85131211D01*
X125750629Y-85044947D01*
X125750632Y-85044944D01*
X125754192Y-85042358D01*
X125956252Y-84847231D01*
X126129188Y-84625882D01*
X126131384Y-84622078D01*
X126131389Y-84622071D01*
X126267435Y-84386431D01*
X126269636Y-84382619D01*
X126374862Y-84122176D01*
X126408544Y-83987087D01*
X126441753Y-83853893D01*
X126441754Y-83853888D01*
X126442817Y-83849624D01*
X126472178Y-83570267D01*
X126467271Y-83429733D01*
X135147822Y-83429733D01*
X135157625Y-83710458D01*
X135158387Y-83714781D01*
X135158388Y-83714788D01*
X135182164Y-83849624D01*
X135206402Y-83987087D01*
X135293203Y-84254235D01*
X135416340Y-84506702D01*
X135418795Y-84510341D01*
X135418798Y-84510347D01*
X135491890Y-84618710D01*
X135573415Y-84739576D01*
X135761371Y-84948322D01*
X135976550Y-85128879D01*
X136214764Y-85277731D01*
X136471375Y-85391982D01*
X136741390Y-85469407D01*
X136745740Y-85470018D01*
X136745743Y-85470019D01*
X136848690Y-85484487D01*
X137019552Y-85508500D01*
X137230146Y-85508500D01*
X137232332Y-85508347D01*
X137232336Y-85508347D01*
X137435827Y-85494118D01*
X137435832Y-85494117D01*
X137440212Y-85493811D01*
X137714970Y-85435409D01*
X137719099Y-85433906D01*
X137719103Y-85433905D01*
X137974781Y-85340846D01*
X137974785Y-85340844D01*
X137978926Y-85339337D01*
X138226942Y-85207464D01*
X138331896Y-85131211D01*
X138450629Y-85044947D01*
X138450632Y-85044944D01*
X138454192Y-85042358D01*
X138656252Y-84847231D01*
X138829188Y-84625882D01*
X138831384Y-84622078D01*
X138831389Y-84622071D01*
X138967435Y-84386431D01*
X138969636Y-84382619D01*
X139074862Y-84122176D01*
X139108544Y-83987087D01*
X139141753Y-83853893D01*
X139141754Y-83853888D01*
X139142817Y-83849624D01*
X139172178Y-83570267D01*
X139167271Y-83429733D01*
X147847822Y-83429733D01*
X147857625Y-83710458D01*
X147858387Y-83714781D01*
X147858388Y-83714788D01*
X147882164Y-83849624D01*
X147906402Y-83987087D01*
X147993203Y-84254235D01*
X148116340Y-84506702D01*
X148118795Y-84510341D01*
X148118798Y-84510347D01*
X148191890Y-84618710D01*
X148273415Y-84739576D01*
X148461371Y-84948322D01*
X148676550Y-85128879D01*
X148914764Y-85277731D01*
X149171375Y-85391982D01*
X149441390Y-85469407D01*
X149445740Y-85470018D01*
X149445743Y-85470019D01*
X149548690Y-85484487D01*
X149719552Y-85508500D01*
X149930146Y-85508500D01*
X149932332Y-85508347D01*
X149932336Y-85508347D01*
X150135827Y-85494118D01*
X150135832Y-85494117D01*
X150140212Y-85493811D01*
X150414970Y-85435409D01*
X150419099Y-85433906D01*
X150419103Y-85433905D01*
X150674781Y-85340846D01*
X150674785Y-85340844D01*
X150678926Y-85339337D01*
X150926942Y-85207464D01*
X151031896Y-85131211D01*
X151150629Y-85044947D01*
X151150632Y-85044944D01*
X151154192Y-85042358D01*
X151356252Y-84847231D01*
X151529188Y-84625882D01*
X151531384Y-84622078D01*
X151531389Y-84622071D01*
X151667435Y-84386431D01*
X151669636Y-84382619D01*
X151774862Y-84122176D01*
X151808544Y-83987087D01*
X151841753Y-83853893D01*
X151841754Y-83853888D01*
X151842817Y-83849624D01*
X151872178Y-83570267D01*
X151867271Y-83429733D01*
X160547822Y-83429733D01*
X160557625Y-83710458D01*
X160558387Y-83714781D01*
X160558388Y-83714788D01*
X160582164Y-83849624D01*
X160606402Y-83987087D01*
X160693203Y-84254235D01*
X160816340Y-84506702D01*
X160818795Y-84510341D01*
X160818798Y-84510347D01*
X160891890Y-84618710D01*
X160973415Y-84739576D01*
X161161371Y-84948322D01*
X161376550Y-85128879D01*
X161614764Y-85277731D01*
X161871375Y-85391982D01*
X162141390Y-85469407D01*
X162145740Y-85470018D01*
X162145743Y-85470019D01*
X162248690Y-85484487D01*
X162419552Y-85508500D01*
X162630146Y-85508500D01*
X162632332Y-85508347D01*
X162632336Y-85508347D01*
X162835827Y-85494118D01*
X162835832Y-85494117D01*
X162840212Y-85493811D01*
X163114970Y-85435409D01*
X163119099Y-85433906D01*
X163119103Y-85433905D01*
X163374781Y-85340846D01*
X163374785Y-85340844D01*
X163378926Y-85339337D01*
X163626942Y-85207464D01*
X163731896Y-85131211D01*
X163850629Y-85044947D01*
X163850632Y-85044944D01*
X163854192Y-85042358D01*
X164056252Y-84847231D01*
X164229188Y-84625882D01*
X164231384Y-84622078D01*
X164231389Y-84622071D01*
X164367435Y-84386431D01*
X164369636Y-84382619D01*
X164474862Y-84122176D01*
X164508544Y-83987087D01*
X164541753Y-83853893D01*
X164541754Y-83853888D01*
X164542817Y-83849624D01*
X164572178Y-83570267D01*
X164567271Y-83429733D01*
X173247822Y-83429733D01*
X173257625Y-83710458D01*
X173258387Y-83714781D01*
X173258388Y-83714788D01*
X173282164Y-83849624D01*
X173306402Y-83987087D01*
X173393203Y-84254235D01*
X173516340Y-84506702D01*
X173518795Y-84510341D01*
X173518798Y-84510347D01*
X173591890Y-84618710D01*
X173673415Y-84739576D01*
X173861371Y-84948322D01*
X174076550Y-85128879D01*
X174314764Y-85277731D01*
X174571375Y-85391982D01*
X174841390Y-85469407D01*
X174845740Y-85470018D01*
X174845743Y-85470019D01*
X174948690Y-85484487D01*
X175119552Y-85508500D01*
X175330146Y-85508500D01*
X175332332Y-85508347D01*
X175332336Y-85508347D01*
X175535827Y-85494118D01*
X175535832Y-85494117D01*
X175540212Y-85493811D01*
X175814970Y-85435409D01*
X175819099Y-85433906D01*
X175819103Y-85433905D01*
X176074781Y-85340846D01*
X176074785Y-85340844D01*
X176078926Y-85339337D01*
X176326942Y-85207464D01*
X176431896Y-85131211D01*
X176550629Y-85044947D01*
X176550632Y-85044944D01*
X176554192Y-85042358D01*
X176756252Y-84847231D01*
X176929188Y-84625882D01*
X176931384Y-84622078D01*
X176931389Y-84622071D01*
X177067435Y-84386431D01*
X177069636Y-84382619D01*
X177174862Y-84122176D01*
X177208544Y-83987087D01*
X177241753Y-83853893D01*
X177241754Y-83853888D01*
X177242817Y-83849624D01*
X177272178Y-83570267D01*
X177262375Y-83289542D01*
X177238608Y-83154749D01*
X177214360Y-83017236D01*
X177213598Y-83012913D01*
X177126797Y-82745765D01*
X177003660Y-82493298D01*
X177001205Y-82489659D01*
X177001202Y-82489653D01*
X176920935Y-82370653D01*
X176846585Y-82260424D01*
X176658629Y-82051678D01*
X176443450Y-81871121D01*
X176205236Y-81722269D01*
X175948625Y-81608018D01*
X175678610Y-81530593D01*
X175674260Y-81529982D01*
X175674257Y-81529981D01*
X175571310Y-81515513D01*
X175400448Y-81491500D01*
X175189854Y-81491500D01*
X175187668Y-81491653D01*
X175187664Y-81491653D01*
X174984173Y-81505882D01*
X174984168Y-81505883D01*
X174979788Y-81506189D01*
X174705030Y-81564591D01*
X174700901Y-81566094D01*
X174700897Y-81566095D01*
X174445219Y-81659154D01*
X174445215Y-81659156D01*
X174441074Y-81660663D01*
X174193058Y-81792536D01*
X174189499Y-81795122D01*
X174189497Y-81795123D01*
X174084895Y-81871121D01*
X173965808Y-81957642D01*
X173763748Y-82152769D01*
X173590812Y-82374118D01*
X173588616Y-82377922D01*
X173588611Y-82377929D01*
X173474794Y-82575067D01*
X173450364Y-82617381D01*
X173345138Y-82877824D01*
X173344073Y-82882097D01*
X173344072Y-82882099D01*
X173310379Y-83017236D01*
X173277183Y-83150376D01*
X173247822Y-83429733D01*
X164567271Y-83429733D01*
X164562375Y-83289542D01*
X164538608Y-83154749D01*
X164514360Y-83017236D01*
X164513598Y-83012913D01*
X164426797Y-82745765D01*
X164303660Y-82493298D01*
X164301205Y-82489659D01*
X164301202Y-82489653D01*
X164220935Y-82370653D01*
X164146585Y-82260424D01*
X163958629Y-82051678D01*
X163743450Y-81871121D01*
X163505236Y-81722269D01*
X163248625Y-81608018D01*
X162978610Y-81530593D01*
X162974260Y-81529982D01*
X162974257Y-81529981D01*
X162871310Y-81515513D01*
X162700448Y-81491500D01*
X162489854Y-81491500D01*
X162487668Y-81491653D01*
X162487664Y-81491653D01*
X162284173Y-81505882D01*
X162284168Y-81505883D01*
X162279788Y-81506189D01*
X162005030Y-81564591D01*
X162000901Y-81566094D01*
X162000897Y-81566095D01*
X161745219Y-81659154D01*
X161745215Y-81659156D01*
X161741074Y-81660663D01*
X161493058Y-81792536D01*
X161489499Y-81795122D01*
X161489497Y-81795123D01*
X161384895Y-81871121D01*
X161265808Y-81957642D01*
X161063748Y-82152769D01*
X160890812Y-82374118D01*
X160888616Y-82377922D01*
X160888611Y-82377929D01*
X160774794Y-82575067D01*
X160750364Y-82617381D01*
X160645138Y-82877824D01*
X160644073Y-82882097D01*
X160644072Y-82882099D01*
X160610379Y-83017236D01*
X160577183Y-83150376D01*
X160547822Y-83429733D01*
X151867271Y-83429733D01*
X151862375Y-83289542D01*
X151838608Y-83154749D01*
X151814360Y-83017236D01*
X151813598Y-83012913D01*
X151726797Y-82745765D01*
X151603660Y-82493298D01*
X151601205Y-82489659D01*
X151601202Y-82489653D01*
X151520935Y-82370653D01*
X151446585Y-82260424D01*
X151258629Y-82051678D01*
X151043450Y-81871121D01*
X150805236Y-81722269D01*
X150548625Y-81608018D01*
X150278610Y-81530593D01*
X150274260Y-81529982D01*
X150274257Y-81529981D01*
X150171310Y-81515513D01*
X150000448Y-81491500D01*
X149789854Y-81491500D01*
X149787668Y-81491653D01*
X149787664Y-81491653D01*
X149584173Y-81505882D01*
X149584168Y-81505883D01*
X149579788Y-81506189D01*
X149305030Y-81564591D01*
X149300901Y-81566094D01*
X149300897Y-81566095D01*
X149045219Y-81659154D01*
X149045215Y-81659156D01*
X149041074Y-81660663D01*
X148793058Y-81792536D01*
X148789499Y-81795122D01*
X148789497Y-81795123D01*
X148684895Y-81871121D01*
X148565808Y-81957642D01*
X148363748Y-82152769D01*
X148190812Y-82374118D01*
X148188616Y-82377922D01*
X148188611Y-82377929D01*
X148074794Y-82575067D01*
X148050364Y-82617381D01*
X147945138Y-82877824D01*
X147944073Y-82882097D01*
X147944072Y-82882099D01*
X147910379Y-83017236D01*
X147877183Y-83150376D01*
X147847822Y-83429733D01*
X139167271Y-83429733D01*
X139162375Y-83289542D01*
X139138608Y-83154749D01*
X139114360Y-83017236D01*
X139113598Y-83012913D01*
X139026797Y-82745765D01*
X138903660Y-82493298D01*
X138901205Y-82489659D01*
X138901202Y-82489653D01*
X138820935Y-82370653D01*
X138746585Y-82260424D01*
X138558629Y-82051678D01*
X138343450Y-81871121D01*
X138105236Y-81722269D01*
X137848625Y-81608018D01*
X137578610Y-81530593D01*
X137574260Y-81529982D01*
X137574257Y-81529981D01*
X137471310Y-81515513D01*
X137300448Y-81491500D01*
X137089854Y-81491500D01*
X137087668Y-81491653D01*
X137087664Y-81491653D01*
X136884173Y-81505882D01*
X136884168Y-81505883D01*
X136879788Y-81506189D01*
X136605030Y-81564591D01*
X136600901Y-81566094D01*
X136600897Y-81566095D01*
X136345219Y-81659154D01*
X136345215Y-81659156D01*
X136341074Y-81660663D01*
X136093058Y-81792536D01*
X136089499Y-81795122D01*
X136089497Y-81795123D01*
X135984895Y-81871121D01*
X135865808Y-81957642D01*
X135663748Y-82152769D01*
X135490812Y-82374118D01*
X135488616Y-82377922D01*
X135488611Y-82377929D01*
X135374794Y-82575067D01*
X135350364Y-82617381D01*
X135245138Y-82877824D01*
X135244073Y-82882097D01*
X135244072Y-82882099D01*
X135210379Y-83017236D01*
X135177183Y-83150376D01*
X135147822Y-83429733D01*
X126467271Y-83429733D01*
X126462375Y-83289542D01*
X126438608Y-83154749D01*
X126414360Y-83017236D01*
X126413598Y-83012913D01*
X126326797Y-82745765D01*
X126203660Y-82493298D01*
X126201205Y-82489659D01*
X126201202Y-82489653D01*
X126120935Y-82370653D01*
X126046585Y-82260424D01*
X125858629Y-82051678D01*
X125643450Y-81871121D01*
X125405236Y-81722269D01*
X125148625Y-81608018D01*
X124878610Y-81530593D01*
X124874260Y-81529982D01*
X124874257Y-81529981D01*
X124771310Y-81515513D01*
X124600448Y-81491500D01*
X124389854Y-81491500D01*
X124387668Y-81491653D01*
X124387664Y-81491653D01*
X124184173Y-81505882D01*
X124184168Y-81505883D01*
X124179788Y-81506189D01*
X123905030Y-81564591D01*
X123900901Y-81566094D01*
X123900897Y-81566095D01*
X123645219Y-81659154D01*
X123645215Y-81659156D01*
X123641074Y-81660663D01*
X123393058Y-81792536D01*
X123389499Y-81795122D01*
X123389497Y-81795123D01*
X123284895Y-81871121D01*
X123165808Y-81957642D01*
X122963748Y-82152769D01*
X122790812Y-82374118D01*
X122788616Y-82377922D01*
X122788611Y-82377929D01*
X122674794Y-82575067D01*
X122650364Y-82617381D01*
X122545138Y-82877824D01*
X122544073Y-82882097D01*
X122544072Y-82882099D01*
X122510379Y-83017236D01*
X122477183Y-83150376D01*
X122447822Y-83429733D01*
X116598991Y-83429733D01*
X116595565Y-78494419D01*
X116595118Y-77850400D01*
X122601500Y-77850400D01*
X122612474Y-77956165D01*
X122668450Y-78123945D01*
X122761522Y-78274348D01*
X122886697Y-78399305D01*
X122892927Y-78403145D01*
X122892928Y-78403146D01*
X123030090Y-78487694D01*
X123037262Y-78492115D01*
X123117005Y-78518564D01*
X123198611Y-78545632D01*
X123198613Y-78545632D01*
X123205139Y-78547797D01*
X123211975Y-78548497D01*
X123211978Y-78548498D01*
X123255031Y-78552909D01*
X123309600Y-78558500D01*
X125610400Y-78558500D01*
X125613646Y-78558163D01*
X125613650Y-78558163D01*
X125709307Y-78548238D01*
X125709311Y-78548237D01*
X125716165Y-78547526D01*
X125722701Y-78545345D01*
X125722703Y-78545345D01*
X125854805Y-78501272D01*
X125883945Y-78491550D01*
X126034348Y-78398478D01*
X126159305Y-78273303D01*
X126252115Y-78122738D01*
X126307797Y-77954861D01*
X126318500Y-77850400D01*
X135301500Y-77850400D01*
X135312474Y-77956165D01*
X135368450Y-78123945D01*
X135461522Y-78274348D01*
X135586697Y-78399305D01*
X135592927Y-78403145D01*
X135592928Y-78403146D01*
X135730090Y-78487694D01*
X135737262Y-78492115D01*
X135817005Y-78518564D01*
X135898611Y-78545632D01*
X135898613Y-78545632D01*
X135905139Y-78547797D01*
X135911975Y-78548497D01*
X135911978Y-78548498D01*
X135955031Y-78552909D01*
X136009600Y-78558500D01*
X138310400Y-78558500D01*
X138313646Y-78558163D01*
X138313650Y-78558163D01*
X138409307Y-78548238D01*
X138409311Y-78548237D01*
X138416165Y-78547526D01*
X138422701Y-78545345D01*
X138422703Y-78545345D01*
X138554805Y-78501272D01*
X138583945Y-78491550D01*
X138734348Y-78398478D01*
X138859305Y-78273303D01*
X138952115Y-78122738D01*
X139007797Y-77954861D01*
X139018500Y-77850400D01*
X139018500Y-74549600D01*
X139007526Y-74443835D01*
X138951550Y-74276055D01*
X138858478Y-74125652D01*
X138733303Y-74000695D01*
X138727072Y-73996854D01*
X138588968Y-73911725D01*
X138588966Y-73911724D01*
X138582738Y-73907885D01*
X138422254Y-73854655D01*
X138421389Y-73854368D01*
X138421387Y-73854368D01*
X138414861Y-73852203D01*
X138408025Y-73851503D01*
X138408022Y-73851502D01*
X138364969Y-73847091D01*
X138310400Y-73841500D01*
X136009600Y-73841500D01*
X136006354Y-73841837D01*
X136006350Y-73841837D01*
X135910693Y-73851762D01*
X135910689Y-73851763D01*
X135903835Y-73852474D01*
X135897299Y-73854655D01*
X135897297Y-73854655D01*
X135889828Y-73857147D01*
X135736055Y-73908450D01*
X135585652Y-74001522D01*
X135460695Y-74126697D01*
X135367885Y-74277262D01*
X135312203Y-74445139D01*
X135301500Y-74549600D01*
X135301500Y-77850400D01*
X126318500Y-77850400D01*
X126318500Y-74549600D01*
X126307526Y-74443835D01*
X126251550Y-74276055D01*
X126158478Y-74125652D01*
X126033303Y-74000695D01*
X126027072Y-73996854D01*
X125888968Y-73911725D01*
X125888966Y-73911724D01*
X125882738Y-73907885D01*
X125722254Y-73854655D01*
X125721389Y-73854368D01*
X125721387Y-73854368D01*
X125714861Y-73852203D01*
X125708025Y-73851503D01*
X125708022Y-73851502D01*
X125664969Y-73847091D01*
X125610400Y-73841500D01*
X123309600Y-73841500D01*
X123306354Y-73841837D01*
X123306350Y-73841837D01*
X123210693Y-73851762D01*
X123210689Y-73851763D01*
X123203835Y-73852474D01*
X123197299Y-73854655D01*
X123197297Y-73854655D01*
X123189828Y-73857147D01*
X123036055Y-73908450D01*
X122885652Y-74001522D01*
X122760695Y-74126697D01*
X122667885Y-74277262D01*
X122612203Y-74445139D01*
X122601500Y-74549600D01*
X122601500Y-77850400D01*
X116595118Y-77850400D01*
X116590548Y-71266206D01*
X122602000Y-71266206D01*
X122602165Y-71270777D01*
X122616213Y-71464380D01*
X122617527Y-71473389D01*
X122673689Y-71727769D01*
X122676292Y-71736499D01*
X122768586Y-71980107D01*
X122772421Y-71988368D01*
X122898915Y-72216101D01*
X122903905Y-72223726D01*
X123061946Y-72430809D01*
X123067986Y-72437636D01*
X123254264Y-72619735D01*
X123261226Y-72625618D01*
X123471843Y-72778922D01*
X123479573Y-72783733D01*
X123710122Y-72905031D01*
X123718472Y-72908678D01*
X123964099Y-72995419D01*
X123972894Y-72997825D01*
X124188225Y-73040267D01*
X124201137Y-73039088D01*
X124205939Y-73024174D01*
X124714000Y-73024174D01*
X124718251Y-73038651D01*
X124730512Y-73040714D01*
X124766133Y-73037315D01*
X124775125Y-73035795D01*
X125028158Y-72973878D01*
X125036827Y-72971078D01*
X125278282Y-72873278D01*
X125286455Y-72869256D01*
X125511253Y-72737632D01*
X125518765Y-72732469D01*
X125722213Y-72569769D01*
X125728896Y-72563580D01*
X125906733Y-72373206D01*
X125912443Y-72366129D01*
X126060934Y-72152082D01*
X126065571Y-72144241D01*
X126181604Y-71911003D01*
X126185060Y-71902578D01*
X126266212Y-71655026D01*
X126268412Y-71646201D01*
X126313103Y-71388811D01*
X126313950Y-71381193D01*
X126317922Y-71301408D01*
X126318000Y-71298267D01*
X126318000Y-71268512D01*
X135301500Y-71268512D01*
X135301664Y-71270777D01*
X135301665Y-71270792D01*
X135309676Y-71381193D01*
X135316047Y-71469004D01*
X135317031Y-71473459D01*
X135317031Y-71473462D01*
X135373178Y-71727769D01*
X135374194Y-71732372D01*
X135375812Y-71736642D01*
X135441944Y-71911194D01*
X135469750Y-71984588D01*
X135600714Y-72220368D01*
X135603486Y-72224000D01*
X135717608Y-72373535D01*
X135764343Y-72434773D01*
X135957208Y-72623312D01*
X136175270Y-72782034D01*
X136275031Y-72834521D01*
X136409921Y-72905490D01*
X136409927Y-72905493D01*
X136413961Y-72907615D01*
X136418266Y-72909135D01*
X136418270Y-72909137D01*
X136663967Y-72995902D01*
X136668280Y-72997425D01*
X136796032Y-73022605D01*
X136928428Y-73048700D01*
X136928434Y-73048701D01*
X136932900Y-73049581D01*
X136937453Y-73049808D01*
X136937456Y-73049808D01*
X137197708Y-73062764D01*
X137197714Y-73062764D01*
X137202277Y-73062991D01*
X137470769Y-73037375D01*
X137475203Y-73036290D01*
X137475209Y-73036289D01*
X137728312Y-72974355D01*
X137732750Y-72973269D01*
X137982733Y-72872015D01*
X138215482Y-72735735D01*
X138426119Y-72567284D01*
X138610234Y-72370191D01*
X138763968Y-72148584D01*
X138884101Y-71907106D01*
X138885523Y-71902769D01*
X138966698Y-71655147D01*
X138966699Y-71655141D01*
X138968118Y-71650814D01*
X138983374Y-71562945D01*
X139014734Y-71499251D01*
X139075552Y-71462622D01*
X139107517Y-71458500D01*
X143993629Y-71458500D01*
X144061750Y-71478502D01*
X144082724Y-71495405D01*
X147964595Y-75377276D01*
X147998621Y-75439588D01*
X148001500Y-75466371D01*
X148001500Y-77850400D01*
X148012474Y-77956165D01*
X148068450Y-78123945D01*
X148161522Y-78274348D01*
X148286697Y-78399305D01*
X148292927Y-78403145D01*
X148292928Y-78403146D01*
X148430090Y-78487694D01*
X148437262Y-78492115D01*
X148517005Y-78518564D01*
X148598611Y-78545632D01*
X148598613Y-78545632D01*
X148605139Y-78547797D01*
X148611975Y-78548497D01*
X148611978Y-78548498D01*
X148655031Y-78552909D01*
X148709600Y-78558500D01*
X151010400Y-78558500D01*
X151013646Y-78558163D01*
X151013650Y-78558163D01*
X151109307Y-78548238D01*
X151109311Y-78548237D01*
X151116165Y-78547526D01*
X151122701Y-78545345D01*
X151122703Y-78545345D01*
X151254805Y-78501272D01*
X151283945Y-78491550D01*
X151434348Y-78398478D01*
X151559305Y-78273303D01*
X151652115Y-78122738D01*
X151707797Y-77954861D01*
X151718500Y-77850400D01*
X160701500Y-77850400D01*
X160712474Y-77956165D01*
X160768450Y-78123945D01*
X160861522Y-78274348D01*
X160986697Y-78399305D01*
X160992927Y-78403145D01*
X160992928Y-78403146D01*
X161130090Y-78487694D01*
X161137262Y-78492115D01*
X161217005Y-78518564D01*
X161298611Y-78545632D01*
X161298613Y-78545632D01*
X161305139Y-78547797D01*
X161311975Y-78548497D01*
X161311978Y-78548498D01*
X161355031Y-78552909D01*
X161409600Y-78558500D01*
X163710400Y-78558500D01*
X163713646Y-78558163D01*
X163713650Y-78558163D01*
X163809307Y-78548238D01*
X163809311Y-78548237D01*
X163816165Y-78547526D01*
X163822701Y-78545345D01*
X163822703Y-78545345D01*
X163954805Y-78501272D01*
X163983945Y-78491550D01*
X164134348Y-78398478D01*
X164259305Y-78273303D01*
X164352115Y-78122738D01*
X164407797Y-77954861D01*
X164418500Y-77850400D01*
X164418500Y-74549600D01*
X164407526Y-74443835D01*
X164351550Y-74276055D01*
X164258478Y-74125652D01*
X164133303Y-74000695D01*
X164127072Y-73996854D01*
X163988968Y-73911725D01*
X163988966Y-73911724D01*
X163982738Y-73907885D01*
X163822254Y-73854655D01*
X163821389Y-73854368D01*
X163821387Y-73854368D01*
X163814861Y-73852203D01*
X163808025Y-73851503D01*
X163808022Y-73851502D01*
X163764969Y-73847091D01*
X163710400Y-73841500D01*
X161409600Y-73841500D01*
X161406354Y-73841837D01*
X161406350Y-73841837D01*
X161310693Y-73851762D01*
X161310689Y-73851763D01*
X161303835Y-73852474D01*
X161297299Y-73854655D01*
X161297297Y-73854655D01*
X161289828Y-73857147D01*
X161136055Y-73908450D01*
X160985652Y-74001522D01*
X160860695Y-74126697D01*
X160767885Y-74277262D01*
X160712203Y-74445139D01*
X160701500Y-74549600D01*
X160701500Y-77850400D01*
X151718500Y-77850400D01*
X151718500Y-74549600D01*
X151707526Y-74443835D01*
X151651550Y-74276055D01*
X151558478Y-74125652D01*
X151433303Y-74000695D01*
X151427072Y-73996854D01*
X151288968Y-73911725D01*
X151288966Y-73911724D01*
X151282738Y-73907885D01*
X151122254Y-73854655D01*
X151121389Y-73854368D01*
X151121387Y-73854368D01*
X151114861Y-73852203D01*
X151108025Y-73851503D01*
X151108022Y-73851502D01*
X151064969Y-73847091D01*
X151010400Y-73841500D01*
X148709600Y-73841500D01*
X148706356Y-73841837D01*
X148706348Y-73841837D01*
X148646585Y-73848038D01*
X148576764Y-73835173D01*
X148544487Y-73811806D01*
X145998887Y-71266206D01*
X148002000Y-71266206D01*
X148002165Y-71270777D01*
X148016213Y-71464380D01*
X148017527Y-71473389D01*
X148073689Y-71727769D01*
X148076292Y-71736499D01*
X148168586Y-71980107D01*
X148172421Y-71988368D01*
X148298915Y-72216101D01*
X148303905Y-72223726D01*
X148461946Y-72430809D01*
X148467986Y-72437636D01*
X148654264Y-72619735D01*
X148661226Y-72625618D01*
X148871843Y-72778922D01*
X148879573Y-72783733D01*
X149110122Y-72905031D01*
X149118472Y-72908678D01*
X149364099Y-72995419D01*
X149372894Y-72997825D01*
X149588225Y-73040267D01*
X149601137Y-73039088D01*
X149605939Y-73024174D01*
X150114000Y-73024174D01*
X150118251Y-73038651D01*
X150130512Y-73040714D01*
X150166133Y-73037315D01*
X150175125Y-73035795D01*
X150428158Y-72973878D01*
X150436827Y-72971078D01*
X150678282Y-72873278D01*
X150686455Y-72869256D01*
X150911253Y-72737632D01*
X150918765Y-72732469D01*
X151122213Y-72569769D01*
X151128896Y-72563580D01*
X151306733Y-72373206D01*
X151312443Y-72366129D01*
X151460934Y-72152082D01*
X151465571Y-72144241D01*
X151581604Y-71911003D01*
X151585060Y-71902578D01*
X151666212Y-71655026D01*
X151668412Y-71646201D01*
X151713103Y-71388811D01*
X151713950Y-71381193D01*
X151717922Y-71301408D01*
X151718000Y-71298267D01*
X151718000Y-71266206D01*
X160702000Y-71266206D01*
X160702165Y-71270777D01*
X160716213Y-71464380D01*
X160717527Y-71473389D01*
X160773689Y-71727769D01*
X160776292Y-71736499D01*
X160868586Y-71980107D01*
X160872421Y-71988368D01*
X160998915Y-72216101D01*
X161003905Y-72223726D01*
X161161946Y-72430809D01*
X161167986Y-72437636D01*
X161354264Y-72619735D01*
X161361226Y-72625618D01*
X161571843Y-72778922D01*
X161579573Y-72783733D01*
X161810122Y-72905031D01*
X161818472Y-72908678D01*
X162064099Y-72995419D01*
X162072894Y-72997825D01*
X162288225Y-73040267D01*
X162301137Y-73039088D01*
X162305939Y-73024174D01*
X162814000Y-73024174D01*
X162818251Y-73038651D01*
X162830512Y-73040714D01*
X162866133Y-73037315D01*
X162875125Y-73035795D01*
X163128158Y-72973878D01*
X163136827Y-72971078D01*
X163378282Y-72873278D01*
X163386455Y-72869256D01*
X163611253Y-72737632D01*
X163618765Y-72732469D01*
X163822213Y-72569769D01*
X163828896Y-72563580D01*
X164006733Y-72373206D01*
X164012443Y-72366129D01*
X164160934Y-72152082D01*
X164165571Y-72144241D01*
X164281604Y-71911003D01*
X164285060Y-71902578D01*
X164366212Y-71655026D01*
X164368412Y-71646201D01*
X164413103Y-71388811D01*
X164413950Y-71381193D01*
X164417922Y-71301408D01*
X164418000Y-71298267D01*
X164418000Y-70972115D01*
X164413525Y-70956876D01*
X164412135Y-70955671D01*
X164404452Y-70954000D01*
X162832115Y-70954000D01*
X162816876Y-70958475D01*
X162815671Y-70959865D01*
X162814000Y-70967548D01*
X162814000Y-73024174D01*
X162305939Y-73024174D01*
X162306000Y-73023985D01*
X162306000Y-70972115D01*
X162301525Y-70956876D01*
X162300135Y-70955671D01*
X162292452Y-70954000D01*
X160720115Y-70954000D01*
X160704876Y-70958475D01*
X160703671Y-70959865D01*
X160702000Y-70967548D01*
X160702000Y-71266206D01*
X151718000Y-71266206D01*
X151718000Y-70972115D01*
X151713525Y-70956876D01*
X151712135Y-70955671D01*
X151704452Y-70954000D01*
X150132115Y-70954000D01*
X150116876Y-70958475D01*
X150115671Y-70959865D01*
X150114000Y-70967548D01*
X150114000Y-73024174D01*
X149605939Y-73024174D01*
X149606000Y-73023985D01*
X149606000Y-70972115D01*
X149601525Y-70956876D01*
X149600135Y-70955671D01*
X149592452Y-70954000D01*
X148020115Y-70954000D01*
X148004876Y-70958475D01*
X148003671Y-70959865D01*
X148002000Y-70967548D01*
X148002000Y-71266206D01*
X145998887Y-71266206D01*
X145160566Y-70427885D01*
X148002000Y-70427885D01*
X148006475Y-70443124D01*
X148007865Y-70444329D01*
X148015548Y-70446000D01*
X149587885Y-70446000D01*
X149603124Y-70441525D01*
X149604329Y-70440135D01*
X149606000Y-70432452D01*
X149606000Y-70427885D01*
X150114000Y-70427885D01*
X150118475Y-70443124D01*
X150119865Y-70444329D01*
X150127548Y-70446000D01*
X151699885Y-70446000D01*
X151715124Y-70441525D01*
X151716329Y-70440135D01*
X151718000Y-70432452D01*
X151718000Y-70427885D01*
X160702000Y-70427885D01*
X160706475Y-70443124D01*
X160707865Y-70444329D01*
X160715548Y-70446000D01*
X162287885Y-70446000D01*
X162303124Y-70441525D01*
X162304329Y-70440135D01*
X162306000Y-70432452D01*
X162306000Y-70427885D01*
X162814000Y-70427885D01*
X162818475Y-70443124D01*
X162819865Y-70444329D01*
X162827548Y-70446000D01*
X164399885Y-70446000D01*
X164415124Y-70441525D01*
X164416329Y-70440135D01*
X164418000Y-70432452D01*
X164418000Y-70133794D01*
X164417835Y-70129223D01*
X164403787Y-69935620D01*
X164402473Y-69926611D01*
X164346311Y-69672231D01*
X164343708Y-69663501D01*
X164251414Y-69419893D01*
X164247579Y-69411632D01*
X164121085Y-69183899D01*
X164116095Y-69176274D01*
X163958054Y-68969191D01*
X163952014Y-68962364D01*
X163765736Y-68780265D01*
X163758774Y-68774382D01*
X163548157Y-68621078D01*
X163540427Y-68616267D01*
X163309878Y-68494969D01*
X163301528Y-68491322D01*
X163055901Y-68404581D01*
X163047106Y-68402175D01*
X162831775Y-68359733D01*
X162818863Y-68360912D01*
X162814000Y-68376015D01*
X162814000Y-70427885D01*
X162306000Y-70427885D01*
X162306000Y-68375826D01*
X162301749Y-68361349D01*
X162289488Y-68359286D01*
X162253867Y-68362685D01*
X162244875Y-68364205D01*
X161991842Y-68426122D01*
X161983173Y-68428922D01*
X161741718Y-68526722D01*
X161733545Y-68530744D01*
X161508747Y-68662368D01*
X161501235Y-68667531D01*
X161297787Y-68830231D01*
X161291104Y-68836420D01*
X161113267Y-69026794D01*
X161107557Y-69033871D01*
X160959066Y-69247918D01*
X160954429Y-69255759D01*
X160838396Y-69488997D01*
X160834940Y-69497422D01*
X160753788Y-69744974D01*
X160751588Y-69753799D01*
X160706897Y-70011189D01*
X160706050Y-70018807D01*
X160702078Y-70098592D01*
X160702000Y-70101733D01*
X160702000Y-70427885D01*
X151718000Y-70427885D01*
X151718000Y-70133794D01*
X151717835Y-70129223D01*
X151703787Y-69935620D01*
X151702473Y-69926611D01*
X151646311Y-69672231D01*
X151643708Y-69663501D01*
X151551414Y-69419893D01*
X151547579Y-69411632D01*
X151421085Y-69183899D01*
X151416095Y-69176274D01*
X151258054Y-68969191D01*
X151252014Y-68962364D01*
X151065736Y-68780265D01*
X151058774Y-68774382D01*
X150848157Y-68621078D01*
X150840427Y-68616267D01*
X150609878Y-68494969D01*
X150601528Y-68491322D01*
X150355901Y-68404581D01*
X150347106Y-68402175D01*
X150131775Y-68359733D01*
X150118863Y-68360912D01*
X150114000Y-68376015D01*
X150114000Y-70427885D01*
X149606000Y-70427885D01*
X149606000Y-68375826D01*
X149601749Y-68361349D01*
X149589488Y-68359286D01*
X149553867Y-68362685D01*
X149544875Y-68364205D01*
X149291842Y-68426122D01*
X149283173Y-68428922D01*
X149041718Y-68526722D01*
X149033545Y-68530744D01*
X148808747Y-68662368D01*
X148801235Y-68667531D01*
X148597787Y-68830231D01*
X148591104Y-68836420D01*
X148413267Y-69026794D01*
X148407557Y-69033871D01*
X148259066Y-69247918D01*
X148254429Y-69255759D01*
X148138396Y-69488997D01*
X148134940Y-69497422D01*
X148053788Y-69744974D01*
X148051588Y-69753799D01*
X148006897Y-70011189D01*
X148006050Y-70018807D01*
X148002078Y-70098592D01*
X148002000Y-70101733D01*
X148002000Y-70427885D01*
X145160566Y-70427885D01*
X144943770Y-70211089D01*
X144931384Y-70196677D01*
X144922851Y-70185082D01*
X144922846Y-70185077D01*
X144918508Y-70179182D01*
X144912930Y-70174443D01*
X144912927Y-70174440D01*
X144878232Y-70144965D01*
X144870716Y-70138035D01*
X144865021Y-70132340D01*
X144858880Y-70127482D01*
X144842749Y-70114719D01*
X144839345Y-70111928D01*
X144789297Y-70069409D01*
X144789295Y-70069408D01*
X144783715Y-70064667D01*
X144777199Y-70061339D01*
X144772150Y-70057972D01*
X144767021Y-70054805D01*
X144761284Y-70050266D01*
X144695125Y-70019345D01*
X144691225Y-70017439D01*
X144686294Y-70014921D01*
X144626192Y-69984231D01*
X144619084Y-69982492D01*
X144613441Y-69980393D01*
X144607678Y-69978476D01*
X144601050Y-69975378D01*
X144529583Y-69960513D01*
X144525299Y-69959543D01*
X144454390Y-69942192D01*
X144448788Y-69941844D01*
X144448785Y-69941844D01*
X144443236Y-69941500D01*
X144443238Y-69941464D01*
X144439245Y-69941225D01*
X144435053Y-69940851D01*
X144427885Y-69939360D01*
X144361675Y-69941151D01*
X144350479Y-69941454D01*
X144347072Y-69941500D01*
X139107488Y-69941500D01*
X139039367Y-69921498D01*
X138992874Y-69867842D01*
X138984451Y-69842664D01*
X138946791Y-69672088D01*
X138946790Y-69672084D01*
X138945806Y-69667628D01*
X138881321Y-69497422D01*
X138851868Y-69419682D01*
X138851867Y-69419679D01*
X138850250Y-69415412D01*
X138719286Y-69179632D01*
X138608045Y-69033871D01*
X138558429Y-68968859D01*
X138558428Y-68968858D01*
X138555657Y-68965227D01*
X138362792Y-68776688D01*
X138144730Y-68617966D01*
X137978948Y-68530744D01*
X137910079Y-68494510D01*
X137910073Y-68494507D01*
X137906039Y-68492385D01*
X137901734Y-68490865D01*
X137901730Y-68490863D01*
X137656033Y-68404098D01*
X137656032Y-68404098D01*
X137651720Y-68402575D01*
X137516006Y-68375826D01*
X137391572Y-68351300D01*
X137391566Y-68351299D01*
X137387100Y-68350419D01*
X137382547Y-68350192D01*
X137382544Y-68350192D01*
X137122292Y-68337236D01*
X137122286Y-68337236D01*
X137117723Y-68337009D01*
X136849231Y-68362625D01*
X136844797Y-68363710D01*
X136844791Y-68363711D01*
X136591688Y-68425645D01*
X136587250Y-68426731D01*
X136337267Y-68527985D01*
X136104518Y-68664265D01*
X135893881Y-68832716D01*
X135709766Y-69029809D01*
X135556032Y-69251416D01*
X135435899Y-69492894D01*
X135434478Y-69497228D01*
X135434477Y-69497231D01*
X135434415Y-69497422D01*
X135351882Y-69749186D01*
X135351102Y-69753677D01*
X135351102Y-69753678D01*
X135310494Y-69987560D01*
X135305743Y-70014921D01*
X135301500Y-70100149D01*
X135301500Y-71268512D01*
X126318000Y-71268512D01*
X126318000Y-70972115D01*
X126313525Y-70956876D01*
X126312135Y-70955671D01*
X126304452Y-70954000D01*
X124732115Y-70954000D01*
X124716876Y-70958475D01*
X124715671Y-70959865D01*
X124714000Y-70967548D01*
X124714000Y-73024174D01*
X124205939Y-73024174D01*
X124206000Y-73023985D01*
X124206000Y-70972115D01*
X124201525Y-70956876D01*
X124200135Y-70955671D01*
X124192452Y-70954000D01*
X122620115Y-70954000D01*
X122604876Y-70958475D01*
X122603671Y-70959865D01*
X122602000Y-70967548D01*
X122602000Y-71266206D01*
X116590548Y-71266206D01*
X116589966Y-70427885D01*
X122602000Y-70427885D01*
X122606475Y-70443124D01*
X122607865Y-70444329D01*
X122615548Y-70446000D01*
X124187885Y-70446000D01*
X124203124Y-70441525D01*
X124204329Y-70440135D01*
X124206000Y-70432452D01*
X124206000Y-70427885D01*
X124714000Y-70427885D01*
X124718475Y-70443124D01*
X124719865Y-70444329D01*
X124727548Y-70446000D01*
X126299885Y-70446000D01*
X126315124Y-70441525D01*
X126316329Y-70440135D01*
X126318000Y-70432452D01*
X126318000Y-70133794D01*
X126317835Y-70129223D01*
X126303787Y-69935620D01*
X126302473Y-69926611D01*
X126246311Y-69672231D01*
X126243708Y-69663501D01*
X126151414Y-69419893D01*
X126147579Y-69411632D01*
X126021085Y-69183899D01*
X126016095Y-69176274D01*
X125858054Y-68969191D01*
X125852014Y-68962364D01*
X125665736Y-68780265D01*
X125658774Y-68774382D01*
X125448157Y-68621078D01*
X125440427Y-68616267D01*
X125209878Y-68494969D01*
X125201528Y-68491322D01*
X124955901Y-68404581D01*
X124947106Y-68402175D01*
X124731775Y-68359733D01*
X124718863Y-68360912D01*
X124714000Y-68376015D01*
X124714000Y-70427885D01*
X124206000Y-70427885D01*
X124206000Y-68375826D01*
X124201749Y-68361349D01*
X124189488Y-68359286D01*
X124153867Y-68362685D01*
X124144875Y-68364205D01*
X123891842Y-68426122D01*
X123883173Y-68428922D01*
X123641718Y-68526722D01*
X123633545Y-68530744D01*
X123408747Y-68662368D01*
X123401235Y-68667531D01*
X123197787Y-68830231D01*
X123191104Y-68836420D01*
X123013267Y-69026794D01*
X123007557Y-69033871D01*
X122859066Y-69247918D01*
X122854429Y-69255759D01*
X122738396Y-69488997D01*
X122734940Y-69497422D01*
X122653788Y-69744974D01*
X122651588Y-69753799D01*
X122606897Y-70011189D01*
X122606050Y-70018807D01*
X122602078Y-70098592D01*
X122602000Y-70101733D01*
X122602000Y-70427885D01*
X116589966Y-70427885D01*
X116586272Y-65106442D01*
X116607157Y-65036880D01*
X131257471Y-42872204D01*
X141773151Y-42872204D01*
X141777720Y-42878735D01*
X141990736Y-43009271D01*
X141999530Y-43013752D01*
X142231492Y-43109834D01*
X142240877Y-43112883D01*
X142485017Y-43171496D01*
X142494764Y-43173039D01*
X142745070Y-43192739D01*
X142754930Y-43192739D01*
X143005236Y-43173039D01*
X143014983Y-43171496D01*
X143259123Y-43112883D01*
X143268508Y-43109834D01*
X143500470Y-43013752D01*
X143509264Y-43009271D01*
X143720875Y-42879596D01*
X143726922Y-42870330D01*
X143720915Y-42860125D01*
X142762812Y-41902022D01*
X142748868Y-41894408D01*
X142747035Y-41894539D01*
X142740420Y-41898790D01*
X141780544Y-42858666D01*
X141773151Y-42872204D01*
X131257471Y-42872204D01*
X132141377Y-41534930D01*
X141087261Y-41534930D01*
X141106961Y-41785236D01*
X141108504Y-41794983D01*
X141167117Y-42039123D01*
X141170166Y-42048508D01*
X141266248Y-42280470D01*
X141270729Y-42289264D01*
X141400404Y-42500875D01*
X141409670Y-42506922D01*
X141419875Y-42500915D01*
X142377978Y-41542812D01*
X142384356Y-41531132D01*
X143114408Y-41531132D01*
X143114539Y-41532965D01*
X143118790Y-41539580D01*
X144078666Y-42499456D01*
X144092204Y-42506849D01*
X144098735Y-42502280D01*
X144229271Y-42289264D01*
X144233752Y-42280470D01*
X144329834Y-42048508D01*
X144332883Y-42039123D01*
X144391496Y-41794983D01*
X144393039Y-41785236D01*
X144412739Y-41534930D01*
X144412739Y-41525070D01*
X144393039Y-41274764D01*
X144391496Y-41265017D01*
X144332883Y-41020877D01*
X144329834Y-41011492D01*
X144233752Y-40779530D01*
X144229271Y-40770736D01*
X144099596Y-40559125D01*
X144090330Y-40553078D01*
X144080125Y-40559085D01*
X143122022Y-41517188D01*
X143114408Y-41531132D01*
X142384356Y-41531132D01*
X142385592Y-41528868D01*
X142385461Y-41527035D01*
X142381210Y-41520420D01*
X141421334Y-40560544D01*
X141407796Y-40553151D01*
X141401265Y-40557720D01*
X141270729Y-40770736D01*
X141266248Y-40779530D01*
X141170166Y-41011492D01*
X141167117Y-41020877D01*
X141108504Y-41265017D01*
X141106961Y-41274764D01*
X141087261Y-41525070D01*
X141087261Y-41534930D01*
X132141377Y-41534930D01*
X133030561Y-40189670D01*
X141773078Y-40189670D01*
X141779085Y-40199875D01*
X142737188Y-41157978D01*
X142751132Y-41165592D01*
X142752965Y-41165461D01*
X142759580Y-41161210D01*
X143719459Y-40201331D01*
X143724824Y-40191506D01*
X143775027Y-40141304D01*
X143844401Y-40126214D01*
X143878709Y-40133566D01*
X143933382Y-40153574D01*
X144217604Y-40215544D01*
X144246650Y-40217830D01*
X144443297Y-40233307D01*
X144443304Y-40233307D01*
X144445753Y-40233500D01*
X144603121Y-40233500D01*
X144605257Y-40233354D01*
X144605268Y-40233354D01*
X144815949Y-40218991D01*
X144815955Y-40218990D01*
X144820226Y-40218699D01*
X144824421Y-40217830D01*
X144824423Y-40217830D01*
X145000990Y-40181265D01*
X145105081Y-40159709D01*
X145379295Y-40062605D01*
X145637793Y-39929184D01*
X145641294Y-39926723D01*
X145641298Y-39926721D01*
X145863049Y-39770871D01*
X145930283Y-39748066D01*
X145999174Y-39765231D01*
X146047848Y-39816915D01*
X146061500Y-39873958D01*
X146061500Y-41438134D01*
X146068255Y-41500316D01*
X146119385Y-41636705D01*
X146206739Y-41753261D01*
X146323295Y-41840615D01*
X146459684Y-41891745D01*
X146521866Y-41898500D01*
X147008634Y-41898500D01*
X147076755Y-41918502D01*
X147123248Y-41972158D01*
X147133352Y-42042432D01*
X147130340Y-42057112D01*
X147093310Y-42195308D01*
X147093309Y-42195317D01*
X147091885Y-42200629D01*
X147072693Y-42420000D01*
X147091885Y-42639371D01*
X147148880Y-42852076D01*
X147161713Y-42879596D01*
X147239618Y-43046666D01*
X147239621Y-43046671D01*
X147241944Y-43051653D01*
X147245100Y-43056160D01*
X147245101Y-43056162D01*
X147340734Y-43192739D01*
X147368251Y-43232038D01*
X147523962Y-43387749D01*
X147704346Y-43514056D01*
X147903924Y-43607120D01*
X148116629Y-43664115D01*
X148336000Y-43683307D01*
X148555371Y-43664115D01*
X148768076Y-43607120D01*
X148967654Y-43514056D01*
X149148038Y-43387749D01*
X149262905Y-43272882D01*
X149325217Y-43238856D01*
X149396032Y-43243921D01*
X149441095Y-43272882D01*
X149555962Y-43387749D01*
X149736346Y-43514056D01*
X149935924Y-43607120D01*
X150148629Y-43664115D01*
X150368000Y-43683307D01*
X150587371Y-43664115D01*
X150800076Y-43607120D01*
X150999654Y-43514056D01*
X151180038Y-43387749D01*
X151294905Y-43272882D01*
X151357217Y-43238856D01*
X151428032Y-43243921D01*
X151473095Y-43272882D01*
X151587962Y-43387749D01*
X151768346Y-43514056D01*
X151967924Y-43607120D01*
X152180629Y-43664115D01*
X152400000Y-43683307D01*
X152405475Y-43682828D01*
X152405476Y-43682828D01*
X152516761Y-43673092D01*
X152586365Y-43687081D01*
X152616837Y-43709518D01*
X155900865Y-46993546D01*
X155934891Y-47055858D01*
X155937770Y-47082641D01*
X155937770Y-57569200D01*
X155936337Y-57588150D01*
X155933071Y-57609619D01*
X155933664Y-57616911D01*
X155933664Y-57616914D01*
X155937355Y-57662288D01*
X155937770Y-57672503D01*
X155937770Y-57680563D01*
X155938195Y-57684207D01*
X155941059Y-57708777D01*
X155941492Y-57713152D01*
X155947410Y-57785907D01*
X155949666Y-57792871D01*
X155950857Y-57798830D01*
X155952241Y-57804685D01*
X155953088Y-57811951D01*
X155978005Y-57880597D01*
X155979422Y-57884725D01*
X156001919Y-57954169D01*
X156005715Y-57960424D01*
X156008221Y-57965898D01*
X156010940Y-57971328D01*
X156013437Y-57978207D01*
X156017450Y-57984327D01*
X156017450Y-57984328D01*
X156053456Y-58039246D01*
X156055793Y-58042950D01*
X156093675Y-58105377D01*
X156097391Y-58109585D01*
X156097392Y-58109586D01*
X156101073Y-58113754D01*
X156101046Y-58113778D01*
X156103699Y-58116770D01*
X156106402Y-58120003D01*
X156110414Y-58126122D01*
X156115726Y-58131154D01*
X156166653Y-58179398D01*
X156169095Y-58181776D01*
X173364595Y-75377276D01*
X173398621Y-75439588D01*
X173401500Y-75466371D01*
X173401500Y-77850400D01*
X173412474Y-77956165D01*
X173468450Y-78123945D01*
X173561522Y-78274348D01*
X173686697Y-78399305D01*
X173692927Y-78403145D01*
X173692928Y-78403146D01*
X173830090Y-78487694D01*
X173837262Y-78492115D01*
X173917005Y-78518564D01*
X173998611Y-78545632D01*
X173998613Y-78545632D01*
X174005139Y-78547797D01*
X174011975Y-78548497D01*
X174011978Y-78548498D01*
X174055031Y-78552909D01*
X174109600Y-78558500D01*
X176410400Y-78558500D01*
X176413646Y-78558163D01*
X176413650Y-78558163D01*
X176509307Y-78548238D01*
X176509311Y-78548237D01*
X176516165Y-78547526D01*
X176522701Y-78545345D01*
X176522703Y-78545345D01*
X176654805Y-78501272D01*
X176683945Y-78491550D01*
X176834348Y-78398478D01*
X176959305Y-78273303D01*
X177052115Y-78122738D01*
X177107797Y-77954861D01*
X177118500Y-77850400D01*
X177118500Y-74549600D01*
X177107526Y-74443835D01*
X177051550Y-74276055D01*
X176958478Y-74125652D01*
X176833303Y-74000695D01*
X176827072Y-73996854D01*
X176688968Y-73911725D01*
X176688966Y-73911724D01*
X176682738Y-73907885D01*
X176522254Y-73854655D01*
X176521389Y-73854368D01*
X176521387Y-73854368D01*
X176514861Y-73852203D01*
X176508025Y-73851503D01*
X176508022Y-73851502D01*
X176464969Y-73847091D01*
X176410400Y-73841500D01*
X174109600Y-73841500D01*
X174106356Y-73841837D01*
X174106348Y-73841837D01*
X174046585Y-73848038D01*
X173976764Y-73835173D01*
X173944487Y-73811806D01*
X171398887Y-71266206D01*
X173402000Y-71266206D01*
X173402165Y-71270777D01*
X173416213Y-71464380D01*
X173417527Y-71473389D01*
X173473689Y-71727769D01*
X173476292Y-71736499D01*
X173568586Y-71980107D01*
X173572421Y-71988368D01*
X173698915Y-72216101D01*
X173703905Y-72223726D01*
X173861946Y-72430809D01*
X173867986Y-72437636D01*
X174054264Y-72619735D01*
X174061226Y-72625618D01*
X174271843Y-72778922D01*
X174279573Y-72783733D01*
X174510122Y-72905031D01*
X174518472Y-72908678D01*
X174764099Y-72995419D01*
X174772894Y-72997825D01*
X174988225Y-73040267D01*
X175001137Y-73039088D01*
X175005939Y-73024174D01*
X175514000Y-73024174D01*
X175518251Y-73038651D01*
X175530512Y-73040714D01*
X175566133Y-73037315D01*
X175575125Y-73035795D01*
X175828158Y-72973878D01*
X175836827Y-72971078D01*
X176078282Y-72873278D01*
X176086455Y-72869256D01*
X176311253Y-72737632D01*
X176318765Y-72732469D01*
X176522213Y-72569769D01*
X176528896Y-72563580D01*
X176706733Y-72373206D01*
X176712443Y-72366129D01*
X176860934Y-72152082D01*
X176865571Y-72144241D01*
X176981604Y-71911003D01*
X176985060Y-71902578D01*
X177066212Y-71655026D01*
X177068412Y-71646201D01*
X177113103Y-71388811D01*
X177113950Y-71381193D01*
X177117922Y-71301408D01*
X177118000Y-71298267D01*
X177118000Y-70972115D01*
X177113525Y-70956876D01*
X177112135Y-70955671D01*
X177104452Y-70954000D01*
X175532115Y-70954000D01*
X175516876Y-70958475D01*
X175515671Y-70959865D01*
X175514000Y-70967548D01*
X175514000Y-73024174D01*
X175005939Y-73024174D01*
X175006000Y-73023985D01*
X175006000Y-70972115D01*
X175001525Y-70956876D01*
X175000135Y-70955671D01*
X174992452Y-70954000D01*
X173420115Y-70954000D01*
X173404876Y-70958475D01*
X173403671Y-70959865D01*
X173402000Y-70967548D01*
X173402000Y-71266206D01*
X171398887Y-71266206D01*
X170560566Y-70427885D01*
X173402000Y-70427885D01*
X173406475Y-70443124D01*
X173407865Y-70444329D01*
X173415548Y-70446000D01*
X174987885Y-70446000D01*
X175003124Y-70441525D01*
X175004329Y-70440135D01*
X175006000Y-70432452D01*
X175006000Y-70427885D01*
X175514000Y-70427885D01*
X175518475Y-70443124D01*
X175519865Y-70444329D01*
X175527548Y-70446000D01*
X177099885Y-70446000D01*
X177115124Y-70441525D01*
X177116329Y-70440135D01*
X177118000Y-70432452D01*
X177118000Y-70133794D01*
X177117835Y-70129223D01*
X177103787Y-69935620D01*
X177102473Y-69926611D01*
X177046311Y-69672231D01*
X177043708Y-69663501D01*
X176951414Y-69419893D01*
X176947579Y-69411632D01*
X176821085Y-69183899D01*
X176816095Y-69176274D01*
X176658054Y-68969191D01*
X176652014Y-68962364D01*
X176465736Y-68780265D01*
X176458774Y-68774382D01*
X176248157Y-68621078D01*
X176240427Y-68616267D01*
X176009878Y-68494969D01*
X176001528Y-68491322D01*
X175755901Y-68404581D01*
X175747106Y-68402175D01*
X175531775Y-68359733D01*
X175518863Y-68360912D01*
X175514000Y-68376015D01*
X175514000Y-70427885D01*
X175006000Y-70427885D01*
X175006000Y-68375826D01*
X175001749Y-68361349D01*
X174989488Y-68359286D01*
X174953867Y-68362685D01*
X174944875Y-68364205D01*
X174691842Y-68426122D01*
X174683173Y-68428922D01*
X174441718Y-68526722D01*
X174433545Y-68530744D01*
X174208747Y-68662368D01*
X174201235Y-68667531D01*
X173997787Y-68830231D01*
X173991104Y-68836420D01*
X173813267Y-69026794D01*
X173807557Y-69033871D01*
X173659066Y-69247918D01*
X173654429Y-69255759D01*
X173538396Y-69488997D01*
X173534940Y-69497422D01*
X173453788Y-69744974D01*
X173451588Y-69753799D01*
X173406897Y-70011189D01*
X173406050Y-70018807D01*
X173402078Y-70098592D01*
X173402000Y-70101733D01*
X173402000Y-70427885D01*
X170560566Y-70427885D01*
X157491675Y-57358994D01*
X157457649Y-57296682D01*
X157454770Y-57269899D01*
X157454770Y-46783339D01*
X157456203Y-46764388D01*
X157458369Y-46750153D01*
X157458369Y-46750151D01*
X157459469Y-46742921D01*
X157455185Y-46690252D01*
X157454770Y-46680037D01*
X157454770Y-46671977D01*
X157451481Y-46643763D01*
X157451048Y-46639388D01*
X157445724Y-46573931D01*
X157445723Y-46573928D01*
X157445130Y-46566633D01*
X157442874Y-46559669D01*
X157441683Y-46553710D01*
X157440299Y-46547855D01*
X157439452Y-46540589D01*
X157414535Y-46471943D01*
X157413118Y-46467815D01*
X157392877Y-46405334D01*
X157392876Y-46405332D01*
X157390621Y-46398371D01*
X157386825Y-46392116D01*
X157384319Y-46386642D01*
X157381600Y-46381212D01*
X157379103Y-46374333D01*
X157339079Y-46313286D01*
X157336742Y-46309582D01*
X157301779Y-46251963D01*
X157301775Y-46251958D01*
X157298865Y-46247162D01*
X157291467Y-46238786D01*
X157291493Y-46238763D01*
X157288844Y-46235773D01*
X157286136Y-46232534D01*
X157282126Y-46226418D01*
X157276819Y-46221391D01*
X157276816Y-46221387D01*
X157225887Y-46173142D01*
X157223445Y-46170764D01*
X154852005Y-43799324D01*
X154817979Y-43737012D01*
X154823044Y-43666197D01*
X154865591Y-43609361D01*
X154887850Y-43596034D01*
X155063654Y-43514056D01*
X155244038Y-43387749D01*
X155399749Y-43232038D01*
X155427267Y-43192739D01*
X155522899Y-43056162D01*
X155522900Y-43056160D01*
X155526056Y-43051653D01*
X155528379Y-43046671D01*
X155528382Y-43046666D01*
X155606287Y-42879596D01*
X155609734Y-42872204D01*
X158033151Y-42872204D01*
X158037720Y-42878735D01*
X158250736Y-43009271D01*
X158259530Y-43013752D01*
X158491492Y-43109834D01*
X158500877Y-43112883D01*
X158745017Y-43171496D01*
X158754764Y-43173039D01*
X159005070Y-43192739D01*
X159014930Y-43192739D01*
X159265236Y-43173039D01*
X159274983Y-43171496D01*
X159519123Y-43112883D01*
X159528508Y-43109834D01*
X159760470Y-43013752D01*
X159769264Y-43009271D01*
X159980875Y-42879596D01*
X159986922Y-42870330D01*
X159980915Y-42860125D01*
X159022812Y-41902022D01*
X159008868Y-41894408D01*
X159007035Y-41894539D01*
X159000420Y-41898790D01*
X158040544Y-42858666D01*
X158033151Y-42872204D01*
X155609734Y-42872204D01*
X155619120Y-42852076D01*
X155676115Y-42639371D01*
X155695307Y-42420000D01*
X155676115Y-42200629D01*
X155619120Y-41987924D01*
X155550429Y-41840615D01*
X155528382Y-41793334D01*
X155528379Y-41793329D01*
X155526056Y-41788347D01*
X155522899Y-41783838D01*
X155402908Y-41612473D01*
X155402906Y-41612470D01*
X155399749Y-41607962D01*
X155326717Y-41534930D01*
X157347261Y-41534930D01*
X157366961Y-41785236D01*
X157368504Y-41794983D01*
X157427117Y-42039123D01*
X157430166Y-42048508D01*
X157526248Y-42280470D01*
X157530729Y-42289264D01*
X157660404Y-42500875D01*
X157669670Y-42506922D01*
X157679875Y-42500915D01*
X158637978Y-41542812D01*
X158644356Y-41531132D01*
X159374408Y-41531132D01*
X159374539Y-41532965D01*
X159378790Y-41539580D01*
X160338666Y-42499456D01*
X160352204Y-42506849D01*
X160358735Y-42502280D01*
X160489271Y-42289264D01*
X160493752Y-42280470D01*
X160589834Y-42048508D01*
X160592883Y-42039123D01*
X160651496Y-41794983D01*
X160653039Y-41785236D01*
X160672739Y-41534930D01*
X160672739Y-41525070D01*
X160653039Y-41274764D01*
X160651496Y-41265017D01*
X160592883Y-41020877D01*
X160589834Y-41011492D01*
X160493752Y-40779530D01*
X160489271Y-40770736D01*
X160359596Y-40559125D01*
X160350330Y-40553078D01*
X160340125Y-40559085D01*
X159382022Y-41517188D01*
X159374408Y-41531132D01*
X158644356Y-41531132D01*
X158645592Y-41528868D01*
X158645461Y-41527035D01*
X158641210Y-41520420D01*
X157681334Y-40560544D01*
X157667796Y-40553151D01*
X157661265Y-40557720D01*
X157530729Y-40770736D01*
X157526248Y-40779530D01*
X157430166Y-41011492D01*
X157427117Y-41020877D01*
X157368504Y-41265017D01*
X157366961Y-41274764D01*
X157347261Y-41525070D01*
X157347261Y-41534930D01*
X155326717Y-41534930D01*
X155244038Y-41452251D01*
X155228729Y-41441531D01*
X155164759Y-41396739D01*
X155063654Y-41325944D01*
X154864076Y-41232880D01*
X154702107Y-41189480D01*
X154641485Y-41152528D01*
X154610463Y-41088667D01*
X154613012Y-41035162D01*
X154658692Y-40864684D01*
X154658693Y-40864677D01*
X154660115Y-40859371D01*
X154679307Y-40640000D01*
X154660115Y-40420629D01*
X154603120Y-40207924D01*
X154534440Y-40060639D01*
X154512382Y-40013334D01*
X154512379Y-40013329D01*
X154510056Y-40008347D01*
X154469317Y-39950166D01*
X154386908Y-39832473D01*
X154386906Y-39832470D01*
X154383749Y-39827962D01*
X154228038Y-39672251D01*
X154222679Y-39668498D01*
X154134278Y-39606599D01*
X154047654Y-39545944D01*
X153848076Y-39452880D01*
X153635371Y-39395885D01*
X153416000Y-39376693D01*
X153196629Y-39395885D01*
X152983924Y-39452880D01*
X152890562Y-39496415D01*
X152789334Y-39543618D01*
X152789329Y-39543621D01*
X152784347Y-39545944D01*
X152779840Y-39549100D01*
X152779838Y-39549101D01*
X152608473Y-39669092D01*
X152608470Y-39669094D01*
X152603962Y-39672251D01*
X152489095Y-39787118D01*
X152426783Y-39821144D01*
X152355968Y-39816079D01*
X152310905Y-39787118D01*
X152196038Y-39672251D01*
X152190679Y-39668498D01*
X152102278Y-39606599D01*
X152015654Y-39545944D01*
X151816076Y-39452880D01*
X151603371Y-39395885D01*
X151384000Y-39376693D01*
X151164629Y-39395885D01*
X150951924Y-39452880D01*
X150858562Y-39496415D01*
X150757334Y-39543618D01*
X150757329Y-39543621D01*
X150752347Y-39545944D01*
X150747840Y-39549100D01*
X150747838Y-39549101D01*
X150576473Y-39669092D01*
X150576470Y-39669094D01*
X150571962Y-39672251D01*
X150457095Y-39787118D01*
X150394783Y-39821144D01*
X150323968Y-39816079D01*
X150278905Y-39787118D01*
X150164038Y-39672251D01*
X150158679Y-39668498D01*
X150070278Y-39606599D01*
X149983654Y-39545944D01*
X149784076Y-39452880D01*
X149571371Y-39395885D01*
X149352000Y-39376693D01*
X149132629Y-39395885D01*
X148919924Y-39452880D01*
X148826562Y-39496415D01*
X148725334Y-39543618D01*
X148725329Y-39543621D01*
X148720347Y-39545944D01*
X148715840Y-39549100D01*
X148715838Y-39549101D01*
X148641439Y-39601196D01*
X148574165Y-39623884D01*
X148505304Y-39606599D01*
X148468343Y-39573549D01*
X148433261Y-39526739D01*
X148316705Y-39439385D01*
X148180316Y-39388255D01*
X148118134Y-39381500D01*
X146521866Y-39381500D01*
X146482486Y-39385778D01*
X146412605Y-39373250D01*
X146360589Y-39324930D01*
X146342954Y-39256158D01*
X146361446Y-39194680D01*
X146422896Y-39094402D01*
X146425133Y-39090752D01*
X146433869Y-39070852D01*
X146540334Y-38828315D01*
X146542059Y-38824386D01*
X146548073Y-38803276D01*
X146567782Y-38734087D01*
X146621754Y-38544616D01*
X146624286Y-38526829D01*
X146662137Y-38260870D01*
X146662742Y-38256619D01*
X146662859Y-38234277D01*
X155095735Y-38234277D01*
X155133705Y-38522687D01*
X155210465Y-38803276D01*
X155324596Y-39070852D01*
X155473985Y-39320462D01*
X155476669Y-39323813D01*
X155476671Y-39323815D01*
X155534026Y-39395406D01*
X155655867Y-39547489D01*
X155866878Y-39747731D01*
X156103113Y-39917483D01*
X156360200Y-40053603D01*
X156364223Y-40055075D01*
X156364227Y-40055077D01*
X156629351Y-40152099D01*
X156633382Y-40153574D01*
X156917604Y-40215544D01*
X156946650Y-40217830D01*
X157143297Y-40233307D01*
X157143304Y-40233307D01*
X157145753Y-40233500D01*
X157303121Y-40233500D01*
X157305257Y-40233354D01*
X157305268Y-40233354D01*
X157515949Y-40218991D01*
X157515955Y-40218990D01*
X157520226Y-40218699D01*
X157524421Y-40217830D01*
X157524423Y-40217830D01*
X157700990Y-40181265D01*
X157805081Y-40159709D01*
X157809115Y-40158281D01*
X157809124Y-40158278D01*
X157881218Y-40132748D01*
X157952108Y-40128864D01*
X158013845Y-40163922D01*
X158031864Y-40187607D01*
X158039085Y-40199875D01*
X158997188Y-41157978D01*
X159011132Y-41165592D01*
X159012965Y-41165461D01*
X159019580Y-41161210D01*
X159979456Y-40201334D01*
X159986849Y-40187796D01*
X159982280Y-40181265D01*
X159769264Y-40050729D01*
X159760470Y-40046248D01*
X159528508Y-39950166D01*
X159519123Y-39947117D01*
X159274983Y-39888504D01*
X159265236Y-39886961D01*
X159014930Y-39867261D01*
X159005070Y-39867261D01*
X158772923Y-39885532D01*
X158703443Y-39870936D01*
X158652884Y-39821094D01*
X158637297Y-39751829D01*
X158661632Y-39685133D01*
X158677266Y-39667620D01*
X158785745Y-39566815D01*
X158785748Y-39566812D01*
X158788888Y-39563894D01*
X158799895Y-39550447D01*
X158905574Y-39421332D01*
X158973139Y-39338784D01*
X159125133Y-39090752D01*
X159133869Y-39070852D01*
X159240334Y-38828315D01*
X159242059Y-38824386D01*
X159248073Y-38803276D01*
X159267782Y-38734087D01*
X159321754Y-38544616D01*
X159324286Y-38526829D01*
X159362137Y-38260870D01*
X159362742Y-38256619D01*
X159364265Y-37965723D01*
X159326295Y-37677313D01*
X159249535Y-37396724D01*
X159135404Y-37129148D01*
X158986015Y-36879538D01*
X158971337Y-36861216D01*
X158806823Y-36655869D01*
X158804133Y-36652511D01*
X158593122Y-36452269D01*
X158356887Y-36282517D01*
X158099800Y-36146397D01*
X158095777Y-36144925D01*
X158095773Y-36144923D01*
X157830649Y-36047901D01*
X157830647Y-36047900D01*
X157826618Y-36046426D01*
X157542396Y-35984456D01*
X157498598Y-35981009D01*
X157316703Y-35966693D01*
X157316696Y-35966693D01*
X157314247Y-35966500D01*
X157156879Y-35966500D01*
X157154743Y-35966646D01*
X157154732Y-35966646D01*
X156944051Y-35981009D01*
X156944045Y-35981010D01*
X156939774Y-35981301D01*
X156935579Y-35982170D01*
X156935577Y-35982170D01*
X156920130Y-35985369D01*
X156654919Y-36040291D01*
X156380705Y-36137395D01*
X156122207Y-36270816D01*
X156118706Y-36273277D01*
X156118702Y-36273279D01*
X156105558Y-36282517D01*
X155884208Y-36438085D01*
X155671112Y-36636106D01*
X155668398Y-36639422D01*
X155668395Y-36639425D01*
X155654936Y-36655869D01*
X155486861Y-36861216D01*
X155334867Y-37109248D01*
X155333148Y-37113165D01*
X155333146Y-37113168D01*
X155324397Y-37133100D01*
X155217941Y-37375614D01*
X155216765Y-37379742D01*
X155216764Y-37379745D01*
X155192218Y-37465913D01*
X155138246Y-37655384D01*
X155137642Y-37659626D01*
X155137641Y-37659632D01*
X155135125Y-37677313D01*
X155097258Y-37943381D01*
X155095735Y-38234277D01*
X146662859Y-38234277D01*
X146664265Y-37965723D01*
X146626295Y-37677313D01*
X146549535Y-37396724D01*
X146435404Y-37129148D01*
X146286015Y-36879538D01*
X146271337Y-36861216D01*
X146106823Y-36655869D01*
X146104133Y-36652511D01*
X145893122Y-36452269D01*
X145656887Y-36282517D01*
X145399800Y-36146397D01*
X145395777Y-36144925D01*
X145395773Y-36144923D01*
X145130649Y-36047901D01*
X145130647Y-36047900D01*
X145126618Y-36046426D01*
X144842396Y-35984456D01*
X144798598Y-35981009D01*
X144616703Y-35966693D01*
X144616696Y-35966693D01*
X144614247Y-35966500D01*
X144456879Y-35966500D01*
X144454743Y-35966646D01*
X144454732Y-35966646D01*
X144244051Y-35981009D01*
X144244045Y-35981010D01*
X144239774Y-35981301D01*
X144235579Y-35982170D01*
X144235577Y-35982170D01*
X144220130Y-35985369D01*
X143954919Y-36040291D01*
X143680705Y-36137395D01*
X143422207Y-36270816D01*
X143418706Y-36273277D01*
X143418702Y-36273279D01*
X143405558Y-36282517D01*
X143184208Y-36438085D01*
X142971112Y-36636106D01*
X142968398Y-36639422D01*
X142968395Y-36639425D01*
X142954936Y-36655869D01*
X142786861Y-36861216D01*
X142634867Y-37109248D01*
X142633148Y-37113165D01*
X142633146Y-37113168D01*
X142624397Y-37133100D01*
X142517941Y-37375614D01*
X142516765Y-37379742D01*
X142516764Y-37379745D01*
X142492218Y-37465913D01*
X142438246Y-37655384D01*
X142437642Y-37659626D01*
X142437641Y-37659632D01*
X142435125Y-37677313D01*
X142397258Y-37943381D01*
X142395735Y-38234277D01*
X142433705Y-38522687D01*
X142510465Y-38803276D01*
X142624596Y-39070852D01*
X142773985Y-39320462D01*
X142776669Y-39323813D01*
X142776671Y-39323815D01*
X142834026Y-39395406D01*
X142955867Y-39547489D01*
X143082459Y-39667620D01*
X143083384Y-39668498D01*
X143119028Y-39729898D01*
X143115819Y-39800822D01*
X143074775Y-39858752D01*
X143008927Y-39885296D01*
X142986765Y-39885507D01*
X142754930Y-39867261D01*
X142745070Y-39867261D01*
X142494764Y-39886961D01*
X142485017Y-39888504D01*
X142240877Y-39947117D01*
X142231492Y-39950166D01*
X141999530Y-40046248D01*
X141990736Y-40050729D01*
X141779125Y-40180404D01*
X141773078Y-40189670D01*
X133030561Y-40189670D01*
X133119524Y-40055077D01*
X137490556Y-33442079D01*
X137539321Y-33398859D01*
X142333437Y-31001802D01*
X142389786Y-30988500D01*
X159870215Y-30988500D01*
X159926564Y-31001802D01*
G37*
%TD.AperFunction*%
%TD*%
M02*
