%TF.GenerationSoftware,KiCad,Pcbnew,(6.0.8)*%
%TF.CreationDate,2023-04-02T10:01:26-07:00*%
%TF.ProjectId,FCP_steering_splitter,4643505f-7374-4656-9572-696e675f7370,rev?*%
%TF.SameCoordinates,Original*%
%TF.FileFunction,Drillmap*%
%TF.FilePolarity,Positive*%
%FSLAX45Y45*%
G04 Gerber Fmt 4.5, Leading zero omitted, Abs format (unit mm)*
G04 Created by KiCad (PCBNEW (6.0.8)) date 2023-04-02 10:01:26*
%MOMM*%
%LPD*%
G01*
G04 APERTURE LIST*
%ADD10C,0.100000*%
%ADD11C,0.200000*%
%ADD12C,0.089000*%
%ADD13C,0.157000*%
%ADD14C,0.180000*%
G04 APERTURE END LIST*
D10*
X18288000Y-6350000D02*
X16510000Y-3302000D01*
X11863605Y-9398000D02*
X18034000Y-9398000D01*
X11607764Y-6491581D02*
X13716000Y-3302000D01*
X11609610Y-9144000D02*
G75*
G03*
X11863605Y-9398000I254000J0D01*
G01*
X11609605Y-9144000D02*
X11607764Y-6491581D01*
X16510000Y-3302000D02*
X16002000Y-3048000D01*
X16002000Y-3048000D02*
X14224000Y-3048000D01*
X18288000Y-9144000D02*
X18288000Y-6350000D01*
X18034000Y-9398000D02*
G75*
G03*
X18288000Y-9144000I0J254000D01*
G01*
X14224000Y-3048000D02*
X13716000Y-3302000D01*
D11*
D12*
X14687500Y-4019500D02*
X14776500Y-4108500D01*
X14776500Y-4019500D02*
X14687500Y-4108500D01*
X14789100Y-4197500D02*
X14878100Y-4286500D01*
X14878100Y-4197500D02*
X14789100Y-4286500D01*
X14890700Y-4019500D02*
X14979700Y-4108500D01*
X14979700Y-4019500D02*
X14890700Y-4108500D01*
X14992300Y-4197500D02*
X15081300Y-4286500D01*
X15081300Y-4197500D02*
X14992300Y-4286500D01*
X15093900Y-4019500D02*
X15182900Y-4108500D01*
X15182900Y-4019500D02*
X15093900Y-4108500D01*
X15195500Y-4197500D02*
X15284500Y-4286500D01*
X15284500Y-4197500D02*
X15195500Y-4286500D01*
X15297100Y-4019500D02*
X15386100Y-4108500D01*
X15386100Y-4019500D02*
X15297100Y-4108500D01*
X15398700Y-4197500D02*
X15487700Y-4286500D01*
X15487700Y-4197500D02*
X15398700Y-4286500D01*
D13*
X14353500Y-4153000D02*
G75*
G03*
X14353500Y-4153000I-78500J0D01*
G01*
X15979500Y-4153000D02*
G75*
G03*
X15979500Y-4153000I-78500J0D01*
G01*
D14*
X12446000Y-6980000D02*
X12446000Y-7160000D01*
X12356000Y-7070000D02*
X12536000Y-7070000D01*
X12446000Y-7530000D02*
X12446000Y-7710000D01*
X12356000Y-7620000D02*
X12536000Y-7620000D01*
X13716000Y-6980000D02*
X13716000Y-7160000D01*
X13626000Y-7070000D02*
X13806000Y-7070000D01*
X13716000Y-7530000D02*
X13716000Y-7710000D01*
X13626000Y-7620000D02*
X13806000Y-7620000D01*
X14986000Y-6980000D02*
X14986000Y-7160000D01*
X14896000Y-7070000D02*
X15076000Y-7070000D01*
X14986000Y-7530000D02*
X14986000Y-7710000D01*
X14896000Y-7620000D02*
X15076000Y-7620000D01*
X16256000Y-6980000D02*
X16256000Y-7160000D01*
X16166000Y-7070000D02*
X16346000Y-7070000D01*
X16256000Y-7530000D02*
X16256000Y-7710000D01*
X16166000Y-7620000D02*
X16346000Y-7620000D01*
X17526000Y-6980000D02*
X17526000Y-7160000D01*
X17436000Y-7070000D02*
X17616000Y-7070000D01*
X17526000Y-7530000D02*
X17526000Y-7710000D01*
X17436000Y-7620000D02*
X17616000Y-7620000D01*
D11*
X11860383Y-9713476D02*
X11860383Y-9513476D01*
X11908002Y-9513476D01*
X11936573Y-9523000D01*
X11955621Y-9542048D01*
X11965145Y-9561095D01*
X11974669Y-9599190D01*
X11974669Y-9627762D01*
X11965145Y-9665857D01*
X11955621Y-9684905D01*
X11936573Y-9703952D01*
X11908002Y-9713476D01*
X11860383Y-9713476D01*
X12060383Y-9713476D02*
X12060383Y-9580143D01*
X12060383Y-9618238D02*
X12069907Y-9599190D01*
X12079430Y-9589667D01*
X12098478Y-9580143D01*
X12117526Y-9580143D01*
X12184192Y-9713476D02*
X12184192Y-9580143D01*
X12184192Y-9513476D02*
X12174669Y-9523000D01*
X12184192Y-9532524D01*
X12193716Y-9523000D01*
X12184192Y-9513476D01*
X12184192Y-9532524D01*
X12308002Y-9713476D02*
X12288954Y-9703952D01*
X12279430Y-9684905D01*
X12279430Y-9513476D01*
X12412764Y-9713476D02*
X12393716Y-9703952D01*
X12384192Y-9684905D01*
X12384192Y-9513476D01*
X12641335Y-9713476D02*
X12641335Y-9513476D01*
X12708002Y-9656333D01*
X12774669Y-9513476D01*
X12774669Y-9713476D01*
X12955621Y-9713476D02*
X12955621Y-9608714D01*
X12946097Y-9589667D01*
X12927050Y-9580143D01*
X12888954Y-9580143D01*
X12869907Y-9589667D01*
X12955621Y-9703952D02*
X12936573Y-9713476D01*
X12888954Y-9713476D01*
X12869907Y-9703952D01*
X12860383Y-9684905D01*
X12860383Y-9665857D01*
X12869907Y-9646810D01*
X12888954Y-9637286D01*
X12936573Y-9637286D01*
X12955621Y-9627762D01*
X13050859Y-9580143D02*
X13050859Y-9780143D01*
X13050859Y-9589667D02*
X13069907Y-9580143D01*
X13108002Y-9580143D01*
X13127050Y-9589667D01*
X13136573Y-9599190D01*
X13146097Y-9618238D01*
X13146097Y-9675381D01*
X13136573Y-9694429D01*
X13127050Y-9703952D01*
X13108002Y-9713476D01*
X13069907Y-9713476D01*
X13050859Y-9703952D01*
X13231811Y-9694429D02*
X13241335Y-9703952D01*
X13231811Y-9713476D01*
X13222288Y-9703952D01*
X13231811Y-9694429D01*
X13231811Y-9713476D01*
X13231811Y-9589667D02*
X13241335Y-9599190D01*
X13231811Y-9608714D01*
X13222288Y-9599190D01*
X13231811Y-9589667D01*
X13231811Y-9608714D01*
D12*
X11513764Y-9998500D02*
X11602764Y-10087500D01*
X11602764Y-9998500D02*
X11513764Y-10087500D01*
D11*
X11898478Y-9933476D02*
X11917526Y-9933476D01*
X11936573Y-9943000D01*
X11946097Y-9952524D01*
X11955621Y-9971571D01*
X11965145Y-10009667D01*
X11965145Y-10057286D01*
X11955621Y-10095381D01*
X11946097Y-10114429D01*
X11936573Y-10123952D01*
X11917526Y-10133476D01*
X11898478Y-10133476D01*
X11879430Y-10123952D01*
X11869907Y-10114429D01*
X11860383Y-10095381D01*
X11850859Y-10057286D01*
X11850859Y-10009667D01*
X11860383Y-9971571D01*
X11869907Y-9952524D01*
X11879430Y-9943000D01*
X11898478Y-9933476D01*
X12050859Y-10114429D02*
X12060383Y-10123952D01*
X12050859Y-10133476D01*
X12041335Y-10123952D01*
X12050859Y-10114429D01*
X12050859Y-10133476D01*
X12174669Y-10019190D02*
X12155621Y-10009667D01*
X12146097Y-10000143D01*
X12136573Y-9981095D01*
X12136573Y-9971571D01*
X12146097Y-9952524D01*
X12155621Y-9943000D01*
X12174669Y-9933476D01*
X12212764Y-9933476D01*
X12231811Y-9943000D01*
X12241335Y-9952524D01*
X12250859Y-9971571D01*
X12250859Y-9981095D01*
X12241335Y-10000143D01*
X12231811Y-10009667D01*
X12212764Y-10019190D01*
X12174669Y-10019190D01*
X12155621Y-10028714D01*
X12146097Y-10038238D01*
X12136573Y-10057286D01*
X12136573Y-10095381D01*
X12146097Y-10114429D01*
X12155621Y-10123952D01*
X12174669Y-10133476D01*
X12212764Y-10133476D01*
X12231811Y-10123952D01*
X12241335Y-10114429D01*
X12250859Y-10095381D01*
X12250859Y-10057286D01*
X12241335Y-10038238D01*
X12231811Y-10028714D01*
X12212764Y-10019190D01*
X12346097Y-10133476D02*
X12384192Y-10133476D01*
X12403240Y-10123952D01*
X12412764Y-10114429D01*
X12431811Y-10085857D01*
X12441335Y-10047762D01*
X12441335Y-9971571D01*
X12431811Y-9952524D01*
X12422288Y-9943000D01*
X12403240Y-9933476D01*
X12365145Y-9933476D01*
X12346097Y-9943000D01*
X12336573Y-9952524D01*
X12327050Y-9971571D01*
X12327050Y-10019190D01*
X12336573Y-10038238D01*
X12346097Y-10047762D01*
X12365145Y-10057286D01*
X12403240Y-10057286D01*
X12422288Y-10047762D01*
X12431811Y-10038238D01*
X12441335Y-10019190D01*
X12565145Y-9933476D02*
X12584192Y-9933476D01*
X12603240Y-9943000D01*
X12612764Y-9952524D01*
X12622288Y-9971571D01*
X12631811Y-10009667D01*
X12631811Y-10057286D01*
X12622288Y-10095381D01*
X12612764Y-10114429D01*
X12603240Y-10123952D01*
X12584192Y-10133476D01*
X12565145Y-10133476D01*
X12546097Y-10123952D01*
X12536573Y-10114429D01*
X12527050Y-10095381D01*
X12517526Y-10057286D01*
X12517526Y-10009667D01*
X12527050Y-9971571D01*
X12536573Y-9952524D01*
X12546097Y-9943000D01*
X12565145Y-9933476D01*
X12717526Y-10133476D02*
X12717526Y-10000143D01*
X12717526Y-10019190D02*
X12727050Y-10009667D01*
X12746097Y-10000143D01*
X12774669Y-10000143D01*
X12793716Y-10009667D01*
X12803240Y-10028714D01*
X12803240Y-10133476D01*
X12803240Y-10028714D02*
X12812764Y-10009667D01*
X12831811Y-10000143D01*
X12860383Y-10000143D01*
X12879430Y-10009667D01*
X12888954Y-10028714D01*
X12888954Y-10133476D01*
X12984192Y-10133476D02*
X12984192Y-10000143D01*
X12984192Y-10019190D02*
X12993716Y-10009667D01*
X13012764Y-10000143D01*
X13041335Y-10000143D01*
X13060383Y-10009667D01*
X13069907Y-10028714D01*
X13069907Y-10133476D01*
X13069907Y-10028714D02*
X13079430Y-10009667D01*
X13098478Y-10000143D01*
X13127050Y-10000143D01*
X13146097Y-10009667D01*
X13155621Y-10028714D01*
X13155621Y-10133476D01*
X13546097Y-9923952D02*
X13374669Y-10181095D01*
X13803240Y-9933476D02*
X13822288Y-9933476D01*
X13841335Y-9943000D01*
X13850859Y-9952524D01*
X13860383Y-9971571D01*
X13869907Y-10009667D01*
X13869907Y-10057286D01*
X13860383Y-10095381D01*
X13850859Y-10114429D01*
X13841335Y-10123952D01*
X13822288Y-10133476D01*
X13803240Y-10133476D01*
X13784192Y-10123952D01*
X13774669Y-10114429D01*
X13765145Y-10095381D01*
X13755621Y-10057286D01*
X13755621Y-10009667D01*
X13765145Y-9971571D01*
X13774669Y-9952524D01*
X13784192Y-9943000D01*
X13803240Y-9933476D01*
X13955621Y-10114429D02*
X13965145Y-10123952D01*
X13955621Y-10133476D01*
X13946097Y-10123952D01*
X13955621Y-10114429D01*
X13955621Y-10133476D01*
X14088954Y-9933476D02*
X14108002Y-9933476D01*
X14127050Y-9943000D01*
X14136573Y-9952524D01*
X14146097Y-9971571D01*
X14155621Y-10009667D01*
X14155621Y-10057286D01*
X14146097Y-10095381D01*
X14136573Y-10114429D01*
X14127050Y-10123952D01*
X14108002Y-10133476D01*
X14088954Y-10133476D01*
X14069907Y-10123952D01*
X14060383Y-10114429D01*
X14050859Y-10095381D01*
X14041335Y-10057286D01*
X14041335Y-10009667D01*
X14050859Y-9971571D01*
X14060383Y-9952524D01*
X14069907Y-9943000D01*
X14088954Y-9933476D01*
X14222288Y-9933476D02*
X14346097Y-9933476D01*
X14279430Y-10009667D01*
X14308002Y-10009667D01*
X14327050Y-10019190D01*
X14336573Y-10028714D01*
X14346097Y-10047762D01*
X14346097Y-10095381D01*
X14336573Y-10114429D01*
X14327050Y-10123952D01*
X14308002Y-10133476D01*
X14250859Y-10133476D01*
X14231811Y-10123952D01*
X14222288Y-10114429D01*
X14527050Y-9933476D02*
X14431811Y-9933476D01*
X14422288Y-10028714D01*
X14431811Y-10019190D01*
X14450859Y-10009667D01*
X14498478Y-10009667D01*
X14517526Y-10019190D01*
X14527050Y-10028714D01*
X14536573Y-10047762D01*
X14536573Y-10095381D01*
X14527050Y-10114429D01*
X14517526Y-10123952D01*
X14498478Y-10133476D01*
X14450859Y-10133476D01*
X14431811Y-10123952D01*
X14422288Y-10114429D01*
X14660383Y-9933476D02*
X14679430Y-9933476D01*
X14698478Y-9943000D01*
X14708002Y-9952524D01*
X14717526Y-9971571D01*
X14727050Y-10009667D01*
X14727050Y-10057286D01*
X14717526Y-10095381D01*
X14708002Y-10114429D01*
X14698478Y-10123952D01*
X14679430Y-10133476D01*
X14660383Y-10133476D01*
X14641335Y-10123952D01*
X14631811Y-10114429D01*
X14622288Y-10095381D01*
X14612764Y-10057286D01*
X14612764Y-10009667D01*
X14622288Y-9971571D01*
X14631811Y-9952524D01*
X14641335Y-9943000D01*
X14660383Y-9933476D01*
X14803240Y-9933476D02*
X14803240Y-9971571D01*
X14879430Y-9933476D02*
X14879430Y-9971571D01*
X15174669Y-10209667D02*
X15165145Y-10200143D01*
X15146097Y-10171571D01*
X15136573Y-10152524D01*
X15127050Y-10123952D01*
X15117526Y-10076333D01*
X15117526Y-10038238D01*
X15127050Y-9990619D01*
X15136573Y-9962048D01*
X15146097Y-9943000D01*
X15165145Y-9914429D01*
X15174669Y-9904905D01*
X15279430Y-10019190D02*
X15260383Y-10009667D01*
X15250859Y-10000143D01*
X15241335Y-9981095D01*
X15241335Y-9971571D01*
X15250859Y-9952524D01*
X15260383Y-9943000D01*
X15279430Y-9933476D01*
X15317526Y-9933476D01*
X15336573Y-9943000D01*
X15346097Y-9952524D01*
X15355621Y-9971571D01*
X15355621Y-9981095D01*
X15346097Y-10000143D01*
X15336573Y-10009667D01*
X15317526Y-10019190D01*
X15279430Y-10019190D01*
X15260383Y-10028714D01*
X15250859Y-10038238D01*
X15241335Y-10057286D01*
X15241335Y-10095381D01*
X15250859Y-10114429D01*
X15260383Y-10123952D01*
X15279430Y-10133476D01*
X15317526Y-10133476D01*
X15336573Y-10123952D01*
X15346097Y-10114429D01*
X15355621Y-10095381D01*
X15355621Y-10057286D01*
X15346097Y-10038238D01*
X15336573Y-10028714D01*
X15317526Y-10019190D01*
X15593716Y-10133476D02*
X15593716Y-9933476D01*
X15679430Y-10133476D02*
X15679430Y-10028714D01*
X15669907Y-10009667D01*
X15650859Y-10000143D01*
X15622288Y-10000143D01*
X15603240Y-10009667D01*
X15593716Y-10019190D01*
X15803240Y-10133476D02*
X15784192Y-10123952D01*
X15774669Y-10114429D01*
X15765145Y-10095381D01*
X15765145Y-10038238D01*
X15774669Y-10019190D01*
X15784192Y-10009667D01*
X15803240Y-10000143D01*
X15831811Y-10000143D01*
X15850859Y-10009667D01*
X15860383Y-10019190D01*
X15869907Y-10038238D01*
X15869907Y-10095381D01*
X15860383Y-10114429D01*
X15850859Y-10123952D01*
X15831811Y-10133476D01*
X15803240Y-10133476D01*
X15984192Y-10133476D02*
X15965145Y-10123952D01*
X15955621Y-10104905D01*
X15955621Y-9933476D01*
X16136573Y-10123952D02*
X16117526Y-10133476D01*
X16079430Y-10133476D01*
X16060383Y-10123952D01*
X16050859Y-10104905D01*
X16050859Y-10028714D01*
X16060383Y-10009667D01*
X16079430Y-10000143D01*
X16117526Y-10000143D01*
X16136573Y-10009667D01*
X16146097Y-10028714D01*
X16146097Y-10047762D01*
X16050859Y-10066810D01*
X16222288Y-10123952D02*
X16241335Y-10133476D01*
X16279430Y-10133476D01*
X16298478Y-10123952D01*
X16308002Y-10104905D01*
X16308002Y-10095381D01*
X16298478Y-10076333D01*
X16279430Y-10066810D01*
X16250859Y-10066810D01*
X16231811Y-10057286D01*
X16222288Y-10038238D01*
X16222288Y-10028714D01*
X16231811Y-10009667D01*
X16250859Y-10000143D01*
X16279430Y-10000143D01*
X16298478Y-10009667D01*
X16374669Y-10209667D02*
X16384192Y-10200143D01*
X16403240Y-10171571D01*
X16412764Y-10152524D01*
X16422288Y-10123952D01*
X16431811Y-10076333D01*
X16431811Y-10038238D01*
X16422288Y-9990619D01*
X16412764Y-9962048D01*
X16403240Y-9943000D01*
X16384192Y-9914429D01*
X16374669Y-9904905D01*
D13*
X11602764Y-10307000D02*
G75*
G03*
X11602764Y-10307000I-78500J0D01*
G01*
D11*
X11965145Y-10397476D02*
X11850859Y-10397476D01*
X11908002Y-10397476D02*
X11908002Y-10197476D01*
X11888954Y-10226048D01*
X11869907Y-10245095D01*
X11850859Y-10254619D01*
X12050859Y-10378429D02*
X12060383Y-10387952D01*
X12050859Y-10397476D01*
X12041335Y-10387952D01*
X12050859Y-10378429D01*
X12050859Y-10397476D01*
X12241335Y-10197476D02*
X12146097Y-10197476D01*
X12136573Y-10292714D01*
X12146097Y-10283190D01*
X12165145Y-10273667D01*
X12212764Y-10273667D01*
X12231811Y-10283190D01*
X12241335Y-10292714D01*
X12250859Y-10311762D01*
X12250859Y-10359381D01*
X12241335Y-10378429D01*
X12231811Y-10387952D01*
X12212764Y-10397476D01*
X12165145Y-10397476D01*
X12146097Y-10387952D01*
X12136573Y-10378429D01*
X12317526Y-10197476D02*
X12450859Y-10197476D01*
X12365145Y-10397476D01*
X12565145Y-10197476D02*
X12584192Y-10197476D01*
X12603240Y-10207000D01*
X12612764Y-10216524D01*
X12622288Y-10235571D01*
X12631811Y-10273667D01*
X12631811Y-10321286D01*
X12622288Y-10359381D01*
X12612764Y-10378429D01*
X12603240Y-10387952D01*
X12584192Y-10397476D01*
X12565145Y-10397476D01*
X12546097Y-10387952D01*
X12536573Y-10378429D01*
X12527050Y-10359381D01*
X12517526Y-10321286D01*
X12517526Y-10273667D01*
X12527050Y-10235571D01*
X12536573Y-10216524D01*
X12546097Y-10207000D01*
X12565145Y-10197476D01*
X12717526Y-10397476D02*
X12717526Y-10264143D01*
X12717526Y-10283190D02*
X12727050Y-10273667D01*
X12746097Y-10264143D01*
X12774669Y-10264143D01*
X12793716Y-10273667D01*
X12803240Y-10292714D01*
X12803240Y-10397476D01*
X12803240Y-10292714D02*
X12812764Y-10273667D01*
X12831811Y-10264143D01*
X12860383Y-10264143D01*
X12879430Y-10273667D01*
X12888954Y-10292714D01*
X12888954Y-10397476D01*
X12984192Y-10397476D02*
X12984192Y-10264143D01*
X12984192Y-10283190D02*
X12993716Y-10273667D01*
X13012764Y-10264143D01*
X13041335Y-10264143D01*
X13060383Y-10273667D01*
X13069907Y-10292714D01*
X13069907Y-10397476D01*
X13069907Y-10292714D02*
X13079430Y-10273667D01*
X13098478Y-10264143D01*
X13127050Y-10264143D01*
X13146097Y-10273667D01*
X13155621Y-10292714D01*
X13155621Y-10397476D01*
X13546097Y-10187952D02*
X13374669Y-10445095D01*
X13803240Y-10197476D02*
X13822288Y-10197476D01*
X13841335Y-10207000D01*
X13850859Y-10216524D01*
X13860383Y-10235571D01*
X13869907Y-10273667D01*
X13869907Y-10321286D01*
X13860383Y-10359381D01*
X13850859Y-10378429D01*
X13841335Y-10387952D01*
X13822288Y-10397476D01*
X13803240Y-10397476D01*
X13784192Y-10387952D01*
X13774669Y-10378429D01*
X13765145Y-10359381D01*
X13755621Y-10321286D01*
X13755621Y-10273667D01*
X13765145Y-10235571D01*
X13774669Y-10216524D01*
X13784192Y-10207000D01*
X13803240Y-10197476D01*
X13955621Y-10378429D02*
X13965145Y-10387952D01*
X13955621Y-10397476D01*
X13946097Y-10387952D01*
X13955621Y-10378429D01*
X13955621Y-10397476D01*
X14088954Y-10197476D02*
X14108002Y-10197476D01*
X14127050Y-10207000D01*
X14136573Y-10216524D01*
X14146097Y-10235571D01*
X14155621Y-10273667D01*
X14155621Y-10321286D01*
X14146097Y-10359381D01*
X14136573Y-10378429D01*
X14127050Y-10387952D01*
X14108002Y-10397476D01*
X14088954Y-10397476D01*
X14069907Y-10387952D01*
X14060383Y-10378429D01*
X14050859Y-10359381D01*
X14041335Y-10321286D01*
X14041335Y-10273667D01*
X14050859Y-10235571D01*
X14060383Y-10216524D01*
X14069907Y-10207000D01*
X14088954Y-10197476D01*
X14327050Y-10197476D02*
X14288954Y-10197476D01*
X14269907Y-10207000D01*
X14260383Y-10216524D01*
X14241335Y-10245095D01*
X14231811Y-10283190D01*
X14231811Y-10359381D01*
X14241335Y-10378429D01*
X14250859Y-10387952D01*
X14269907Y-10397476D01*
X14308002Y-10397476D01*
X14327050Y-10387952D01*
X14336573Y-10378429D01*
X14346097Y-10359381D01*
X14346097Y-10311762D01*
X14336573Y-10292714D01*
X14327050Y-10283190D01*
X14308002Y-10273667D01*
X14269907Y-10273667D01*
X14250859Y-10283190D01*
X14241335Y-10292714D01*
X14231811Y-10311762D01*
X14536573Y-10397476D02*
X14422288Y-10397476D01*
X14479430Y-10397476D02*
X14479430Y-10197476D01*
X14460383Y-10226048D01*
X14441335Y-10245095D01*
X14422288Y-10254619D01*
X14650859Y-10283190D02*
X14631811Y-10273667D01*
X14622288Y-10264143D01*
X14612764Y-10245095D01*
X14612764Y-10235571D01*
X14622288Y-10216524D01*
X14631811Y-10207000D01*
X14650859Y-10197476D01*
X14688954Y-10197476D01*
X14708002Y-10207000D01*
X14717526Y-10216524D01*
X14727050Y-10235571D01*
X14727050Y-10245095D01*
X14717526Y-10264143D01*
X14708002Y-10273667D01*
X14688954Y-10283190D01*
X14650859Y-10283190D01*
X14631811Y-10292714D01*
X14622288Y-10302238D01*
X14612764Y-10321286D01*
X14612764Y-10359381D01*
X14622288Y-10378429D01*
X14631811Y-10387952D01*
X14650859Y-10397476D01*
X14688954Y-10397476D01*
X14708002Y-10387952D01*
X14717526Y-10378429D01*
X14727050Y-10359381D01*
X14727050Y-10321286D01*
X14717526Y-10302238D01*
X14708002Y-10292714D01*
X14688954Y-10283190D01*
X14803240Y-10197476D02*
X14803240Y-10235571D01*
X14879430Y-10197476D02*
X14879430Y-10235571D01*
X15174669Y-10473667D02*
X15165145Y-10464143D01*
X15146097Y-10435571D01*
X15136573Y-10416524D01*
X15127050Y-10387952D01*
X15117526Y-10340333D01*
X15117526Y-10302238D01*
X15127050Y-10254619D01*
X15136573Y-10226048D01*
X15146097Y-10207000D01*
X15165145Y-10178429D01*
X15174669Y-10168905D01*
X15241335Y-10216524D02*
X15250859Y-10207000D01*
X15269907Y-10197476D01*
X15317526Y-10197476D01*
X15336573Y-10207000D01*
X15346097Y-10216524D01*
X15355621Y-10235571D01*
X15355621Y-10254619D01*
X15346097Y-10283190D01*
X15231811Y-10397476D01*
X15355621Y-10397476D01*
X15593716Y-10397476D02*
X15593716Y-10197476D01*
X15679430Y-10397476D02*
X15679430Y-10292714D01*
X15669907Y-10273667D01*
X15650859Y-10264143D01*
X15622288Y-10264143D01*
X15603240Y-10273667D01*
X15593716Y-10283190D01*
X15803240Y-10397476D02*
X15784192Y-10387952D01*
X15774669Y-10378429D01*
X15765145Y-10359381D01*
X15765145Y-10302238D01*
X15774669Y-10283190D01*
X15784192Y-10273667D01*
X15803240Y-10264143D01*
X15831811Y-10264143D01*
X15850859Y-10273667D01*
X15860383Y-10283190D01*
X15869907Y-10302238D01*
X15869907Y-10359381D01*
X15860383Y-10378429D01*
X15850859Y-10387952D01*
X15831811Y-10397476D01*
X15803240Y-10397476D01*
X15984192Y-10397476D02*
X15965145Y-10387952D01*
X15955621Y-10368905D01*
X15955621Y-10197476D01*
X16136573Y-10387952D02*
X16117526Y-10397476D01*
X16079430Y-10397476D01*
X16060383Y-10387952D01*
X16050859Y-10368905D01*
X16050859Y-10292714D01*
X16060383Y-10273667D01*
X16079430Y-10264143D01*
X16117526Y-10264143D01*
X16136573Y-10273667D01*
X16146097Y-10292714D01*
X16146097Y-10311762D01*
X16050859Y-10330810D01*
X16222288Y-10387952D02*
X16241335Y-10397476D01*
X16279430Y-10397476D01*
X16298478Y-10387952D01*
X16308002Y-10368905D01*
X16308002Y-10359381D01*
X16298478Y-10340333D01*
X16279430Y-10330810D01*
X16250859Y-10330810D01*
X16231811Y-10321286D01*
X16222288Y-10302238D01*
X16222288Y-10292714D01*
X16231811Y-10273667D01*
X16250859Y-10264143D01*
X16279430Y-10264143D01*
X16298478Y-10273667D01*
X16374669Y-10473667D02*
X16384192Y-10464143D01*
X16403240Y-10435571D01*
X16412764Y-10416524D01*
X16422288Y-10387952D01*
X16431811Y-10340333D01*
X16431811Y-10302238D01*
X16422288Y-10254619D01*
X16412764Y-10226048D01*
X16403240Y-10207000D01*
X16384192Y-10178429D01*
X16374669Y-10168905D01*
D14*
X11512764Y-10494000D02*
X11512764Y-10674000D01*
X11422764Y-10584000D02*
X11602764Y-10584000D01*
D11*
X11965145Y-10674476D02*
X11850859Y-10674476D01*
X11908002Y-10674476D02*
X11908002Y-10474476D01*
X11888954Y-10503048D01*
X11869907Y-10522095D01*
X11850859Y-10531619D01*
X12050859Y-10655429D02*
X12060383Y-10664952D01*
X12050859Y-10674476D01*
X12041335Y-10664952D01*
X12050859Y-10655429D01*
X12050859Y-10674476D01*
X12174669Y-10560190D02*
X12155621Y-10550667D01*
X12146097Y-10541143D01*
X12136573Y-10522095D01*
X12136573Y-10512571D01*
X12146097Y-10493524D01*
X12155621Y-10484000D01*
X12174669Y-10474476D01*
X12212764Y-10474476D01*
X12231811Y-10484000D01*
X12241335Y-10493524D01*
X12250859Y-10512571D01*
X12250859Y-10522095D01*
X12241335Y-10541143D01*
X12231811Y-10550667D01*
X12212764Y-10560190D01*
X12174669Y-10560190D01*
X12155621Y-10569714D01*
X12146097Y-10579238D01*
X12136573Y-10598286D01*
X12136573Y-10636381D01*
X12146097Y-10655429D01*
X12155621Y-10664952D01*
X12174669Y-10674476D01*
X12212764Y-10674476D01*
X12231811Y-10664952D01*
X12241335Y-10655429D01*
X12250859Y-10636381D01*
X12250859Y-10598286D01*
X12241335Y-10579238D01*
X12231811Y-10569714D01*
X12212764Y-10560190D01*
X12374669Y-10474476D02*
X12393716Y-10474476D01*
X12412764Y-10484000D01*
X12422288Y-10493524D01*
X12431811Y-10512571D01*
X12441335Y-10550667D01*
X12441335Y-10598286D01*
X12431811Y-10636381D01*
X12422288Y-10655429D01*
X12412764Y-10664952D01*
X12393716Y-10674476D01*
X12374669Y-10674476D01*
X12355621Y-10664952D01*
X12346097Y-10655429D01*
X12336573Y-10636381D01*
X12327050Y-10598286D01*
X12327050Y-10550667D01*
X12336573Y-10512571D01*
X12346097Y-10493524D01*
X12355621Y-10484000D01*
X12374669Y-10474476D01*
X12565145Y-10474476D02*
X12584192Y-10474476D01*
X12603240Y-10484000D01*
X12612764Y-10493524D01*
X12622288Y-10512571D01*
X12631811Y-10550667D01*
X12631811Y-10598286D01*
X12622288Y-10636381D01*
X12612764Y-10655429D01*
X12603240Y-10664952D01*
X12584192Y-10674476D01*
X12565145Y-10674476D01*
X12546097Y-10664952D01*
X12536573Y-10655429D01*
X12527050Y-10636381D01*
X12517526Y-10598286D01*
X12517526Y-10550667D01*
X12527050Y-10512571D01*
X12536573Y-10493524D01*
X12546097Y-10484000D01*
X12565145Y-10474476D01*
X12717526Y-10674476D02*
X12717526Y-10541143D01*
X12717526Y-10560190D02*
X12727050Y-10550667D01*
X12746097Y-10541143D01*
X12774669Y-10541143D01*
X12793716Y-10550667D01*
X12803240Y-10569714D01*
X12803240Y-10674476D01*
X12803240Y-10569714D02*
X12812764Y-10550667D01*
X12831811Y-10541143D01*
X12860383Y-10541143D01*
X12879430Y-10550667D01*
X12888954Y-10569714D01*
X12888954Y-10674476D01*
X12984192Y-10674476D02*
X12984192Y-10541143D01*
X12984192Y-10560190D02*
X12993716Y-10550667D01*
X13012764Y-10541143D01*
X13041335Y-10541143D01*
X13060383Y-10550667D01*
X13069907Y-10569714D01*
X13069907Y-10674476D01*
X13069907Y-10569714D02*
X13079430Y-10550667D01*
X13098478Y-10541143D01*
X13127050Y-10541143D01*
X13146097Y-10550667D01*
X13155621Y-10569714D01*
X13155621Y-10674476D01*
X13546097Y-10464952D02*
X13374669Y-10722095D01*
X13803240Y-10474476D02*
X13822288Y-10474476D01*
X13841335Y-10484000D01*
X13850859Y-10493524D01*
X13860383Y-10512571D01*
X13869907Y-10550667D01*
X13869907Y-10598286D01*
X13860383Y-10636381D01*
X13850859Y-10655429D01*
X13841335Y-10664952D01*
X13822288Y-10674476D01*
X13803240Y-10674476D01*
X13784192Y-10664952D01*
X13774669Y-10655429D01*
X13765145Y-10636381D01*
X13755621Y-10598286D01*
X13755621Y-10550667D01*
X13765145Y-10512571D01*
X13774669Y-10493524D01*
X13784192Y-10484000D01*
X13803240Y-10474476D01*
X13955621Y-10655429D02*
X13965145Y-10664952D01*
X13955621Y-10674476D01*
X13946097Y-10664952D01*
X13955621Y-10655429D01*
X13955621Y-10674476D01*
X14088954Y-10474476D02*
X14108002Y-10474476D01*
X14127050Y-10484000D01*
X14136573Y-10493524D01*
X14146097Y-10512571D01*
X14155621Y-10550667D01*
X14155621Y-10598286D01*
X14146097Y-10636381D01*
X14136573Y-10655429D01*
X14127050Y-10664952D01*
X14108002Y-10674476D01*
X14088954Y-10674476D01*
X14069907Y-10664952D01*
X14060383Y-10655429D01*
X14050859Y-10636381D01*
X14041335Y-10598286D01*
X14041335Y-10550667D01*
X14050859Y-10512571D01*
X14060383Y-10493524D01*
X14069907Y-10484000D01*
X14088954Y-10474476D01*
X14222288Y-10474476D02*
X14355621Y-10474476D01*
X14269907Y-10674476D01*
X14469907Y-10474476D02*
X14488954Y-10474476D01*
X14508002Y-10484000D01*
X14517526Y-10493524D01*
X14527050Y-10512571D01*
X14536573Y-10550667D01*
X14536573Y-10598286D01*
X14527050Y-10636381D01*
X14517526Y-10655429D01*
X14508002Y-10664952D01*
X14488954Y-10674476D01*
X14469907Y-10674476D01*
X14450859Y-10664952D01*
X14441335Y-10655429D01*
X14431811Y-10636381D01*
X14422288Y-10598286D01*
X14422288Y-10550667D01*
X14431811Y-10512571D01*
X14441335Y-10493524D01*
X14450859Y-10484000D01*
X14469907Y-10474476D01*
X14631811Y-10674476D02*
X14669907Y-10674476D01*
X14688954Y-10664952D01*
X14698478Y-10655429D01*
X14717526Y-10626857D01*
X14727050Y-10588762D01*
X14727050Y-10512571D01*
X14717526Y-10493524D01*
X14708002Y-10484000D01*
X14688954Y-10474476D01*
X14650859Y-10474476D01*
X14631811Y-10484000D01*
X14622288Y-10493524D01*
X14612764Y-10512571D01*
X14612764Y-10560190D01*
X14622288Y-10579238D01*
X14631811Y-10588762D01*
X14650859Y-10598286D01*
X14688954Y-10598286D01*
X14708002Y-10588762D01*
X14717526Y-10579238D01*
X14727050Y-10560190D01*
X14803240Y-10474476D02*
X14803240Y-10512571D01*
X14879430Y-10474476D02*
X14879430Y-10512571D01*
X15174669Y-10750667D02*
X15165145Y-10741143D01*
X15146097Y-10712571D01*
X15136573Y-10693524D01*
X15127050Y-10664952D01*
X15117526Y-10617333D01*
X15117526Y-10579238D01*
X15127050Y-10531619D01*
X15136573Y-10503048D01*
X15146097Y-10484000D01*
X15165145Y-10455429D01*
X15174669Y-10445905D01*
X15355621Y-10674476D02*
X15241335Y-10674476D01*
X15298478Y-10674476D02*
X15298478Y-10474476D01*
X15279430Y-10503048D01*
X15260383Y-10522095D01*
X15241335Y-10531619D01*
X15479430Y-10474476D02*
X15498478Y-10474476D01*
X15517526Y-10484000D01*
X15527050Y-10493524D01*
X15536573Y-10512571D01*
X15546097Y-10550667D01*
X15546097Y-10598286D01*
X15536573Y-10636381D01*
X15527050Y-10655429D01*
X15517526Y-10664952D01*
X15498478Y-10674476D01*
X15479430Y-10674476D01*
X15460383Y-10664952D01*
X15450859Y-10655429D01*
X15441335Y-10636381D01*
X15431811Y-10598286D01*
X15431811Y-10550667D01*
X15441335Y-10512571D01*
X15450859Y-10493524D01*
X15460383Y-10484000D01*
X15479430Y-10474476D01*
X15784192Y-10674476D02*
X15784192Y-10474476D01*
X15869907Y-10674476D02*
X15869907Y-10569714D01*
X15860383Y-10550667D01*
X15841335Y-10541143D01*
X15812764Y-10541143D01*
X15793716Y-10550667D01*
X15784192Y-10560190D01*
X15993716Y-10674476D02*
X15974669Y-10664952D01*
X15965145Y-10655429D01*
X15955621Y-10636381D01*
X15955621Y-10579238D01*
X15965145Y-10560190D01*
X15974669Y-10550667D01*
X15993716Y-10541143D01*
X16022288Y-10541143D01*
X16041335Y-10550667D01*
X16050859Y-10560190D01*
X16060383Y-10579238D01*
X16060383Y-10636381D01*
X16050859Y-10655429D01*
X16041335Y-10664952D01*
X16022288Y-10674476D01*
X15993716Y-10674476D01*
X16174669Y-10674476D02*
X16155621Y-10664952D01*
X16146097Y-10645905D01*
X16146097Y-10474476D01*
X16327050Y-10664952D02*
X16308002Y-10674476D01*
X16269907Y-10674476D01*
X16250859Y-10664952D01*
X16241335Y-10645905D01*
X16241335Y-10569714D01*
X16250859Y-10550667D01*
X16269907Y-10541143D01*
X16308002Y-10541143D01*
X16327050Y-10550667D01*
X16336573Y-10569714D01*
X16336573Y-10588762D01*
X16241335Y-10607810D01*
X16412764Y-10664952D02*
X16431811Y-10674476D01*
X16469907Y-10674476D01*
X16488954Y-10664952D01*
X16498478Y-10645905D01*
X16498478Y-10636381D01*
X16488954Y-10617333D01*
X16469907Y-10607810D01*
X16441335Y-10607810D01*
X16422288Y-10598286D01*
X16412764Y-10579238D01*
X16412764Y-10569714D01*
X16422288Y-10550667D01*
X16441335Y-10541143D01*
X16469907Y-10541143D01*
X16488954Y-10550667D01*
X16565145Y-10750667D02*
X16574669Y-10741143D01*
X16593716Y-10712571D01*
X16603240Y-10693524D01*
X16612764Y-10664952D01*
X16622288Y-10617333D01*
X16622288Y-10579238D01*
X16612764Y-10531619D01*
X16603240Y-10503048D01*
X16593716Y-10484000D01*
X16574669Y-10455429D01*
X16565145Y-10445905D01*
M02*
