%TF.GenerationSoftware,KiCad,Pcbnew,(6.0.8)*%
%TF.CreationDate,2023-04-02T10:00:46-07:00*%
%TF.ProjectId,FCP_steering_splitter,4643505f-7374-4656-9572-696e675f7370,rev?*%
%TF.SameCoordinates,Original*%
%TF.FileFunction,Legend,Bot*%
%TF.FilePolarity,Positive*%
%FSLAX46Y46*%
G04 Gerber Fmt 4.6, Leading zero omitted, Abs format (unit mm)*
G04 Created by KiCad (PCBNEW (6.0.8)) date 2023-04-02 10:00:46*
%MOMM*%
%LPD*%
G01*
G04 APERTURE LIST*
G04 Aperture macros list*
%AMRoundRect*
0 Rectangle with rounded corners*
0 $1 Rounding radius*
0 $2 $3 $4 $5 $6 $7 $8 $9 X,Y pos of 4 corners*
0 Add a 4 corners polygon primitive as box body*
4,1,4,$2,$3,$4,$5,$6,$7,$8,$9,$2,$3,0*
0 Add four circle primitives for the rounded corners*
1,1,$1+$1,$2,$3*
1,1,$1+$1,$4,$5*
1,1,$1+$1,$6,$7*
1,1,$1+$1,$8,$9*
0 Add four rect primitives between the rounded corners*
20,1,$1+$1,$2,$3,$4,$5,0*
20,1,$1+$1,$4,$5,$6,$7,0*
20,1,$1+$1,$6,$7,$8,$9,0*
20,1,$1+$1,$8,$9,$2,$3,0*%
G04 Aperture macros list end*
%ADD10C,0.300000*%
%ADD11C,0.350000*%
%ADD12C,0.200000*%
%ADD13C,3.000000*%
%ADD14RoundRect,0.250001X1.099999X1.599999X-1.099999X1.599999X-1.099999X-1.599999X1.099999X-1.599999X0*%
%ADD15O,2.700000X3.700000*%
%ADD16C,3.250000*%
%ADD17R,1.500000X1.500000*%
%ADD18C,1.500000*%
%ADD19C,2.300000*%
G04 APERTURE END LIST*
D10*
X159931428Y-60138571D02*
X159931428Y-61352857D01*
X159860000Y-61495714D01*
X159788571Y-61567142D01*
X159645714Y-61638571D01*
X159360000Y-61638571D01*
X159217142Y-61567142D01*
X159145714Y-61495714D01*
X159074285Y-61352857D01*
X159074285Y-60138571D01*
X157860000Y-60852857D02*
X157645714Y-60924285D01*
X157574285Y-60995714D01*
X157502857Y-61138571D01*
X157502857Y-61352857D01*
X157574285Y-61495714D01*
X157645714Y-61567142D01*
X157788571Y-61638571D01*
X158360000Y-61638571D01*
X158360000Y-60138571D01*
X157860000Y-60138571D01*
X157717142Y-60210000D01*
X157645714Y-60281428D01*
X157574285Y-60424285D01*
X157574285Y-60567142D01*
X157645714Y-60710000D01*
X157717142Y-60781428D01*
X157860000Y-60852857D01*
X158360000Y-60852857D01*
X156002857Y-61495714D02*
X156074285Y-61567142D01*
X156288571Y-61638571D01*
X156431428Y-61638571D01*
X156645714Y-61567142D01*
X156788571Y-61424285D01*
X156860000Y-61281428D01*
X156931428Y-60995714D01*
X156931428Y-60781428D01*
X156860000Y-60495714D01*
X156788571Y-60352857D01*
X156645714Y-60210000D01*
X156431428Y-60138571D01*
X156288571Y-60138571D01*
X156074285Y-60210000D01*
X156002857Y-60281428D01*
X154288571Y-61567142D02*
X154074285Y-61638571D01*
X153717142Y-61638571D01*
X153574285Y-61567142D01*
X153502857Y-61495714D01*
X153431428Y-61352857D01*
X153431428Y-61210000D01*
X153502857Y-61067142D01*
X153574285Y-60995714D01*
X153717142Y-60924285D01*
X154002857Y-60852857D01*
X154145714Y-60781428D01*
X154217142Y-60710000D01*
X154288571Y-60567142D01*
X154288571Y-60424285D01*
X154217142Y-60281428D01*
X154145714Y-60210000D01*
X154002857Y-60138571D01*
X153645714Y-60138571D01*
X153431428Y-60210000D01*
X152145714Y-60638571D02*
X152145714Y-61638571D01*
X152788571Y-60638571D02*
X152788571Y-61424285D01*
X152717142Y-61567142D01*
X152574285Y-61638571D01*
X152360000Y-61638571D01*
X152217142Y-61567142D01*
X152145714Y-61495714D01*
X151431428Y-60638571D02*
X151431428Y-62138571D01*
X151431428Y-60710000D02*
X151288571Y-60638571D01*
X151002857Y-60638571D01*
X150860000Y-60710000D01*
X150788571Y-60781428D01*
X150717142Y-60924285D01*
X150717142Y-61352857D01*
X150788571Y-61495714D01*
X150860000Y-61567142D01*
X151002857Y-61638571D01*
X151288571Y-61638571D01*
X151431428Y-61567142D01*
X149502857Y-61567142D02*
X149645714Y-61638571D01*
X149931428Y-61638571D01*
X150074285Y-61567142D01*
X150145714Y-61424285D01*
X150145714Y-60852857D01*
X150074285Y-60710000D01*
X149931428Y-60638571D01*
X149645714Y-60638571D01*
X149502857Y-60710000D01*
X149431428Y-60852857D01*
X149431428Y-60995714D01*
X150145714Y-61138571D01*
X148788571Y-61638571D02*
X148788571Y-60638571D01*
X148788571Y-60924285D02*
X148717142Y-60781428D01*
X148645714Y-60710000D01*
X148502857Y-60638571D01*
X148360000Y-60638571D01*
X147860000Y-61638571D02*
X147860000Y-60638571D01*
X147860000Y-60781428D02*
X147788571Y-60710000D01*
X147645714Y-60638571D01*
X147431428Y-60638571D01*
X147288571Y-60710000D01*
X147217142Y-60852857D01*
X147217142Y-61638571D01*
X147217142Y-60852857D02*
X147145714Y-60710000D01*
X147002857Y-60638571D01*
X146788571Y-60638571D01*
X146645714Y-60710000D01*
X146574285Y-60852857D01*
X146574285Y-61638571D01*
X145860000Y-61638571D02*
X145860000Y-60638571D01*
X145860000Y-60138571D02*
X145931428Y-60210000D01*
X145860000Y-60281428D01*
X145788571Y-60210000D01*
X145860000Y-60138571D01*
X145860000Y-60281428D01*
X144931428Y-61638571D02*
X145074285Y-61567142D01*
X145145714Y-61424285D01*
X145145714Y-60138571D01*
X143788571Y-61567142D02*
X143931428Y-61638571D01*
X144217142Y-61638571D01*
X144360000Y-61567142D01*
X144431428Y-61424285D01*
X144431428Y-60852857D01*
X144360000Y-60710000D01*
X144217142Y-60638571D01*
X143931428Y-60638571D01*
X143788571Y-60710000D01*
X143717142Y-60852857D01*
X143717142Y-60995714D01*
X144431428Y-61138571D01*
X142431428Y-61638571D02*
X142431428Y-60852857D01*
X142502857Y-60710000D01*
X142645714Y-60638571D01*
X142931428Y-60638571D01*
X143074285Y-60710000D01*
X142431428Y-61567142D02*
X142574285Y-61638571D01*
X142931428Y-61638571D01*
X143074285Y-61567142D01*
X143145714Y-61424285D01*
X143145714Y-61281428D01*
X143074285Y-61138571D01*
X142931428Y-61067142D01*
X142574285Y-61067142D01*
X142431428Y-60995714D01*
X141074285Y-60638571D02*
X141074285Y-61852857D01*
X141145714Y-61995714D01*
X141217142Y-62067142D01*
X141360000Y-62138571D01*
X141574285Y-62138571D01*
X141717142Y-62067142D01*
X141074285Y-61567142D02*
X141217142Y-61638571D01*
X141502857Y-61638571D01*
X141645714Y-61567142D01*
X141717142Y-61495714D01*
X141788571Y-61352857D01*
X141788571Y-60924285D01*
X141717142Y-60781428D01*
X141645714Y-60710000D01*
X141502857Y-60638571D01*
X141217142Y-60638571D01*
X141074285Y-60710000D01*
X139788571Y-61567142D02*
X139931428Y-61638571D01*
X140217142Y-61638571D01*
X140360000Y-61567142D01*
X140431428Y-61424285D01*
X140431428Y-60852857D01*
X140360000Y-60710000D01*
X140217142Y-60638571D01*
X139931428Y-60638571D01*
X139788571Y-60710000D01*
X139717142Y-60852857D01*
X139717142Y-60995714D01*
X140431428Y-61138571D01*
D11*
X171645714Y-55701428D02*
X172479047Y-55701428D01*
X172479047Y-57010952D02*
X172479047Y-54510952D01*
X171288571Y-54510952D01*
X168907619Y-56772857D02*
X169026666Y-56891904D01*
X169383809Y-57010952D01*
X169621904Y-57010952D01*
X169979047Y-56891904D01*
X170217142Y-56653809D01*
X170336190Y-56415714D01*
X170455238Y-55939523D01*
X170455238Y-55582380D01*
X170336190Y-55106190D01*
X170217142Y-54868095D01*
X169979047Y-54630000D01*
X169621904Y-54510952D01*
X169383809Y-54510952D01*
X169026666Y-54630000D01*
X168907619Y-54749047D01*
X167836190Y-57010952D02*
X167836190Y-54510952D01*
X166883809Y-54510952D01*
X166645714Y-54630000D01*
X166526666Y-54749047D01*
X166407619Y-54987142D01*
X166407619Y-55344285D01*
X166526666Y-55582380D01*
X166645714Y-55701428D01*
X166883809Y-55820476D01*
X167836190Y-55820476D01*
X163550476Y-56296666D02*
X162360000Y-56296666D01*
X163788571Y-57010952D02*
X162955238Y-54510952D01*
X162121904Y-57010952D01*
X160217142Y-56891904D02*
X160455238Y-57010952D01*
X160931428Y-57010952D01*
X161169523Y-56891904D01*
X161288571Y-56772857D01*
X161407619Y-56534761D01*
X161407619Y-55820476D01*
X161288571Y-55582380D01*
X161169523Y-55463333D01*
X160931428Y-55344285D01*
X160455238Y-55344285D01*
X160217142Y-55463333D01*
X158074285Y-56891904D02*
X158312380Y-57010952D01*
X158788571Y-57010952D01*
X159026666Y-56891904D01*
X159145714Y-56772857D01*
X159264761Y-56534761D01*
X159264761Y-55820476D01*
X159145714Y-55582380D01*
X159026666Y-55463333D01*
X158788571Y-55344285D01*
X158312380Y-55344285D01*
X158074285Y-55463333D01*
X156050476Y-56891904D02*
X156288571Y-57010952D01*
X156764761Y-57010952D01*
X157002857Y-56891904D01*
X157121904Y-56653809D01*
X157121904Y-55701428D01*
X157002857Y-55463333D01*
X156764761Y-55344285D01*
X156288571Y-55344285D01*
X156050476Y-55463333D01*
X155931428Y-55701428D01*
X155931428Y-55939523D01*
X157121904Y-56177619D01*
X154979047Y-56891904D02*
X154740952Y-57010952D01*
X154264761Y-57010952D01*
X154026666Y-56891904D01*
X153907619Y-56653809D01*
X153907619Y-56534761D01*
X154026666Y-56296666D01*
X154264761Y-56177619D01*
X154621904Y-56177619D01*
X154860000Y-56058571D01*
X154979047Y-55820476D01*
X154979047Y-55701428D01*
X154860000Y-55463333D01*
X154621904Y-55344285D01*
X154264761Y-55344285D01*
X154026666Y-55463333D01*
X152955238Y-56891904D02*
X152717142Y-57010952D01*
X152240952Y-57010952D01*
X152002857Y-56891904D01*
X151883809Y-56653809D01*
X151883809Y-56534761D01*
X152002857Y-56296666D01*
X152240952Y-56177619D01*
X152598095Y-56177619D01*
X152836190Y-56058571D01*
X152955238Y-55820476D01*
X152955238Y-55701428D01*
X152836190Y-55463333D01*
X152598095Y-55344285D01*
X152240952Y-55344285D01*
X152002857Y-55463333D01*
X150455238Y-57010952D02*
X150693333Y-56891904D01*
X150812380Y-56772857D01*
X150931428Y-56534761D01*
X150931428Y-55820476D01*
X150812380Y-55582380D01*
X150693333Y-55463333D01*
X150455238Y-55344285D01*
X150098095Y-55344285D01*
X149860000Y-55463333D01*
X149740952Y-55582380D01*
X149621904Y-55820476D01*
X149621904Y-56534761D01*
X149740952Y-56772857D01*
X149860000Y-56891904D01*
X150098095Y-57010952D01*
X150455238Y-57010952D01*
X148550476Y-57010952D02*
X148550476Y-55344285D01*
X148550476Y-55820476D02*
X148431428Y-55582380D01*
X148312380Y-55463333D01*
X148074285Y-55344285D01*
X147836190Y-55344285D01*
X147002857Y-57010952D02*
X147002857Y-55344285D01*
X147002857Y-54510952D02*
X147121904Y-54630000D01*
X147002857Y-54749047D01*
X146883809Y-54630000D01*
X147002857Y-54510952D01*
X147002857Y-54749047D01*
X144860000Y-56891904D02*
X145098095Y-57010952D01*
X145574285Y-57010952D01*
X145812380Y-56891904D01*
X145931428Y-56653809D01*
X145931428Y-55701428D01*
X145812380Y-55463333D01*
X145574285Y-55344285D01*
X145098095Y-55344285D01*
X144860000Y-55463333D01*
X144740952Y-55701428D01*
X144740952Y-55939523D01*
X145931428Y-56177619D01*
X143788571Y-56891904D02*
X143550476Y-57010952D01*
X143074285Y-57010952D01*
X142836190Y-56891904D01*
X142717142Y-56653809D01*
X142717142Y-56534761D01*
X142836190Y-56296666D01*
X143074285Y-56177619D01*
X143431428Y-56177619D01*
X143669523Y-56058571D01*
X143788571Y-55820476D01*
X143788571Y-55701428D01*
X143669523Y-55463333D01*
X143431428Y-55344285D01*
X143074285Y-55344285D01*
X142836190Y-55463333D01*
X139860000Y-56891904D02*
X139502857Y-57010952D01*
X138907619Y-57010952D01*
X138669523Y-56891904D01*
X138550476Y-56772857D01*
X138431428Y-56534761D01*
X138431428Y-56296666D01*
X138550476Y-56058571D01*
X138669523Y-55939523D01*
X138907619Y-55820476D01*
X139383809Y-55701428D01*
X139621904Y-55582380D01*
X139740952Y-55463333D01*
X139860000Y-55225238D01*
X139860000Y-54987142D01*
X139740952Y-54749047D01*
X139621904Y-54630000D01*
X139383809Y-54510952D01*
X138788571Y-54510952D01*
X138431428Y-54630000D01*
X137360000Y-55344285D02*
X137360000Y-57844285D01*
X137360000Y-55463333D02*
X137121904Y-55344285D01*
X136645714Y-55344285D01*
X136407619Y-55463333D01*
X136288571Y-55582380D01*
X136169523Y-55820476D01*
X136169523Y-56534761D01*
X136288571Y-56772857D01*
X136407619Y-56891904D01*
X136645714Y-57010952D01*
X137121904Y-57010952D01*
X137360000Y-56891904D01*
X134740952Y-57010952D02*
X134979047Y-56891904D01*
X135098095Y-56653809D01*
X135098095Y-54510952D01*
X133788571Y-57010952D02*
X133788571Y-55344285D01*
X133788571Y-54510952D02*
X133907619Y-54630000D01*
X133788571Y-54749047D01*
X133669523Y-54630000D01*
X133788571Y-54510952D01*
X133788571Y-54749047D01*
X132955238Y-55344285D02*
X132002857Y-55344285D01*
X132598095Y-54510952D02*
X132598095Y-56653809D01*
X132479047Y-56891904D01*
X132240952Y-57010952D01*
X132002857Y-57010952D01*
X131526666Y-55344285D02*
X130574285Y-55344285D01*
X131169523Y-54510952D02*
X131169523Y-56653809D01*
X131050476Y-56891904D01*
X130812380Y-57010952D01*
X130574285Y-57010952D01*
X128788571Y-56891904D02*
X129026666Y-57010952D01*
X129502857Y-57010952D01*
X129740952Y-56891904D01*
X129860000Y-56653809D01*
X129860000Y-55701428D01*
X129740952Y-55463333D01*
X129502857Y-55344285D01*
X129026666Y-55344285D01*
X128788571Y-55463333D01*
X128669523Y-55701428D01*
X128669523Y-55939523D01*
X129860000Y-56177619D01*
X127598095Y-57010952D02*
X127598095Y-55344285D01*
X127598095Y-55820476D02*
X127479047Y-55582380D01*
X127360000Y-55463333D01*
X127121904Y-55344285D01*
X126883809Y-55344285D01*
D12*
X178493333Y-88133333D02*
X177560000Y-88133333D01*
X178493333Y-89533333D01*
X177560000Y-89533333D01*
X176426666Y-89533333D02*
X176426666Y-88800000D01*
X176493333Y-88666666D01*
X176626666Y-88600000D01*
X176893333Y-88600000D01*
X177026666Y-88666666D01*
X176426666Y-89466666D02*
X176560000Y-89533333D01*
X176893333Y-89533333D01*
X177026666Y-89466666D01*
X177093333Y-89333333D01*
X177093333Y-89200000D01*
X177026666Y-89066666D01*
X176893333Y-89000000D01*
X176560000Y-89000000D01*
X176426666Y-88933333D01*
X175893333Y-88600000D02*
X175560000Y-89533333D01*
X175226666Y-88600000D01*
X174093333Y-89533333D02*
X174093333Y-88800000D01*
X174160000Y-88666666D01*
X174293333Y-88600000D01*
X174560000Y-88600000D01*
X174693333Y-88666666D01*
X174093333Y-89466666D02*
X174226666Y-89533333D01*
X174560000Y-89533333D01*
X174693333Y-89466666D01*
X174760000Y-89333333D01*
X174760000Y-89200000D01*
X174693333Y-89066666D01*
X174560000Y-89000000D01*
X174226666Y-89000000D01*
X174093333Y-88933333D01*
X173426666Y-89533333D02*
X173426666Y-88600000D01*
X173426666Y-88866666D02*
X173360000Y-88733333D01*
X173293333Y-88666666D01*
X173160000Y-88600000D01*
X173026666Y-88600000D01*
X172693333Y-88600000D02*
X172360000Y-89533333D01*
X172026666Y-88600000D02*
X172360000Y-89533333D01*
X172493333Y-89866666D01*
X172560000Y-89933333D01*
X172693333Y-90000000D01*
%LPC*%
D13*
%TO.C,J5*%
X162560000Y-83500000D03*
D14*
X162560000Y-76200000D03*
D15*
X162560000Y-70700000D03*
%TD*%
D13*
%TO.C,J2*%
X124460000Y-83500000D03*
D14*
X124460000Y-76200000D03*
D15*
X124460000Y-70700000D03*
%TD*%
D16*
%TO.C,J1*%
X157230000Y-38100000D03*
X144530000Y-38100000D03*
D17*
X147320000Y-40640000D03*
D18*
X148336000Y-42420000D03*
X149352000Y-40640000D03*
X150368000Y-42420000D03*
X151384000Y-40640000D03*
X152400000Y-42420000D03*
X153416000Y-40640000D03*
X154432000Y-42420000D03*
D19*
X142750000Y-41530000D03*
X159010000Y-41530000D03*
%TD*%
D13*
%TO.C,J3*%
X137160000Y-83500000D03*
D14*
X137160000Y-76200000D03*
D15*
X137160000Y-70700000D03*
%TD*%
D13*
%TO.C,J6*%
X175260000Y-83500000D03*
D14*
X175260000Y-76200000D03*
D15*
X175260000Y-70700000D03*
%TD*%
D13*
%TO.C,J4*%
X149860000Y-83500000D03*
D14*
X149860000Y-76200000D03*
D15*
X149860000Y-70700000D03*
%TD*%
M02*
