%TF.GenerationSoftware,KiCad,Pcbnew,(6.0.8)*%
%TF.CreationDate,2023-04-02T10:00:46-07:00*%
%TF.ProjectId,FCP_steering_splitter,4643505f-7374-4656-9572-696e675f7370,rev?*%
%TF.SameCoordinates,Original*%
%TF.FileFunction,Legend,Top*%
%TF.FilePolarity,Positive*%
%FSLAX46Y46*%
G04 Gerber Fmt 4.6, Leading zero omitted, Abs format (unit mm)*
G04 Created by KiCad (PCBNEW (6.0.8)) date 2023-04-02 10:00:46*
%MOMM*%
%LPD*%
G01*
G04 APERTURE LIST*
G04 Aperture macros list*
%AMRoundRect*
0 Rectangle with rounded corners*
0 $1 Rounding radius*
0 $2 $3 $4 $5 $6 $7 $8 $9 X,Y pos of 4 corners*
0 Add a 4 corners polygon primitive as box body*
4,1,4,$2,$3,$4,$5,$6,$7,$8,$9,$2,$3,0*
0 Add four circle primitives for the rounded corners*
1,1,$1+$1,$2,$3*
1,1,$1+$1,$4,$5*
1,1,$1+$1,$6,$7*
1,1,$1+$1,$8,$9*
0 Add four rect primitives between the rounded corners*
20,1,$1+$1,$2,$3,$4,$5,0*
20,1,$1+$1,$4,$5,$6,$7,0*
20,1,$1+$1,$6,$7,$8,$9,0*
20,1,$1+$1,$8,$9,$2,$3,0*%
G04 Aperture macros list end*
%ADD10C,0.200000*%
%ADD11C,0.300000*%
%ADD12C,0.150000*%
%ADD13C,0.120000*%
%ADD14C,3.000000*%
%ADD15RoundRect,0.250001X1.099999X1.599999X-1.099999X1.599999X-1.099999X-1.599999X1.099999X-1.599999X0*%
%ADD16O,2.700000X3.700000*%
%ADD17C,3.250000*%
%ADD18R,1.500000X1.500000*%
%ADD19C,1.500000*%
%ADD20C,2.300000*%
G04 APERTURE END LIST*
D10*
X121495714Y-66718571D02*
X121495714Y-65218571D01*
X122067142Y-65218571D01*
X122210000Y-65290000D01*
X122281428Y-65361428D01*
X122352857Y-65504285D01*
X122352857Y-65718571D01*
X122281428Y-65861428D01*
X122210000Y-65932857D01*
X122067142Y-66004285D01*
X121495714Y-66004285D01*
X123210000Y-66718571D02*
X123067142Y-66647142D01*
X122995714Y-66575714D01*
X122924285Y-66432857D01*
X122924285Y-66004285D01*
X122995714Y-65861428D01*
X123067142Y-65790000D01*
X123210000Y-65718571D01*
X123424285Y-65718571D01*
X123567142Y-65790000D01*
X123638571Y-65861428D01*
X123710000Y-66004285D01*
X123710000Y-66432857D01*
X123638571Y-66575714D01*
X123567142Y-66647142D01*
X123424285Y-66718571D01*
X123210000Y-66718571D01*
X124210000Y-65718571D02*
X124495714Y-66718571D01*
X124781428Y-66004285D01*
X125067142Y-66718571D01*
X125352857Y-65718571D01*
X126495714Y-66647142D02*
X126352857Y-66718571D01*
X126067142Y-66718571D01*
X125924285Y-66647142D01*
X125852857Y-66504285D01*
X125852857Y-65932857D01*
X125924285Y-65790000D01*
X126067142Y-65718571D01*
X126352857Y-65718571D01*
X126495714Y-65790000D01*
X126567142Y-65932857D01*
X126567142Y-66075714D01*
X125852857Y-66218571D01*
X127210000Y-66718571D02*
X127210000Y-65718571D01*
X127210000Y-66004285D02*
X127281428Y-65861428D01*
X127352857Y-65790000D01*
X127495714Y-65718571D01*
X127638571Y-65718571D01*
X173010000Y-66718571D02*
X173010000Y-65218571D01*
X173010000Y-65932857D02*
X173867142Y-65932857D01*
X173867142Y-66718571D02*
X173867142Y-65218571D01*
X174795714Y-66718571D02*
X174652857Y-66647142D01*
X174581428Y-66575714D01*
X174510000Y-66432857D01*
X174510000Y-66004285D01*
X174581428Y-65861428D01*
X174652857Y-65790000D01*
X174795714Y-65718571D01*
X175010000Y-65718571D01*
X175152857Y-65790000D01*
X175224285Y-65861428D01*
X175295714Y-66004285D01*
X175295714Y-66432857D01*
X175224285Y-66575714D01*
X175152857Y-66647142D01*
X175010000Y-66718571D01*
X174795714Y-66718571D01*
X175938571Y-66718571D02*
X175938571Y-65718571D01*
X175938571Y-66004285D02*
X176010000Y-65861428D01*
X176081428Y-65790000D01*
X176224285Y-65718571D01*
X176367142Y-65718571D01*
X176867142Y-65718571D02*
X176867142Y-66718571D01*
X176867142Y-65861428D02*
X176938571Y-65790000D01*
X177081428Y-65718571D01*
X177295714Y-65718571D01*
X177438571Y-65790000D01*
X177510000Y-65932857D01*
X177510000Y-66718571D01*
X159631428Y-65218571D02*
X160488571Y-65218571D01*
X160060000Y-66718571D02*
X160060000Y-65218571D01*
X161631428Y-65718571D02*
X161631428Y-66718571D01*
X160988571Y-65718571D02*
X160988571Y-66504285D01*
X161060000Y-66647142D01*
X161202857Y-66718571D01*
X161417142Y-66718571D01*
X161560000Y-66647142D01*
X161631428Y-66575714D01*
X162345714Y-66718571D02*
X162345714Y-65718571D01*
X162345714Y-66004285D02*
X162417142Y-65861428D01*
X162488571Y-65790000D01*
X162631428Y-65718571D01*
X162774285Y-65718571D01*
X163274285Y-66718571D02*
X163274285Y-65218571D01*
X163274285Y-65790000D02*
X163417142Y-65718571D01*
X163702857Y-65718571D01*
X163845714Y-65790000D01*
X163917142Y-65861428D01*
X163988571Y-66004285D01*
X163988571Y-66432857D01*
X163917142Y-66575714D01*
X163845714Y-66647142D01*
X163702857Y-66718571D01*
X163417142Y-66718571D01*
X163274285Y-66647142D01*
X164845714Y-66718571D02*
X164702857Y-66647142D01*
X164631428Y-66575714D01*
X164560000Y-66432857D01*
X164560000Y-66004285D01*
X164631428Y-65861428D01*
X164702857Y-65790000D01*
X164845714Y-65718571D01*
X165060000Y-65718571D01*
X165202857Y-65790000D01*
X165274285Y-65861428D01*
X165345714Y-66004285D01*
X165345714Y-66432857D01*
X165274285Y-66575714D01*
X165202857Y-66647142D01*
X165060000Y-66718571D01*
X164845714Y-66718571D01*
X146681428Y-66647142D02*
X146895714Y-66718571D01*
X147252857Y-66718571D01*
X147395714Y-66647142D01*
X147467142Y-66575714D01*
X147538571Y-66432857D01*
X147538571Y-66290000D01*
X147467142Y-66147142D01*
X147395714Y-66075714D01*
X147252857Y-66004285D01*
X146967142Y-65932857D01*
X146824285Y-65861428D01*
X146752857Y-65790000D01*
X146681428Y-65647142D01*
X146681428Y-65504285D01*
X146752857Y-65361428D01*
X146824285Y-65290000D01*
X146967142Y-65218571D01*
X147324285Y-65218571D01*
X147538571Y-65290000D01*
X148824285Y-66718571D02*
X148824285Y-65932857D01*
X148752857Y-65790000D01*
X148610000Y-65718571D01*
X148324285Y-65718571D01*
X148181428Y-65790000D01*
X148824285Y-66647142D02*
X148681428Y-66718571D01*
X148324285Y-66718571D01*
X148181428Y-66647142D01*
X148110000Y-66504285D01*
X148110000Y-66361428D01*
X148181428Y-66218571D01*
X148324285Y-66147142D01*
X148681428Y-66147142D01*
X148824285Y-66075714D01*
X149324285Y-65718571D02*
X149895714Y-65718571D01*
X149538571Y-66718571D02*
X149538571Y-65432857D01*
X149610000Y-65290000D01*
X149752857Y-65218571D01*
X149895714Y-65218571D01*
X150967142Y-66647142D02*
X150824285Y-66718571D01*
X150538571Y-66718571D01*
X150395714Y-66647142D01*
X150324285Y-66504285D01*
X150324285Y-65932857D01*
X150395714Y-65790000D01*
X150538571Y-65718571D01*
X150824285Y-65718571D01*
X150967142Y-65790000D01*
X151038571Y-65932857D01*
X151038571Y-66075714D01*
X150324285Y-66218571D01*
X151467142Y-65718571D02*
X152038571Y-65718571D01*
X151681428Y-65218571D02*
X151681428Y-66504285D01*
X151752857Y-66647142D01*
X151895714Y-66718571D01*
X152038571Y-66718571D01*
X152395714Y-65718571D02*
X152752857Y-66718571D01*
X153110000Y-65718571D02*
X152752857Y-66718571D01*
X152610000Y-67075714D01*
X152538571Y-67147142D01*
X152395714Y-67218571D01*
X135624285Y-66718571D02*
X135624285Y-65218571D01*
X136481428Y-66718571D02*
X135838571Y-65861428D01*
X136481428Y-65218571D02*
X135624285Y-66075714D01*
X137124285Y-66718571D02*
X137124285Y-65718571D01*
X137124285Y-65218571D02*
X137052857Y-65290000D01*
X137124285Y-65361428D01*
X137195714Y-65290000D01*
X137124285Y-65218571D01*
X137124285Y-65361428D01*
X138052857Y-66718571D02*
X137910000Y-66647142D01*
X137838571Y-66504285D01*
X137838571Y-65218571D01*
X138838571Y-66718571D02*
X138695714Y-66647142D01*
X138624285Y-66504285D01*
X138624285Y-65218571D01*
D11*
X137376000Y-53486857D02*
X136876000Y-53486857D01*
X136876000Y-54272571D02*
X136876000Y-52772571D01*
X137590285Y-52772571D01*
X139018857Y-54129714D02*
X138947428Y-54201142D01*
X138733142Y-54272571D01*
X138590285Y-54272571D01*
X138376000Y-54201142D01*
X138233142Y-54058285D01*
X138161714Y-53915428D01*
X138090285Y-53629714D01*
X138090285Y-53415428D01*
X138161714Y-53129714D01*
X138233142Y-52986857D01*
X138376000Y-52844000D01*
X138590285Y-52772571D01*
X138733142Y-52772571D01*
X138947428Y-52844000D01*
X139018857Y-52915428D01*
X139661714Y-54272571D02*
X139661714Y-52772571D01*
X140233142Y-52772571D01*
X140376000Y-52844000D01*
X140447428Y-52915428D01*
X140518857Y-53058285D01*
X140518857Y-53272571D01*
X140447428Y-53415428D01*
X140376000Y-53486857D01*
X140233142Y-53558285D01*
X139661714Y-53558285D01*
X142233142Y-54201142D02*
X142447428Y-54272571D01*
X142804571Y-54272571D01*
X142947428Y-54201142D01*
X143018857Y-54129714D01*
X143090285Y-53986857D01*
X143090285Y-53844000D01*
X143018857Y-53701142D01*
X142947428Y-53629714D01*
X142804571Y-53558285D01*
X142518857Y-53486857D01*
X142376000Y-53415428D01*
X142304571Y-53344000D01*
X142233142Y-53201142D01*
X142233142Y-53058285D01*
X142304571Y-52915428D01*
X142376000Y-52844000D01*
X142518857Y-52772571D01*
X142876000Y-52772571D01*
X143090285Y-52844000D01*
X143518857Y-53272571D02*
X144090285Y-53272571D01*
X143733142Y-52772571D02*
X143733142Y-54058285D01*
X143804571Y-54201142D01*
X143947428Y-54272571D01*
X144090285Y-54272571D01*
X145161714Y-54201142D02*
X145018857Y-54272571D01*
X144733142Y-54272571D01*
X144590285Y-54201142D01*
X144518857Y-54058285D01*
X144518857Y-53486857D01*
X144590285Y-53344000D01*
X144733142Y-53272571D01*
X145018857Y-53272571D01*
X145161714Y-53344000D01*
X145233142Y-53486857D01*
X145233142Y-53629714D01*
X144518857Y-53772571D01*
X146447428Y-54201142D02*
X146304571Y-54272571D01*
X146018857Y-54272571D01*
X145876000Y-54201142D01*
X145804571Y-54058285D01*
X145804571Y-53486857D01*
X145876000Y-53344000D01*
X146018857Y-53272571D01*
X146304571Y-53272571D01*
X146447428Y-53344000D01*
X146518857Y-53486857D01*
X146518857Y-53629714D01*
X145804571Y-53772571D01*
X147161714Y-54272571D02*
X147161714Y-53272571D01*
X147161714Y-53558285D02*
X147233142Y-53415428D01*
X147304571Y-53344000D01*
X147447428Y-53272571D01*
X147590285Y-53272571D01*
X148090285Y-54272571D02*
X148090285Y-53272571D01*
X148090285Y-52772571D02*
X148018857Y-52844000D01*
X148090285Y-52915428D01*
X148161714Y-52844000D01*
X148090285Y-52772571D01*
X148090285Y-52915428D01*
X148804571Y-53272571D02*
X148804571Y-54272571D01*
X148804571Y-53415428D02*
X148876000Y-53344000D01*
X149018857Y-53272571D01*
X149233142Y-53272571D01*
X149376000Y-53344000D01*
X149447428Y-53486857D01*
X149447428Y-54272571D01*
X150804571Y-53272571D02*
X150804571Y-54486857D01*
X150733142Y-54629714D01*
X150661714Y-54701142D01*
X150518857Y-54772571D01*
X150304571Y-54772571D01*
X150161714Y-54701142D01*
X150804571Y-54201142D02*
X150661714Y-54272571D01*
X150376000Y-54272571D01*
X150233142Y-54201142D01*
X150161714Y-54129714D01*
X150090285Y-53986857D01*
X150090285Y-53558285D01*
X150161714Y-53415428D01*
X150233142Y-53344000D01*
X150376000Y-53272571D01*
X150661714Y-53272571D01*
X150804571Y-53344000D01*
X152590285Y-54201142D02*
X152804571Y-54272571D01*
X153161714Y-54272571D01*
X153304571Y-54201142D01*
X153376000Y-54129714D01*
X153447428Y-53986857D01*
X153447428Y-53844000D01*
X153376000Y-53701142D01*
X153304571Y-53629714D01*
X153161714Y-53558285D01*
X152876000Y-53486857D01*
X152733142Y-53415428D01*
X152661714Y-53344000D01*
X152590285Y-53201142D01*
X152590285Y-53058285D01*
X152661714Y-52915428D01*
X152733142Y-52844000D01*
X152876000Y-52772571D01*
X153233142Y-52772571D01*
X153447428Y-52844000D01*
X154090285Y-53272571D02*
X154090285Y-54772571D01*
X154090285Y-53344000D02*
X154233142Y-53272571D01*
X154518857Y-53272571D01*
X154661714Y-53344000D01*
X154733142Y-53415428D01*
X154804571Y-53558285D01*
X154804571Y-53986857D01*
X154733142Y-54129714D01*
X154661714Y-54201142D01*
X154518857Y-54272571D01*
X154233142Y-54272571D01*
X154090285Y-54201142D01*
X155661714Y-54272571D02*
X155518857Y-54201142D01*
X155447428Y-54058285D01*
X155447428Y-52772571D01*
X156233142Y-54272571D02*
X156233142Y-53272571D01*
X156233142Y-52772571D02*
X156161714Y-52844000D01*
X156233142Y-52915428D01*
X156304571Y-52844000D01*
X156233142Y-52772571D01*
X156233142Y-52915428D01*
X156733142Y-53272571D02*
X157304571Y-53272571D01*
X156947428Y-52772571D02*
X156947428Y-54058285D01*
X157018857Y-54201142D01*
X157161714Y-54272571D01*
X157304571Y-54272571D01*
X157590285Y-53272571D02*
X158161714Y-53272571D01*
X157804571Y-52772571D02*
X157804571Y-54058285D01*
X157876000Y-54201142D01*
X158018857Y-54272571D01*
X158161714Y-54272571D01*
X159233142Y-54201142D02*
X159090285Y-54272571D01*
X158804571Y-54272571D01*
X158661714Y-54201142D01*
X158590285Y-54058285D01*
X158590285Y-53486857D01*
X158661714Y-53344000D01*
X158804571Y-53272571D01*
X159090285Y-53272571D01*
X159233142Y-53344000D01*
X159304571Y-53486857D01*
X159304571Y-53629714D01*
X158590285Y-53772571D01*
X159947428Y-54272571D02*
X159947428Y-53272571D01*
X159947428Y-53558285D02*
X160018857Y-53415428D01*
X160090285Y-53344000D01*
X160233142Y-53272571D01*
X160376000Y-53272571D01*
X162804571Y-54272571D02*
X161947428Y-54272571D01*
X162376000Y-54272571D02*
X162376000Y-52772571D01*
X162233142Y-52986857D01*
X162090285Y-53129714D01*
X161947428Y-53201142D01*
X163447428Y-54129714D02*
X163518857Y-54201142D01*
X163447428Y-54272571D01*
X163376000Y-54201142D01*
X163447428Y-54129714D01*
X163447428Y-54272571D01*
X164447428Y-52772571D02*
X164590285Y-52772571D01*
X164733142Y-52844000D01*
X164804571Y-52915428D01*
X164876000Y-53058285D01*
X164947428Y-53344000D01*
X164947428Y-53701142D01*
X164876000Y-53986857D01*
X164804571Y-54129714D01*
X164733142Y-54201142D01*
X164590285Y-54272571D01*
X164447428Y-54272571D01*
X164304571Y-54201142D01*
X164233142Y-54129714D01*
X164161714Y-53986857D01*
X164090285Y-53701142D01*
X164090285Y-53344000D01*
X164161714Y-53058285D01*
X164233142Y-52915428D01*
X164304571Y-52844000D01*
X164447428Y-52772571D01*
X141483142Y-58106571D02*
X141483142Y-59178000D01*
X141411714Y-59392285D01*
X141268857Y-59535142D01*
X141054571Y-59606571D01*
X140911714Y-59606571D01*
X142840285Y-59606571D02*
X142840285Y-58820857D01*
X142768857Y-58678000D01*
X142626000Y-58606571D01*
X142340285Y-58606571D01*
X142197428Y-58678000D01*
X142840285Y-59535142D02*
X142697428Y-59606571D01*
X142340285Y-59606571D01*
X142197428Y-59535142D01*
X142126000Y-59392285D01*
X142126000Y-59249428D01*
X142197428Y-59106571D01*
X142340285Y-59035142D01*
X142697428Y-59035142D01*
X142840285Y-58963714D01*
X144197428Y-59535142D02*
X144054571Y-59606571D01*
X143768857Y-59606571D01*
X143626000Y-59535142D01*
X143554571Y-59463714D01*
X143483142Y-59320857D01*
X143483142Y-58892285D01*
X143554571Y-58749428D01*
X143626000Y-58678000D01*
X143768857Y-58606571D01*
X144054571Y-58606571D01*
X144197428Y-58678000D01*
X144840285Y-59606571D02*
X144840285Y-58106571D01*
X144983142Y-59035142D02*
X145411714Y-59606571D01*
X145411714Y-58606571D02*
X144840285Y-59178000D01*
X147411714Y-59606571D02*
X147268857Y-59535142D01*
X147197428Y-59463714D01*
X147126000Y-59320857D01*
X147126000Y-58892285D01*
X147197428Y-58749428D01*
X147268857Y-58678000D01*
X147411714Y-58606571D01*
X147626000Y-58606571D01*
X147768857Y-58678000D01*
X147840285Y-58749428D01*
X147911714Y-58892285D01*
X147911714Y-59320857D01*
X147840285Y-59463714D01*
X147768857Y-59535142D01*
X147626000Y-59606571D01*
X147411714Y-59606571D01*
X148340285Y-58606571D02*
X148911714Y-58606571D01*
X148554571Y-59606571D02*
X148554571Y-58320857D01*
X148626000Y-58178000D01*
X148768857Y-58106571D01*
X148911714Y-58106571D01*
X150554571Y-59606571D02*
X150554571Y-58106571D01*
X150911714Y-58106571D01*
X151126000Y-58178000D01*
X151268857Y-58320857D01*
X151340285Y-58463714D01*
X151411714Y-58749428D01*
X151411714Y-58963714D01*
X151340285Y-59249428D01*
X151268857Y-59392285D01*
X151126000Y-59535142D01*
X150911714Y-59606571D01*
X150554571Y-59606571D01*
X152054571Y-59606571D02*
X152054571Y-58606571D01*
X152054571Y-58106571D02*
X151983142Y-58178000D01*
X152054571Y-58249428D01*
X152126000Y-58178000D01*
X152054571Y-58106571D01*
X152054571Y-58249428D01*
X153411714Y-59606571D02*
X153411714Y-58820857D01*
X153340285Y-58678000D01*
X153197428Y-58606571D01*
X152911714Y-58606571D01*
X152768857Y-58678000D01*
X153411714Y-59535142D02*
X153268857Y-59606571D01*
X152911714Y-59606571D01*
X152768857Y-59535142D01*
X152697428Y-59392285D01*
X152697428Y-59249428D01*
X152768857Y-59106571D01*
X152911714Y-59035142D01*
X153268857Y-59035142D01*
X153411714Y-58963714D01*
X154126000Y-59606571D02*
X154126000Y-58606571D01*
X154126000Y-58749428D02*
X154197428Y-58678000D01*
X154340285Y-58606571D01*
X154554571Y-58606571D01*
X154697428Y-58678000D01*
X154768857Y-58820857D01*
X154768857Y-59606571D01*
X154768857Y-58820857D02*
X154840285Y-58678000D01*
X154983142Y-58606571D01*
X155197428Y-58606571D01*
X155340285Y-58678000D01*
X155411714Y-58820857D01*
X155411714Y-59606571D01*
X156340285Y-59606571D02*
X156197428Y-59535142D01*
X156126000Y-59463714D01*
X156054571Y-59320857D01*
X156054571Y-58892285D01*
X156126000Y-58749428D01*
X156197428Y-58678000D01*
X156340285Y-58606571D01*
X156554571Y-58606571D01*
X156697428Y-58678000D01*
X156768857Y-58749428D01*
X156840285Y-58892285D01*
X156840285Y-59320857D01*
X156768857Y-59463714D01*
X156697428Y-59535142D01*
X156554571Y-59606571D01*
X156340285Y-59606571D01*
X157483142Y-58606571D02*
X157483142Y-59606571D01*
X157483142Y-58749428D02*
X157554571Y-58678000D01*
X157697428Y-58606571D01*
X157911714Y-58606571D01*
X158054571Y-58678000D01*
X158126000Y-58820857D01*
X158126000Y-59606571D01*
X159483142Y-59606571D02*
X159483142Y-58106571D01*
X159483142Y-59535142D02*
X159340285Y-59606571D01*
X159054571Y-59606571D01*
X158911714Y-59535142D01*
X158840285Y-59463714D01*
X158768857Y-59320857D01*
X158768857Y-58892285D01*
X158840285Y-58749428D01*
X158911714Y-58678000D01*
X159054571Y-58606571D01*
X159340285Y-58606571D01*
X159483142Y-58678000D01*
X160126000Y-59535142D02*
X160268857Y-59606571D01*
X160554571Y-59606571D01*
X160697428Y-59535142D01*
X160768857Y-59392285D01*
X160768857Y-59320857D01*
X160697428Y-59178000D01*
X160554571Y-59106571D01*
X160340285Y-59106571D01*
X160197428Y-59035142D01*
X160126000Y-58892285D01*
X160126000Y-58820857D01*
X160197428Y-58678000D01*
X160340285Y-58606571D01*
X160554571Y-58606571D01*
X160697428Y-58678000D01*
D12*
%TO.C,J5*%
X162226666Y-90752380D02*
X162226666Y-91466666D01*
X162179047Y-91609523D01*
X162083809Y-91704761D01*
X161940952Y-91752380D01*
X161845714Y-91752380D01*
X163179047Y-90752380D02*
X162702857Y-90752380D01*
X162655238Y-91228571D01*
X162702857Y-91180952D01*
X162798095Y-91133333D01*
X163036190Y-91133333D01*
X163131428Y-91180952D01*
X163179047Y-91228571D01*
X163226666Y-91323809D01*
X163226666Y-91561904D01*
X163179047Y-91657142D01*
X163131428Y-91704761D01*
X163036190Y-91752380D01*
X162798095Y-91752380D01*
X162702857Y-91704761D01*
X162655238Y-91657142D01*
%TO.C,J2*%
X124126666Y-90752380D02*
X124126666Y-91466666D01*
X124079047Y-91609523D01*
X123983809Y-91704761D01*
X123840952Y-91752380D01*
X123745714Y-91752380D01*
X124555238Y-90847619D02*
X124602857Y-90800000D01*
X124698095Y-90752380D01*
X124936190Y-90752380D01*
X125031428Y-90800000D01*
X125079047Y-90847619D01*
X125126666Y-90942857D01*
X125126666Y-91038095D01*
X125079047Y-91180952D01*
X124507619Y-91752380D01*
X125126666Y-91752380D01*
%TO.C,J1*%
X162226666Y-40092380D02*
X162226666Y-40806666D01*
X162179047Y-40949523D01*
X162083809Y-41044761D01*
X161940952Y-41092380D01*
X161845714Y-41092380D01*
X163226666Y-41092380D02*
X162655238Y-41092380D01*
X162940952Y-41092380D02*
X162940952Y-40092380D01*
X162845714Y-40235238D01*
X162750476Y-40330476D01*
X162655238Y-40378095D01*
%TO.C,J3*%
X136826666Y-90752380D02*
X136826666Y-91466666D01*
X136779047Y-91609523D01*
X136683809Y-91704761D01*
X136540952Y-91752380D01*
X136445714Y-91752380D01*
X137207619Y-90752380D02*
X137826666Y-90752380D01*
X137493333Y-91133333D01*
X137636190Y-91133333D01*
X137731428Y-91180952D01*
X137779047Y-91228571D01*
X137826666Y-91323809D01*
X137826666Y-91561904D01*
X137779047Y-91657142D01*
X137731428Y-91704761D01*
X137636190Y-91752380D01*
X137350476Y-91752380D01*
X137255238Y-91704761D01*
X137207619Y-91657142D01*
%TO.C,J6*%
X174926666Y-90752380D02*
X174926666Y-91466666D01*
X174879047Y-91609523D01*
X174783809Y-91704761D01*
X174640952Y-91752380D01*
X174545714Y-91752380D01*
X175831428Y-90752380D02*
X175640952Y-90752380D01*
X175545714Y-90800000D01*
X175498095Y-90847619D01*
X175402857Y-90990476D01*
X175355238Y-91180952D01*
X175355238Y-91561904D01*
X175402857Y-91657142D01*
X175450476Y-91704761D01*
X175545714Y-91752380D01*
X175736190Y-91752380D01*
X175831428Y-91704761D01*
X175879047Y-91657142D01*
X175926666Y-91561904D01*
X175926666Y-91323809D01*
X175879047Y-91228571D01*
X175831428Y-91180952D01*
X175736190Y-91133333D01*
X175545714Y-91133333D01*
X175450476Y-91180952D01*
X175402857Y-91228571D01*
X175355238Y-91323809D01*
%TO.C,J4*%
X149526666Y-90752380D02*
X149526666Y-91466666D01*
X149479047Y-91609523D01*
X149383809Y-91704761D01*
X149240952Y-91752380D01*
X149145714Y-91752380D01*
X150431428Y-91085714D02*
X150431428Y-91752380D01*
X150193333Y-90704761D02*
X149955238Y-91419047D01*
X150574285Y-91419047D01*
D13*
%TO.C,J5*%
X160560000Y-77190000D02*
X159750000Y-77190000D01*
X165370000Y-77190000D02*
X165370000Y-90210000D01*
X159750000Y-90210000D02*
X162560000Y-90210000D01*
X165370000Y-90210000D02*
X162560000Y-90210000D01*
X165160000Y-75900000D02*
X165160000Y-76500000D01*
X159750000Y-77190000D02*
X159750000Y-90210000D01*
X162860000Y-74090000D02*
X162860000Y-72810000D01*
X164560000Y-77190000D02*
X165370000Y-77190000D01*
X162260000Y-74090000D02*
X162260000Y-72810000D01*
X164560000Y-76200000D02*
X165160000Y-75900000D01*
X165160000Y-76500000D02*
X164560000Y-76200000D01*
%TO.C,J2*%
X124760000Y-74090000D02*
X124760000Y-72810000D01*
X121650000Y-77190000D02*
X121650000Y-90210000D01*
X126460000Y-77190000D02*
X127270000Y-77190000D01*
X122460000Y-77190000D02*
X121650000Y-77190000D01*
X127060000Y-75900000D02*
X127060000Y-76500000D01*
X121650000Y-90210000D02*
X124460000Y-90210000D01*
X127270000Y-77190000D02*
X127270000Y-90210000D01*
X127270000Y-90210000D02*
X124460000Y-90210000D01*
X126460000Y-76200000D02*
X127060000Y-75900000D01*
X124160000Y-74090000D02*
X124160000Y-72810000D01*
X127060000Y-76500000D02*
X126460000Y-76200000D01*
%TO.C,J1*%
X159245000Y-48500000D02*
X159245000Y-42940000D01*
X141820000Y-39440000D02*
X142320000Y-39940000D01*
X142560000Y-32530000D02*
X159200000Y-32530000D01*
X142320000Y-39940000D02*
X141820000Y-40440000D01*
X142515000Y-32530000D02*
X142515000Y-40140000D01*
X142515000Y-48500000D02*
X142515000Y-42940000D01*
X159245000Y-32530000D02*
X159245000Y-40140000D01*
X141820000Y-40440000D02*
X141820000Y-39440000D01*
X142560000Y-48500000D02*
X159245000Y-48500000D01*
%TO.C,J3*%
X137460000Y-74090000D02*
X137460000Y-72810000D01*
X139160000Y-77190000D02*
X139970000Y-77190000D01*
X139760000Y-75900000D02*
X139760000Y-76500000D01*
X139760000Y-76500000D02*
X139160000Y-76200000D01*
X134350000Y-90210000D02*
X137160000Y-90210000D01*
X139160000Y-76200000D02*
X139760000Y-75900000D01*
X134350000Y-77190000D02*
X134350000Y-90210000D01*
X139970000Y-77190000D02*
X139970000Y-90210000D01*
X139970000Y-90210000D02*
X137160000Y-90210000D01*
X135160000Y-77190000D02*
X134350000Y-77190000D01*
X136860000Y-74090000D02*
X136860000Y-72810000D01*
%TO.C,J6*%
X178070000Y-77190000D02*
X178070000Y-90210000D01*
X177860000Y-75900000D02*
X177860000Y-76500000D01*
X177260000Y-77190000D02*
X178070000Y-77190000D01*
X178070000Y-90210000D02*
X175260000Y-90210000D01*
X172450000Y-77190000D02*
X172450000Y-90210000D01*
X173260000Y-77190000D02*
X172450000Y-77190000D01*
X177260000Y-76200000D02*
X177860000Y-75900000D01*
X172450000Y-90210000D02*
X175260000Y-90210000D01*
X175560000Y-74090000D02*
X175560000Y-72810000D01*
X174960000Y-74090000D02*
X174960000Y-72810000D01*
X177860000Y-76500000D02*
X177260000Y-76200000D01*
%TO.C,J4*%
X152670000Y-90210000D02*
X149860000Y-90210000D01*
X152460000Y-76500000D02*
X151860000Y-76200000D01*
X151860000Y-77190000D02*
X152670000Y-77190000D01*
X147860000Y-77190000D02*
X147050000Y-77190000D01*
X152460000Y-75900000D02*
X152460000Y-76500000D01*
X149560000Y-74090000D02*
X149560000Y-72810000D01*
X150160000Y-74090000D02*
X150160000Y-72810000D01*
X147050000Y-90210000D02*
X149860000Y-90210000D01*
X152670000Y-77190000D02*
X152670000Y-90210000D01*
X151860000Y-76200000D02*
X152460000Y-75900000D01*
X147050000Y-77190000D02*
X147050000Y-90210000D01*
%TD*%
%LPC*%
D14*
%TO.C,J5*%
X162560000Y-83500000D03*
D15*
X162560000Y-76200000D03*
D16*
X162560000Y-70700000D03*
%TD*%
D14*
%TO.C,J2*%
X124460000Y-83500000D03*
D15*
X124460000Y-76200000D03*
D16*
X124460000Y-70700000D03*
%TD*%
D17*
%TO.C,J1*%
X157230000Y-38100000D03*
X144530000Y-38100000D03*
D18*
X147320000Y-40640000D03*
D19*
X148336000Y-42420000D03*
X149352000Y-40640000D03*
X150368000Y-42420000D03*
X151384000Y-40640000D03*
X152400000Y-42420000D03*
X153416000Y-40640000D03*
X154432000Y-42420000D03*
D20*
X142750000Y-41530000D03*
X159010000Y-41530000D03*
%TD*%
D14*
%TO.C,J3*%
X137160000Y-83500000D03*
D15*
X137160000Y-76200000D03*
D16*
X137160000Y-70700000D03*
%TD*%
D14*
%TO.C,J6*%
X175260000Y-83500000D03*
D15*
X175260000Y-76200000D03*
D16*
X175260000Y-70700000D03*
%TD*%
D14*
%TO.C,J4*%
X149860000Y-83500000D03*
D15*
X149860000Y-76200000D03*
D16*
X149860000Y-70700000D03*
%TD*%
M02*
