%TF.GenerationSoftware,KiCad,Pcbnew,(6.0.8)*%
%TF.CreationDate,2023-04-02T10:00:46-07:00*%
%TF.ProjectId,FCP_steering_splitter,4643505f-7374-4656-9572-696e675f7370,rev?*%
%TF.SameCoordinates,Original*%
%TF.FileFunction,Copper,L1,Top*%
%TF.FilePolarity,Positive*%
%FSLAX46Y46*%
G04 Gerber Fmt 4.6, Leading zero omitted, Abs format (unit mm)*
G04 Created by KiCad (PCBNEW (6.0.8)) date 2023-04-02 10:00:46*
%MOMM*%
%LPD*%
G01*
G04 APERTURE LIST*
G04 Aperture macros list*
%AMRoundRect*
0 Rectangle with rounded corners*
0 $1 Rounding radius*
0 $2 $3 $4 $5 $6 $7 $8 $9 X,Y pos of 4 corners*
0 Add a 4 corners polygon primitive as box body*
4,1,4,$2,$3,$4,$5,$6,$7,$8,$9,$2,$3,0*
0 Add four circle primitives for the rounded corners*
1,1,$1+$1,$2,$3*
1,1,$1+$1,$4,$5*
1,1,$1+$1,$6,$7*
1,1,$1+$1,$8,$9*
0 Add four rect primitives between the rounded corners*
20,1,$1+$1,$2,$3,$4,$5,0*
20,1,$1+$1,$4,$5,$6,$7,0*
20,1,$1+$1,$6,$7,$8,$9,0*
20,1,$1+$1,$8,$9,$2,$3,0*%
G04 Aperture macros list end*
%TA.AperFunction,ComponentPad*%
%ADD10RoundRect,0.250001X1.099999X1.599999X-1.099999X1.599999X-1.099999X-1.599999X1.099999X-1.599999X0*%
%TD*%
%TA.AperFunction,ComponentPad*%
%ADD11O,2.700000X3.700000*%
%TD*%
%TA.AperFunction,ComponentPad*%
%ADD12R,1.500000X1.500000*%
%TD*%
%TA.AperFunction,ComponentPad*%
%ADD13C,1.500000*%
%TD*%
%TA.AperFunction,ComponentPad*%
%ADD14C,2.300000*%
%TD*%
%TA.AperFunction,Conductor*%
%ADD15C,0.500000*%
%TD*%
G04 APERTURE END LIST*
D10*
%TO.P,J5,1,Pin_1*%
%TO.N,/Turbo*%
X162560000Y-76200000D03*
D11*
%TO.P,J5,2,Pin_2*%
%TO.N,GND*%
X162560000Y-70700000D03*
%TD*%
D10*
%TO.P,J2,1,Pin_1*%
%TO.N,VCC*%
X124460000Y-76200000D03*
D11*
%TO.P,J2,2,Pin_2*%
%TO.N,GND*%
X124460000Y-70700000D03*
%TD*%
D12*
%TO.P,J1,1,Pin_1*%
%TO.N,VCC*%
X147320000Y-40640000D03*
D13*
%TO.P,J1,2,Pin_2*%
X148336000Y-42420000D03*
%TO.P,J1,3,Pin_3*%
%TO.N,unconnected-(J1-Pad3)*%
X149352000Y-40640000D03*
%TO.P,J1,4,Pin_4*%
%TO.N,unconnected-(J1-Pad4)*%
X150368000Y-42420000D03*
%TO.P,J1,5,Pin_5*%
%TO.N,unconnected-(J1-Pad5)*%
X151384000Y-40640000D03*
%TO.P,J1,6,Pin_6*%
%TO.N,/Horn*%
X152400000Y-42420000D03*
%TO.P,J1,7,Pin_7*%
%TO.N,/Turbo*%
X153416000Y-40640000D03*
%TO.P,J1,8,Pin_8*%
%TO.N,/Kill*%
X154432000Y-42420000D03*
D14*
%TO.P,J1,SH,Shield*%
%TO.N,GND*%
X142750000Y-41530000D03*
X159010000Y-41530000D03*
%TD*%
D10*
%TO.P,J3,1,Pin_1*%
%TO.N,/Kill*%
X137160000Y-76200000D03*
D11*
%TO.P,J3,2,Pin_2*%
%TO.N,/Safety*%
X137160000Y-70700000D03*
%TD*%
D10*
%TO.P,J6,1,Pin_1*%
%TO.N,/Horn*%
X175260000Y-76200000D03*
D11*
%TO.P,J6,2,Pin_2*%
%TO.N,GND*%
X175260000Y-70700000D03*
%TD*%
D10*
%TO.P,J4,1,Pin_1*%
%TO.N,/Safety*%
X149860000Y-76200000D03*
D11*
%TO.P,J4,2,Pin_2*%
%TO.N,GND*%
X149860000Y-70700000D03*
%TD*%
D15*
%TO.N,VCC*%
X148336000Y-41656000D02*
X147320000Y-40640000D01*
X124460000Y-76200000D02*
X134620000Y-66040000D01*
X139700000Y-51056000D02*
X148336000Y-42420000D01*
X134620000Y-63500000D02*
X139700000Y-58420000D01*
X148336000Y-42420000D02*
X148336000Y-41656000D01*
X134620000Y-66040000D02*
X134620000Y-63500000D01*
X139700000Y-58420000D02*
X139700000Y-51056000D01*
%TO.N,/Turbo*%
X156718000Y-41910000D02*
X155448000Y-40640000D01*
X162560000Y-76200000D02*
X158242000Y-71882000D01*
X158242000Y-71882000D02*
X156718000Y-70358000D01*
X155448000Y-40640000D02*
X153416000Y-40640000D01*
X156718000Y-70358000D02*
X156718000Y-41910000D01*
%TO.N,/Kill*%
X154432000Y-58928000D02*
X154432000Y-42420000D01*
X137160000Y-76200000D02*
X154432000Y-58928000D01*
%TO.N,GND*%
X175260000Y-70700000D02*
X162560000Y-70700000D01*
%TD*%
M02*
